<svg width="17" height="16" viewBox="0 0 17 16" fill="none"
    xmlns="http://www.w3.org/2000/svg">
    <path d="M11.3826 2.94096L13.6327 5.10828L12.1327 5.83072L15.1328 8.72048L12.8827 9.44292L15.8828 12.3327H9.13255M10.6326 14.5V12.3327M5.3824 8.72048L3.88234 7.2756M5.3824 7.99804L6.88246 6.55316M5.3824 14.5V5.10828M3.75034 10.8878C3.42218 10.8693 3.10221 10.7818 2.81295 10.6313C2.52369 10.4809 2.27216 10.2713 2.07605 10.0172C1.87994 9.76306 1.74402 9.47065 1.67784 9.1605C1.61166 8.85036 1.61684 8.53001 1.69301 8.222C1.4211 8.00389 1.20643 7.72709 1.06643 7.41408C0.926425 7.10106 0.865038 6.76065 0.887251 6.4205C0.909464 6.08034 1.01465 5.75002 1.19427 5.45637C1.37389 5.16272 1.62288 4.91401 1.92102 4.73045C1.65953 4.28301 1.57147 3.76068 1.6725 3.25653C1.77354 2.75238 2.05712 2.29916 2.47271 1.97761C2.8883 1.65606 3.40892 1.48708 3.94179 1.50077C4.47467 1.51446 4.98519 1.70993 5.3824 2.05236C5.7797 1.71047 6.29005 1.51547 6.82263 1.50204C7.35521 1.48862 7.87545 1.65765 8.29077 1.97905C8.70609 2.30046 8.98954 2.75338 9.09067 3.25721C9.1918 3.76104 9.10405 4.28309 8.84304 4.73045C9.14122 4.91395 9.39027 5.16261 9.56996 5.45623C9.74965 5.74985 9.85491 6.08015 9.8772 6.42031C9.89948 6.76047 9.83817 7.1009 9.69823 7.41394C9.55828 7.72699 9.34367 8.00384 9.0718 8.222C9.15053 8.54044 9.15335 8.87193 9.08004 9.19158C9.00674 9.51123 8.85921 9.81073 8.64854 10.0676C8.43786 10.3245 8.16952 10.532 7.86364 10.6747C7.55777 10.8174 7.22231 10.8915 6.88246 10.8914H3.88234L3.75034 10.8878Z" stroke="#381207" strokeWidth="1.5" strokeLinecap="round" strokeLinejoin="round" />
</svg>