<svg width="32" height="32" viewBox="0 0 32 32" fill="none"
    xmlns="http://www.w3.org/2000/svg">
    <path d="M5.62693 29.328V24.5946C5.62693 22.9 5.18293 22.0186 4.31093 20.5453C3.2479 18.7455 2.67984 16.6965 2.66439 14.6063C2.64893 12.516 3.18663 10.4589 4.22292 8.64352C5.25921 6.82818 6.75723 5.31924 8.565 4.26978C10.3728 3.22032 12.426 2.6677 14.5163 2.66797C17.659 2.66832 20.673 3.91676 22.8956 6.13879C25.1181 8.36081 26.3672 11.3745 26.3683 14.5173C26.3683 15.2906 26.3683 15.6773 26.4003 15.8933C26.4776 16.4106 26.7203 16.856 26.9563 17.3173L29.3309 21.9226L27.4643 22.856C26.9243 23.1253 26.6536 23.26 26.4656 23.5093C26.2776 23.7586 26.2243 24.0413 26.1189 24.6026L26.1083 24.6586C25.8643 25.9493 25.5963 27.3733 24.8416 28.272C24.5749 28.588 24.2443 28.8453 23.8723 29.028C23.2576 29.328 22.5016 29.328 20.9896 29.328C20.2896 29.328 19.5883 29.344 18.8883 29.328C17.2309 29.2866 15.9976 27.892 15.9976 26.2746" stroke="#A6A643" stroke-width="3" stroke-linecap="round" stroke-linejoin="round"/>
    <path d="M19.1811 14.0441C18.6131 14.0441 18.0944 13.8281 17.7011 13.4748M19.1811 14.0441C19.1811 15.5721 18.2958 17.0228 16.5918 17.0228C14.8878 17.0228 14.0024 18.4734 14.0024 20.0014M19.1811 14.0441C22.0478 14.0441 22.0478 9.57612 19.1811 9.57612C18.9198 9.577 18.6722 9.61923 18.4384 9.70278C18.5784 6.37212 13.7771 5.46812 12.6891 8.58812M12.6891 8.58812C13.4824 9.12278 14.0024 10.0321 14.0024 11.0641M12.6891 8.58812C10.2198 6.92145 6.92911 9.91211 8.49445 12.5788C5.86778 12.9721 6.14778 17.0228 8.82378 17.0228C9.18058 17.0226 9.53206 16.9362 9.84826 16.7709C10.1645 16.6056 10.436 16.3663 10.6398 16.0734" stroke="#A6A643" stroke-width="3" stroke-linecap="round" stroke-linejoin="round"/>
</svg>