<svg width="50" height="51" viewBox="0 0 50 51" fill="none"
    xmlns="http://www.w3.org/2000/svg">
    <g clipPath="url(#clip0_1145_9562)">
        <path d="M12.5247 50.03C11.2349 50.03 10.1587 49.5988 9.29637 48.7364C8.43399 47.8741 8.00187 46.798 8 45.5081V24.8306C8 21.2225 9.01171 18.0259 11.0351 15.2409C13.0567 12.4559 15.6345 10.4549 18.7685 9.23782V8.03105C18.7685 6.34363 19.3519 4.91659 20.5185 3.74996C21.6851 2.58332 23.1122 2 24.7996 2C26.487 2 27.914 2.58332 29.0807 3.74996C30.2473 4.91659 30.8306 6.34363 30.8306 8.03105V9.23502C33.9647 10.4539 36.5425 12.4559 38.564 15.2409C40.5875 18.0259 41.5992 21.2225 41.5992 24.8306V45.5081C41.5992 46.7961 41.168 47.8713 40.3056 48.7336C39.4432 49.596 38.3662 50.0281 37.0745 50.03H12.5247ZM12.5247 47.2301H37.0773C37.5066 47.2301 37.9014 47.0509 38.2617 46.6925C38.6219 46.3341 38.8011 45.9384 38.7992 45.5053V24.8306C38.7992 20.9574 37.4338 17.6563 34.7029 14.9273C31.9721 12.1983 28.671 10.8328 24.7996 10.831C20.9282 10.8291 17.6271 12.1945 14.8962 14.9273C12.1654 17.66 10.7999 20.9611 10.7999 24.8306V45.5081C10.7999 45.9374 10.9791 46.3322 11.3375 46.6925C11.6959 47.0527 12.0907 47.2319 12.5219 47.2301M33.1994 34.6304C33.5988 34.6304 33.932 34.4969 34.199 34.23C34.4659 33.9631 34.5993 33.6299 34.5993 33.2304V26.2306H14.9998V29.0305H31.7994V33.2304C31.7994 33.6299 31.9329 33.9631 32.1998 34.23C32.4667 34.4969 32.7999 34.6304 33.1994 34.6304ZM21.5685 8.42024C22.1191 8.28958 22.6576 8.19251 23.184 8.12905C23.7123 8.06371 24.2508 8.03105 24.7996 8.03105C25.3484 8.03105 25.8869 8.06278 26.4151 8.12625C26.9434 8.18971 27.4819 8.28771 28.0307 8.42024V8.03105C28.0307 7.12947 27.7171 6.36602 27.0899 5.74071C26.4627 5.11539 25.6993 4.8018 24.7996 4.79993C23.8999 4.79806 23.1364 5.11166 22.5092 5.74071C21.8821 6.36976 21.5685 7.13321 21.5685 8.03105V8.42024ZM12.5247 47.2301H10.7999H38.7992H12.5247Z" fill="#381207" />
    </g>
    <defs>
        <clipPath id="clip0_1145_9562">
            <rect width="50" height="50" fill="white" transform="translate(0 0.5)" />
        </clipPath>
    </defs>
</svg>
