<svg
    width="80"
    height="80"
    viewBox="0 0 80 80"
    fill="none"
    xmlns="http://www.w3.org/2000/svg"
>
    <path
    d="M37.5024 15C37.5024 13.0222 38.0889 11.0888 39.1877 9.4443C40.2865 7.79981 41.8483 6.51809 43.6756 5.76121C45.5028 5.00433 47.5135 4.8063 49.4533 5.19215C51.3931 5.578 53.1749 6.53041 54.5735 7.92894C55.972 9.32746 56.9244 11.1093 57.3103 13.0491C57.6961 14.9889 57.4981 16.9996 56.7412 18.8268C55.9843 20.6541 54.7026 22.2159 53.0581 23.3147C51.4136 24.4135 49.4802 25 47.5024 25C44.8502 25 42.3067 23.9464 40.4313 22.0711C38.556 20.1957 37.5024 17.6522 37.5024 15ZM65.0024 42.5C56.0524 42.5 51.9368 38.3438 47.5805 33.9469C46.4774 32.8313 45.3368 31.6781 44.143 30.6406C32.5805 20.5969 14.0743 37.7438 13.293 38.4781C12.8278 38.9361 12.5602 39.5579 12.5474 40.2107C12.5345 40.8634 12.7776 41.4952 13.2245 41.9711C13.6714 42.447 14.2868 42.7292 14.939 42.7574C15.5912 42.7855 16.2286 42.5575 16.7149 42.1219C19.6233 39.4949 22.8233 37.2102 26.2524 35.3125C30.5587 33.0063 34.1868 32.1156 37.0962 32.6313L20.2087 71.5031C19.945 72.1111 19.9335 72.7989 20.1766 73.4153C20.4198 74.0318 20.8978 74.5264 21.5055 74.7906C21.8194 74.9298 22.1591 75.0012 22.5024 75C22.9896 75.0002 23.4663 74.8581 23.8738 74.591C24.2813 74.324 24.6019 73.9437 24.7962 73.4969L35.293 49.35L45.0024 56.2875V72.5C45.0024 73.163 45.2658 73.7989 45.7346 74.2678C46.2035 74.7366 46.8394 75 47.5024 75C48.1654 75 48.8013 74.7366 49.2702 74.2678C49.739 73.7989 50.0024 73.163 50.0024 72.5V55C50.0024 54.6021 49.9074 54.2099 49.7253 53.856C49.5433 53.5022 49.2793 53.1969 48.9555 52.9656L37.3305 44.6625L41.5274 35C42.3524 35.7625 43.1712 36.5844 44.0274 37.45C48.4555 41.9344 53.968 47.5 65.0024 47.5C65.6655 47.5 66.3013 47.2366 66.7702 46.7678C67.239 46.2989 67.5024 45.663 67.5024 45C67.5024 44.337 67.239 43.7011 66.7702 43.2322C66.3013 42.7634 65.6655 42.5 65.0024 42.5Z"
    fill="#5B6502"
    />
</svg>