<svg width="50" height="50" viewBox="0 0 50 50" fill="none"
    xmlns="http://www.w3.org/2000/svg">
    <path d="M16.668 8.33464C16.668 10.6263 20.418 12.5013 25.0013 12.5013C29.5846 12.5013 33.3346 10.6263 33.3346 8.33464V6.2513C33.3346 5.0013 32.5013 4.16797 31.2513 4.16797H18.7513C17.5013 4.16797 16.668 5.0013 16.668 6.2513V8.33464Z" stroke="#381207" strokeWidth="4.16667" strokeLinecap="round" strokeLinejoin="round" />
    <path d="M16.668 8.33333C16.668 12.5 25.0013 18.75 25.0013 29.1667M25.0013 29.1667V45.8333M25.0013 29.1667C25.0013 18.75 33.3346 12.5 33.3346 8.33333M12.5013 39.5833H6.2513C5.0013 39.5833 4.16797 38.75 4.16797 37.5V14.5833C4.16797 12.2917 5.83464 9.79167 8.1263 9.16667L16.668 6.25" stroke="#381207" strokeWidth="4.16667" strokeLinecap="round" strokeLinejoin="round" />
    <path d="M33.3346 6.25L41.8763 9.16667C44.168 9.79167 45.8346 12.2917 45.8346 14.5833V37.5C45.8346 38.75 45.0013 39.5833 43.7513 39.5833H37.5013M4.16797 31.25H12.5013L16.668 27.0833" stroke="#381207" strokeWidth="4.16667" strokeLinecap="round" strokeLinejoin="round" />
    <path d="M45.8333 31.2526H37.5L33.3333 27.0859M12.5 37.5026H37.5" stroke="#381207" strokeWidth="4.16667" strokeLinecap="round" strokeLinejoin="round" />
</svg>
