<svg width="141" height="100" viewBox="0 0 141 100" fill="none"
    xmlns="http://www.w3.org/2000/svg" className="mx-auto">
    <path d="M92.3706 1.92703C85.4343 1.92703 78.9227 3.34507 72.9772 6.03934C66.1825 2.49424 58.2553 0.367188 50.045 0.367188C22.7245 0.367188 0.5 22.6304 0.5 49.9985C0.5 77.3666 22.7245 99.6298 50.045 99.6298C58.2553 99.6298 65.8994 97.6446 72.6941 94.0995C78.7811 96.7937 85.4343 98.3536 92.3706 98.3536C118.983 98.3536 140.5 76.7994 140.5 50.1403C140.5 23.4812 118.983 1.92703 92.3706 1.92703ZM49.9034 96.6519C24.14 96.6519 3.18959 75.665 3.18959 49.8567C3.18959 24.0484 24.14 3.06146 49.9034 3.06146C56.9813 3.06146 63.6345 4.6213 69.5799 7.45737C54.4333 15.5402 44.0996 31.564 44.0996 49.9985C44.0996 68.2912 54.2917 84.1732 69.2968 92.3978C63.4929 95.0921 56.8397 96.6519 49.9034 96.6519Z" fill="#DEE2DA" />
</svg>