<svg width="13" height="16" viewBox="0 0 13 16" fill="none"
    xmlns="http://www.w3.org/2000/svg">
    <path fillRule="evenodd" clipRule="evenodd" d="M6.91237 15.0997L6.90372 15.1011L6.85255 15.1263L6.83814 15.1292L6.82805 15.1263L6.77688 15.1004C6.7692 15.0985 6.76343 15.0999 6.75959 15.1047L6.7567 15.1119L6.74445 15.4204L6.74806 15.4348L6.75526 15.4441L6.83021 15.4975L6.84102 15.5004L6.84967 15.4975L6.92462 15.4441L6.93327 15.4326L6.93615 15.4204L6.9239 15.1126C6.92198 15.1049 6.91813 15.1006 6.91237 15.0997ZM7.10263 15.0182L7.09254 15.0197L6.95993 15.0867L6.95273 15.0939L6.95057 15.1018L6.96354 15.4117L6.96714 15.4204L6.97291 15.4261L7.11776 15.4924C7.12689 15.4948 7.13386 15.4929 7.13866 15.4867L7.14154 15.4766L7.11704 15.0341C7.11464 15.0249 7.10983 15.0197 7.10263 15.0182ZM6.58735 15.0197C6.58417 15.0177 6.58038 15.0171 6.57675 15.0179C6.57313 15.0187 6.56995 15.0209 6.56789 15.024L6.56356 15.0341L6.53906 15.4766C6.53954 15.4852 6.54363 15.491 6.55131 15.4939L6.56212 15.4924L6.70698 15.4254L6.71419 15.4196L6.71635 15.4117L6.72932 15.1018L6.72716 15.0932L6.71995 15.086L6.58735 15.0197Z" fill="#381207" />
    <path fillRule="evenodd" clipRule="evenodd" d="M2.41859 0.669468C2.53449 0.571849 2.67821 0.513247 2.82933 0.501991C2.98044 0.490736 3.13126 0.527399 3.26034 0.606769C5.75097 2.13963 7.11592 4.07896 7.8438 6.21358C8.02397 6.74184 8.1645 7.28018 8.27332 7.825C9.01489 6.57824 10.1997 5.58948 11.984 4.87602C12.1099 4.82578 12.2473 4.81201 12.3806 4.83631C12.5139 4.86061 12.6376 4.92199 12.7376 5.0134C12.8376 5.10482 12.9098 5.22257 12.9459 5.35314C12.982 5.48371 12.9806 5.62183 12.9418 5.75163L12.8114 6.18692C11.8313 9.45011 11.5307 10.4497 11.5307 12.7515C11.5307 12.9426 11.4548 13.1259 11.3197 13.2611C11.1845 13.3962 11.0012 13.4722 10.8101 13.4722H2.16204C1.9709 13.4722 1.7876 13.3962 1.65244 13.2611C1.51729 13.1259 1.44137 12.9426 1.44137 12.7515C1.44137 9.96683 1.10121 8.24371 0.0367794 5.05186C-0.00654063 4.92152 -0.0117076 4.7815 0.0218873 4.64832C0.0554823 4.51513 0.12644 4.39432 0.226401 4.30011C0.326363 4.20591 0.451165 4.14223 0.586107 4.11658C0.72105 4.09093 0.860511 4.10438 0.988064 4.15535C1.9934 4.55676 2.75731 5.09294 3.33385 5.72641C3.14175 4.27212 2.76542 2.84818 2.21392 1.48887C2.1575 1.34812 2.1469 1.19316 2.18365 1.04604C2.22039 0.898928 2.30261 0.76715 2.41859 0.669468Z" fill="#381207" />
</svg>