<svg width="31" height="28" viewBox="0 0 31 28" fill="none"
    xmlns="http://www.w3.org/2000/svg">
    <path d="M21.8398 2.5C25.5097 2.50013 28.4998 5.53067 28.5 9.30762C28.5 12.9158 26.7675 16.0495 23.6738 19.0967L23.0371 19.7051C21.3995 21.2252 19.4505 22.6932 17.9043 23.7842C17.1327 24.3286 16.4644 24.7775 15.9893 25.0898C15.7887 25.2217 15.6218 25.3281 15.4971 25.4082C15.3682 25.3267 15.1958 25.2164 14.9873 25.0811C14.5004 24.7651 13.8179 24.3119 13.0371 23.7646C11.4719 22.6677 9.52653 21.2029 7.96875 19.7109C4.83524 16.7097 2.5 13.1362 2.5 9.30762C2.5002 5.54213 5.49082 2.50013 9.16016 2.5C11.7196 2.5 13.9379 3.9795 15.0557 6.15234L15.5 7.01758L15.9443 6.15234C17.0621 3.9795 19.2805 2.5 21.8398 2.5Z" stroke="currentColor"/>
    <path d="M21.8398 2.5C25.5097 2.50013 28.4998 5.53067 28.5 9.30762C28.5 12.9158 26.7675 16.0495 23.6738 19.0967L23.0371 19.7051C21.3995 21.2252 19.4505 22.6932 17.9043 23.7842C17.1327 24.3286 16.4644 24.7775 15.9893 25.0898C15.7887 25.2217 15.6218 25.3281 15.4971 25.4082C15.3682 25.3267 15.1958 25.2164 14.9873 25.0811C14.5004 24.7651 13.8179 24.3119 13.0371 23.7646C11.4719 22.6677 9.52653 21.2029 7.96875 19.7109C4.83524 16.7097 2.5 13.1362 2.5 9.30762C2.5002 5.54213 5.49082 2.50013 9.16016 2.5C11.7196 2.5 13.9379 3.9795 15.0557 6.15234L15.5 7.01758L15.9443 6.15234C17.0621 3.9795 19.2805 2.5 21.8398 2.5Z" stroke="currentColor"/>
    <path d="M21.8396 2C19.0802 2 16.6975 3.596 15.5 5.924C14.3026 3.596 11.9198 2 9.1604 2C5.2049 2 2 5.276 2 9.308C2 13.34 4.45295 17.036 7.62275 20.072C10.7926 23.108 15.5 26 15.5 26C15.5 26 20.0549 23.156 23.3772 20.072C26.921 16.784 29 13.352 29 9.308C29 5.264 25.7951 2 21.8396 2Z" stroke="currentColor" strokeWidth="3.5" strokeLinecap="round" strokeLinejoin="round"/>
</svg>
