<svg width="15" height="10" viewBox="0 0 15 10" fill="none"
    xmlns="http://www.w3.org/2000/svg">
    <path d="M0.443184 10C0.316729 10 0.211251 9.95988 0.12675 9.87963C0.0422501 9.79938 0 9.70019 0 9.58205C0 9.4639 0.0422501 9.36443 0.12675 9.28363C0.211251 9.20282 0.316729 9.1627 0.443184 9.16325H4.31218C4.09531 8.35019 3.74697 7.67422 3.26715 7.13534C2.78792 6.5959 2.19317 6.10327 1.48289 5.65745C1.22585 5.49807 1.10766 5.3398 1.12835 5.18265C1.14903 5.0255 1.31714 4.93801 1.63269 4.92018C3.1921 4.86166 4.55977 5.31166 5.73568 6.27017C6.9116 7.22868 7.49955 8.47196 7.49955 10H0.443184ZM8.38592 10C8.38592 9.71468 8.36229 9.41681 8.31501 9.10641C8.26774 8.79601 8.18619 8.48895 8.07037 8.18524C8.57738 7.24512 9.29208 6.47023 10.2145 5.86058C11.1369 5.25092 12.1819 4.93745 13.3496 4.92018C13.6817 4.91683 13.8578 5.00042 13.8779 5.17095C13.8985 5.34203 13.7783 5.5042 13.5171 5.65745C12.8293 6.04977 12.2428 6.52903 11.7577 7.09521C11.2725 7.66085 10.9156 8.35047 10.6869 9.16409H14.5568C14.6827 9.16409 14.7879 9.20394 14.8724 9.28363C14.9569 9.36332 14.9994 9.46251 15 9.58121C15.0006 9.69991 14.958 9.79938 14.8724 9.87963C14.7867 9.95988 14.6815 10 14.5568 10H8.38592ZM7.70342 7.35184C7.48833 5.87506 7.73651 4.57272 8.44797 3.4448C9.15942 2.31688 10.1545 1.52471 11.4333 1.06831C11.773 0.945705 12.0129 0.956572 12.153 1.10091C12.2924 1.24413 12.2203 1.45338 11.9367 1.72867C11.4297 2.21127 11.0252 2.72898 10.7233 3.28179C10.4213 3.83461 10.198 4.393 10.0532 4.95696C9.57336 5.19603 9.10358 5.54683 8.64386 6.00937C8.18413 6.4719 7.87006 6.91939 7.70342 7.35184ZM6.81971 6.20246C6.61939 5.95949 6.36825 5.71791 6.0663 5.47773C5.76434 5.23754 5.45441 5.04584 5.1365 4.90262C5.17077 4.78671 5.19825 4.646 5.21893 4.48049C5.23961 4.31498 5.24966 4.15281 5.24907 3.99399C5.24907 3.39492 5.18111 2.82009 5.0452 2.26951C4.90929 1.71892 4.71341 1.1884 4.45754 0.677936C4.29504 0.371436 4.30893 0.163851 4.4992 0.0551831C4.68947 -0.0534851 4.9155 -0.00165884 5.17727 0.210662C5.69727 0.614685 6.14932 1.10397 6.53341 1.67852C6.91691 2.25251 7.19996 2.90508 7.38255 3.63622C7.19642 4.01126 7.05844 4.4295 6.96862 4.89092C6.8788 5.35234 6.82946 5.78925 6.8206 6.20163" fill="#381207" />
</svg>