<svg width="599" height="668" viewBox="0 0 599 668" fill="none" xmlns="http://www.w3.org/2000/svg">
<path d="M343.578 451.728C347.495 499.425 357.048 634.154 378.522 649.546C400.549 665.329 428.131 670.041 454.694 665.514C454.694 665.514 563.2 647.426 586.164 622.773C589.018 619.708 593.105 615.151 594.012 610.993C584.607 623.829 571.712 628.046 556.966 632.19C534.651 638.46 507.011 645.573 484.401 650.071C474.84 651.969 454.222 656.023 446.801 648.054C445.982 647.168 445.946 644.738 445.65 644.317C453.699 650.728 462.602 650.979 472.45 649.65C495.547 646.525 530.875 636.496 554.023 630.018C583.014 621.902 599.11 613.504 598.999 579.862C598.844 530.821 591.696 479.254 588.207 429.829C581.251 331.12 575.165 232.033 567.98 133.346C566.276 109.911 565.287 51.1137 553.875 33.5284C542.463 15.9431 520.104 21.6965 503.389 23.4912C480.491 25.9507 455.211 28.3879 432.741 32.5092C396.551 39.1415 396.314 55.2718 399.051 125.163L436.938 623.534C436.57 601.03 437.167 635.026 445.282 646.518C433.132 636.843 434.003 612.344 430.875 598.223C422.871 459.173 403.086 284.132 392.914 72.7907C395.024 41.0027 408.619 33.4693 437.993 28.7498C455.189 25.9876 473.859 24.6729 491.276 22.76C505.69 21.1795 528.949 15.98 542.508 21.0466C551.736 24.4957 557.328 33.7869 559.961 42.886C561.326 44.2967 560.839 41.8077 560.677 41.0692C555.011 15.3522 530.351 7.61201 530.351 7.61201C519.345 3.53511 508.619 0.662081 496.772 0.115541C478.485 -0.719042 460.647 3.17321 442.67 5.18951C408.014 9.08176 371.905 10.2044 340.428 26.9182C340.428 26.9182 308.28 46.5789 316.468 104.726" fill="#D9BBAA"/>
<path d="M253.511 449.919C250.31 497.668 242.778 632.523 221.526 648.24C199.735 664.355 172.226 669.474 145.604 665.345C145.604 665.345 36.8402 648.882 13.5148 624.584C10.6083 621.563 6.46258 617.065 5.48884 612.922C15.086 625.618 28.0471 629.635 42.8523 633.557C65.2556 639.495 93.0071 646.194 115.683 650.345C125.273 652.103 145.95 655.84 153.253 647.767C154.065 646.874 154.057 644.444 154.353 644.015C146.4 650.544 137.497 650.928 127.634 649.747C104.493 646.97 69.0178 637.472 45.7735 631.341C16.6573 623.653 0.43574 615.499 0.0373935 581.857C-0.545373 532.824 5.83555 481.154 8.57972 431.677C14.0607 332.879 18.6564 233.704 24.3661 134.92C25.7234 111.463 25.8267 52.6583 36.973 34.9031C47.9644 17.3991 70.5595 22.5617 87.3048 24.1053C110.232 26.225 135.556 28.2856 158.078 32.0596C194.364 38.1454 194.844 54.2758 195.419 88.0801L164.429 607.648C162.187 621.26 162.659 634.569 154.721 646.187C166.723 636.327 165.491 611.851 168.405 597.685C175.863 422.378 192.682 247.057 198.495 71.7429C195.906 39.9845 182.2 32.6579 152.759 28.389C135.52 25.8852 116.834 24.8512 99.388 23.2042C84.9516 21.8379 61.6189 16.9928 48.1341 22.2588C38.9647 25.8409 33.5059 35.2207 31.0052 44.3568C29.6626 45.7896 30.1126 43.2933 30.2675 42.5473C35.5493 16.7491 60.0919 8.63964 60.0919 8.63964C71.0464 4.40764 81.728 1.37212 93.5604 0.648326C111.833 -0.459526 129.729 3.15946 147.728 4.90987C182.443 8.27774 218.56 8.86121 250.288 25.1023C250.288 25.1023 282.731 44.2756 275.413 102.541" fill="#D9BBAA"/>
<path d="M497.649 225.202C528.45 222.796 550.807 187.326 547.585 145.976C544.364 104.627 516.784 73.0559 485.984 75.4612C455.183 77.8665 432.826 113.337 436.048 154.687C439.269 196.036 466.849 227.607 497.649 225.202Z" stroke="#EDE4DC" stroke-width="2" stroke-miterlimit="10"/>
<path d="M156.608 154.318C159.209 112.925 136.322 77.7943 105.489 75.8521C74.6566 73.91 47.553 105.891 44.9519 147.285C42.3508 188.678 65.2372 223.809 96.07 225.751C126.903 227.693 154.006 195.712 156.608 154.318Z" stroke="#EDE4DC" stroke-width="2" stroke-miterlimit="10"/>
<path d="M500.772 218.697C527.958 216.574 547.642 184.642 544.739 147.375C541.835 110.109 517.444 81.6189 490.259 83.7419C463.073 85.8649 443.389 117.797 446.292 155.063C449.195 192.33 473.587 220.82 500.772 218.697Z" stroke="#EDE4DC" stroke-width="2" stroke-miterlimit="10"/>
<path d="M146.358 154.831C148.702 117.525 128.541 85.8923 101.327 84.178C74.1133 82.4638 50.1515 111.317 47.8072 148.623C45.4629 185.929 65.6239 217.562 92.8379 219.276C120.052 220.99 144.014 192.137 146.358 154.831Z" stroke="#EDE4DC" stroke-width="2" stroke-miterlimit="10"/>
<path d="M377.88 178.893C387.979 176.16 385.773 163.811 385.523 160.148C384.364 143.22 382.985 123.352 381.827 106.424C381.303 98.7654 380.123 89.8066 374.575 85.9291C370.998 83.4327 366.918 82.4874 362.861 82.3618C354.975 82.1181 349.155 82.5612 341.358 83.6765C339.248 83.9793 334.269 85.7371 332.454 87C327.054 90.7667 327.335 100.316 328.271 108.034C330.108 123.153 331.288 170.059 336.799 178.051C342.715 186.626 367.479 181.707 377.888 178.893H377.88Z" stroke="#EDE4DC" stroke-width="2" stroke-miterlimit="10" stroke-linecap="round"/>
<path d="M250.416 185.268C260.803 183.998 260.375 171.464 260.648 167.801C261.909 150.88 263.363 131.02 264.624 114.1C265.192 106.448 265.303 97.408 260.36 92.7772C257.173 89.8008 253.264 88.2793 249.273 87.5777C241.498 86.2113 235.677 85.8199 227.799 85.8125C225.674 85.8125 220.489 86.8391 218.512 87.8362C212.632 90.7978 211.548 100.288 211.378 108.058C211.046 123.287 205.551 169.876 209.873 178.577C214.513 187.905 239.72 186.568 250.424 185.261L250.416 185.268Z" stroke="#EDE4DC" stroke-width="2" stroke-miterlimit="10" stroke-linecap="round"/>
<path d="M503.584 208.681C526.85 206.864 543.697 179.539 541.212 147.648C538.728 115.757 517.853 91.3777 494.587 93.1946C471.322 95.0115 454.475 122.337 456.959 154.228C459.444 186.118 480.319 210.498 503.584 208.681Z" stroke="#EDE4DC" stroke-width="2" stroke-miterlimit="10"/>
<path d="M135.681 154.165C137.687 122.24 120.433 95.1712 97.1426 93.7041C73.8523 92.2371 53.3455 116.928 51.3394 148.852C49.3333 180.776 66.5876 207.846 89.8779 209.313C113.168 210.78 133.675 186.089 135.681 154.165Z" stroke="#EDE4DC" stroke-width="2" stroke-miterlimit="10"/>
<path d="M365.155 142.261C369.98 141.345 369.286 138.553 369.272 137.719C369.198 133.841 369.102 129.292 369.035 125.414C369.006 123.664 368.696 121.625 366.195 120.887C364.587 120.407 362.691 120.303 360.788 120.392C357.085 120.554 354.341 120.82 350.645 121.293C349.649 121.419 347.252 121.965 346.367 122.312C343.726 123.332 343.586 125.532 343.814 127.29C344.257 130.732 343.504 141.53 345.872 143.221C348.41 145.038 360.191 143.206 365.163 142.268L365.155 142.261Z" stroke="#EDE4DC" stroke-width="2" stroke-miterlimit="10" stroke-linecap="round"/>
<path d="M243.03 147.202C247.936 146.988 247.648 144.122 247.752 143.295C248.231 139.447 248.784 134.927 249.264 131.086C249.478 129.343 249.47 127.283 247.102 126.197C245.575 125.495 243.716 125.126 241.821 124.934C238.132 124.572 235.381 124.439 231.648 124.387C230.645 124.373 228.196 124.572 227.266 124.786C224.507 125.421 224.057 127.578 224.028 129.351C223.976 132.822 221.697 143.398 223.799 145.415C226.056 147.571 237.97 147.438 243.023 147.217L243.03 147.202Z" stroke="#EDE4DC" stroke-width="2" stroke-miterlimit="10" stroke-linecap="round"/>
<path d="M364.651 141.919C369.284 141.21 368.767 139.874 368.804 139.467C368.944 137.562 369.092 135.331 369.232 133.426C369.298 132.562 369.114 131.579 366.783 131.351C365.278 131.203 363.485 131.255 361.678 131.395C358.152 131.675 355.533 131.949 352 132.385C351.048 132.503 348.747 132.894 347.883 133.116C345.316 133.758 345.073 134.851 345.191 135.701C345.427 137.37 344.136 142.724 346.29 143.433C348.606 144.187 359.885 142.658 364.658 141.934L364.651 141.919Z" stroke="#EDE4DC" stroke-width="2" stroke-miterlimit="10" stroke-linecap="round"/>
<path d="M242.567 146.788C247.251 146.744 246.934 145.355 247.022 144.949C247.428 143.088 247.9 140.894 248.306 139.033C248.49 138.191 248.453 137.187 246.174 136.626C244.706 136.264 242.928 136.057 241.114 135.946C237.587 135.717 234.954 135.621 231.391 135.547C230.432 135.525 228.093 135.592 227.216 135.68C224.59 135.953 224.191 136.995 224.184 137.859C224.184 139.543 222.14 144.661 224.176 145.666C226.36 146.744 237.742 146.84 242.567 146.796V146.788Z" stroke="#EDE4DC" stroke-width="2" stroke-miterlimit="10" stroke-linecap="round"/>
<path d="M389.054 322.348C399.153 319.615 396.947 307.266 396.697 303.603C395.538 286.675 391.747 235.884 390.589 218.956C390.065 211.297 388.885 202.338 383.337 198.46C379.759 195.964 375.68 195.019 371.623 194.893C363.737 194.649 357.917 195.092 350.12 196.208C348.01 196.511 343.03 198.268 341.216 199.531C335.816 203.298 336.096 212.848 337.033 220.566C338.87 235.684 342.455 313.515 347.973 321.506C353.889 330.081 378.653 325.162 389.062 322.348H389.054Z" stroke="#EDE4DC" stroke-width="2" stroke-miterlimit="10" stroke-linecap="round"/>
<path d="M241.091 328.854C251.477 327.584 251.05 315.05 251.322 311.387C252.584 294.467 256.044 243.653 257.305 226.732C257.873 219.081 257.984 210.041 253.041 205.41C249.855 202.434 245.945 200.912 241.954 200.21C234.179 198.844 228.359 198.453 220.48 198.445C218.356 198.445 213.17 199.472 211.193 200.469C205.313 203.431 204.229 212.921 204.059 220.691C203.727 235.92 196.218 313.47 200.541 322.163C205.181 331.491 230.387 330.154 241.091 328.847V328.854Z" stroke="#EDE4DC" stroke-width="2" stroke-miterlimit="10" stroke-linecap="round"/>
<path d="M370.219 285.638C370.765 284.781 369.99 278.466 369.791 276.613C368.854 268.06 367.755 258.008 366.818 249.455C366.398 245.585 365.859 241.028 365.284 238.798C364.915 237.365 364.591 236.678 364.303 236.412C363.757 235.888 363.381 235.814 362.901 235.984C362.776 236.028 362.525 236.656 362.466 237.203C362.289 238.82 362.791 243.628 363.248 247.55C364.141 255.231 366.597 278.843 367.372 283.134C368.205 287.735 369.644 286.524 370.212 285.645L370.219 285.638Z" stroke="#EDE4DC" stroke-width="2" stroke-miterlimit="10" stroke-linecap="round"/>
<path d="M227.655 289.835C228.319 289.06 228.452 282.701 228.511 280.847C228.799 272.243 229.138 262.146 229.426 253.542C229.558 249.65 229.676 245.063 229.426 242.774C229.263 241.304 229.035 240.58 228.799 240.27C228.326 239.672 227.972 239.546 227.478 239.642C227.345 239.664 227.006 240.255 226.873 240.787C226.468 242.36 226.283 247.19 226.172 251.142C225.959 258.875 225.036 282.59 225.199 286.948C225.376 291.623 226.969 290.633 227.655 289.835Z" stroke="#EDE4DC" stroke-width="2" stroke-miterlimit="10" stroke-linecap="round"/>
<path d="M503.033 259.487C504.519 259.371 505.569 257.275 505.376 254.807C505.184 252.338 503.823 250.432 502.336 250.548C500.85 250.664 499.8 252.759 499.993 255.227C500.185 257.696 501.546 259.603 503.033 259.487Z" stroke="#EDE4DC" stroke-width="2" stroke-miterlimit="10"/>
<path d="M94.1742 255.799C94.3295 253.328 93.249 251.249 91.7608 251.155C90.2726 251.061 88.9403 252.988 88.7851 255.459C88.6298 257.93 89.7103 260.01 91.1985 260.103C92.6866 260.197 94.0189 258.27 94.1742 255.799Z" stroke="#EDE4DC" stroke-width="2" stroke-miterlimit="10"/>
<path d="M23.8793 273.387L173.628 293.424L158.373 562.278L8.27734 537.706L23.8793 273.387Z" fill="#D9BBAA" stroke="#EDE4DC" stroke-width="2" stroke-miterlimit="10"/>
<path d="M403.768 496.126C413.866 493.393 411.661 481.045 411.41 477.381C410.252 460.453 403.65 373.583 402.499 356.655C401.975 348.996 400.795 340.037 395.247 336.16C391.67 333.663 387.59 332.718 383.533 332.592C375.647 332.349 369.827 332.792 362.03 333.907C359.92 334.21 354.941 335.968 353.126 337.23C347.726 340.997 348.006 350.547 348.943 358.265C350.78 373.383 357.176 487.293 362.694 495.284C368.61 503.859 393.374 498.94 403.782 496.126H403.768Z" stroke="#EDE4DC" stroke-width="2" stroke-miterlimit="10" stroke-linecap="round"/>
<path d="M230.965 502.963C241.351 501.692 240.924 489.159 241.197 485.495C242.458 468.575 248.264 381.645 249.525 364.725C250.093 357.073 250.204 348.033 245.261 343.402C242.074 340.426 238.165 338.904 234.174 338.203C226.399 336.836 220.578 336.445 212.7 336.438C210.576 336.438 205.39 337.464 203.413 338.461C197.533 341.423 196.449 350.913 196.279 358.683C195.947 373.912 186.092 487.571 190.415 496.271C195.055 505.599 220.261 504.262 230.965 502.955V502.963Z" stroke="#EDE4DC" stroke-width="2" stroke-miterlimit="10" stroke-linecap="round"/>
<path d="M391.483 402.049C400.999 399.383 398.837 387.027 398.579 383.371C397.377 366.45 398.594 379.715 397.392 362.794C396.846 355.143 395.68 346.177 390.413 342.269C387.02 339.751 383.162 338.783 379.333 338.628C371.883 338.333 374.029 338.156 366.675 339.227C364.69 339.515 359.991 341.235 358.287 342.491C353.212 346.221 353.537 355.763 354.473 363.481C356.303 378.6 355.071 392.352 360.331 400.373C365.974 408.977 381.686 404.804 391.49 402.057L391.483 402.049Z" stroke="#EDE4DC" stroke-width="2" stroke-miterlimit="10" stroke-linecap="round"/>
<path d="M232.174 408.103C241.97 406.818 241.587 394.284 241.852 390.621C243.069 373.7 242.383 387.002 243.6 370.081C244.154 362.43 244.264 353.39 239.61 348.766C236.615 345.79 232.926 344.276 229.157 343.581C221.824 342.23 223.971 342.363 216.542 342.37C214.536 342.37 209.645 343.411 207.779 344.409C202.224 347.378 201.191 356.868 201.022 364.645C200.682 379.875 197.51 393.309 201.575 401.995C205.934 411.315 222.082 409.425 232.181 408.103H232.174Z" stroke="#EDE4DC" stroke-width="2" stroke-miterlimit="10" stroke-linecap="round"/>
<path d="M375.548 371.01C375.422 367.708 375.289 364.407 375.164 361.105" stroke="#EDE4DC" stroke-width="4" stroke-miterlimit="10" stroke-linecap="round"/>
<path d="M220.805 375.106C221.144 371.819 221.491 368.533 221.83 365.246" stroke="#EDE4DC" stroke-width="4" stroke-miterlimit="10" stroke-linecap="round"/>
<path d="M371.443 365.76C368.928 368.685 370.086 372.968 371.407 374.94C372.727 376.912 374.977 378.685 377.463 377.917C383.025 376.203 382.346 368.293 379.676 365.324" stroke="#EDE4DC" stroke-width="4" stroke-miterlimit="10" stroke-linecap="round"/>
<path d="M217.494 369.309C214.587 371.849 215.126 376.251 216.151 378.393C217.176 380.535 219.153 382.603 221.728 382.204C227.474 381.303 227.924 373.378 225.704 370.055" stroke="#EDE4DC" stroke-width="4" stroke-miterlimit="10" stroke-linecap="round"/>
<path d="M44.7364 584.426C44.9919 580.359 42.2259 576.875 38.5584 576.644C34.8908 576.413 31.7105 579.523 31.4549 583.589C31.1994 587.656 33.9653 591.14 37.6329 591.371C41.3005 591.602 44.4808 588.493 44.7364 584.426Z" stroke="#EDE4DC" stroke-width="2" stroke-miterlimit="10"/>
<path d="M121.613 595.726C121.606 592.617 118.08 592.358 117.062 592.166C112.37 591.28 116.066 591.893 111.374 590.999C109.25 590.593 106.719 590.29 105.266 591.612C104.329 592.462 103.769 593.57 103.444 594.736C102.802 596.996 102.92 596.324 102.655 598.658C102.581 599.286 102.699 600.852 102.913 601.465C103.547 603.296 106.166 603.902 108.342 604.19C112.591 604.751 116.243 606.155 118.817 605.143C121.584 604.057 121.628 598.939 121.613 595.733V595.726Z" stroke="#EDE4DC" stroke-width="2" stroke-miterlimit="10" stroke-linecap="round"/>
<path d="M115.062 598.16C115.055 595.05 111.529 594.792 110.511 594.6C105.819 593.714 109.515 594.327 104.823 593.433C102.699 593.027 100.169 592.724 98.7154 594.046C97.7786 594.895 97.2179 596.003 96.8934 597.17C96.2516 599.43 96.3696 598.758 96.104 601.092C96.0303 601.72 96.1483 603.285 96.3622 603.898C96.9966 605.73 99.6154 606.336 101.792 606.624C106.041 607.185 109.692 608.588 112.267 607.576C115.033 606.491 115.077 601.373 115.062 598.167V598.16Z" fill="#D9BBAA" stroke="#EDE4DC" stroke-width="2" stroke-miterlimit="10" stroke-linecap="round"/>
</svg>
