<svg width="15" height="14" viewBox="0 0 15 14" fill="none"
    xmlns="http://www.w3.org/2000/svg">
    <path d="M11.0001 0.937995C12.0559 1.54759 12.9342 2.42235 13.548 3.47569C14.1619 4.52903 14.4899 5.72441 14.4998 6.9435C14.5096 8.16259 14.2009 9.36312 13.6042 10.4262C13.0075 11.4893 12.1434 12.3782 11.0976 13.0048C10.0518 13.6313 8.86046 13.9739 7.64156 13.9986C6.42265 14.0232 5.21844 13.7291 4.14813 13.1454C3.07782 12.5617 2.17853 11.7085 1.53928 10.6704C0.900028 9.6323 0.542987 8.44525 0.5035 7.22676L0.5 6.99996L0.5035 6.77316C0.550624 5.31661 1.05118 3.91108 1.93535 2.75262C2.81952 1.59415 4.04322 0.740527 5.43576 0.310798C5.37853 0.614258 5.38893 0.926605 5.46622 1.22559C5.54351 1.52457 5.68579 1.80282 5.88292 2.04053C6.08005 2.27823 6.32719 2.46953 6.60671 2.60081C6.88623 2.73208 7.19127 2.80008 7.50009 2.79998C7.68574 2.79998 7.86379 2.72623 7.99507 2.59496C8.12634 2.46369 8.2001 2.28564 8.2001 2.09999C8.2001 1.91434 8.12634 1.73629 7.99507 1.60502C7.86379 1.47374 7.68574 1.39999 7.50009 1.39999L7.41819 1.39509C7.24102 1.37402 7.07858 1.28609 6.96406 1.14928C6.84955 1.01246 6.7916 0.837081 6.80206 0.658973C6.81251 0.480864 6.89059 0.313471 7.02032 0.190993C7.15006 0.068515 7.32167 0.000197894 7.50009 0C8.7083 0 9.91722 0.312898 11.0001 0.937995ZM9.74011 8.60015C9.60755 8.47021 9.4288 8.39825 9.24318 8.40009C9.05756 8.40193 8.88027 8.47741 8.7503 8.60995C8.58735 8.77631 8.39284 8.90848 8.17816 8.9987C7.96348 9.08893 7.73296 9.13541 7.50009 9.13541C7.26722 9.13541 7.03669 9.08893 6.82201 8.9987C6.60733 8.90848 6.41282 8.77631 6.24987 8.60995C6.11925 8.48047 5.94292 8.4076 5.759 8.40709C5.57507 8.40659 5.39834 8.47848 5.26701 8.60724C5.13567 8.736 5.06029 8.91127 5.05716 9.09516C5.05402 9.27905 5.12339 9.45679 5.25026 9.58995C5.54355 9.88922 5.8936 10.127 6.27992 10.2893C6.66624 10.4516 7.08106 10.5352 7.50009 10.5352C7.91912 10.5352 8.33394 10.4516 8.72026 10.2893C9.10657 10.127 9.45663 9.88922 9.74991 9.58995C9.87985 9.45738 9.95182 9.27864 9.94998 9.09302C9.94814 8.9074 9.87265 8.73012 9.74011 8.60015ZM5.40706 4.89997L5.31816 4.90487C5.14099 4.92594 4.97855 5.01387 4.86404 5.15069C4.74952 5.2875 4.69158 5.46288 4.70203 5.64099C4.71249 5.8191 4.79056 5.98649 4.9203 6.10897C5.05003 6.23145 5.22164 6.29977 5.40006 6.29996L5.48896 6.29506C5.66613 6.27399 5.82857 6.18606 5.94308 6.04925C6.0576 5.91243 6.11555 5.73705 6.10509 5.55895C6.09463 5.38084 6.01656 5.21344 5.88682 5.09096C5.75709 4.96849 5.58548 4.90017 5.40706 4.89997ZM9.60711 4.89997L9.51821 4.90487C9.34104 4.92594 9.17861 5.01387 9.06409 5.15069C8.94958 5.2875 8.89163 5.46288 8.90208 5.64099C8.91254 5.8191 8.99061 5.98649 9.12035 6.10897C9.25008 6.23145 9.42169 6.29977 9.60011 6.29996L9.68901 6.29506C9.86618 6.27399 10.0286 6.18606 10.1431 6.04925C10.2576 5.91243 10.3156 5.73705 10.3051 5.55895C10.2947 5.38084 10.2166 5.21344 10.0869 5.09096C9.95714 4.96849 9.78553 4.90017 9.60711 4.89997Z" fill="#381207" />
</svg>