<svg width="16" height="14" viewBox="0 0 16 14" fill="none"
    xmlns="http://www.w3.org/2000/svg">
    <path d="M6.11643 11.0926C6.11643 11.2203 6.06374 11.3428 5.96996 11.4331C5.87618 11.5233 5.74898 11.5741 5.61635 11.5741H4.61621C4.48358 11.5741 4.35638 11.5233 4.2626 11.4331C4.16882 11.3428 4.11613 11.2203 4.11613 11.0926C4.11613 10.9649 4.16882 10.8424 4.2626 10.7521C4.35638 10.6618 4.48358 10.6111 4.61621 10.6111H5.61635C5.74898 10.6111 5.87618 10.6618 5.96996 10.7521C6.06374 10.8424 6.11643 10.9649 6.11643 11.0926ZM10.6171 10.6111H9.61694C9.48431 10.6111 9.35712 10.6618 9.26334 10.7521C9.16955 10.8424 9.11687 10.9649 9.11687 11.0926C9.11687 11.2203 9.16955 11.3428 9.26334 11.4331C9.35712 11.5233 9.48431 11.5741 9.61694 11.5741H10.6171C10.7497 11.5741 10.8769 11.5233 10.9707 11.4331C11.0645 11.3428 11.1172 11.2203 11.1172 11.0926C11.1172 10.9649 11.0645 10.8424 10.9707 10.7521C10.8769 10.6618 10.7497 10.6111 10.6171 10.6111ZM14.8921 6.88685C14.7983 6.99742 14.6802 7.08654 14.5462 7.14774C14.4123 7.20895 14.2659 7.24071 14.1176 7.24074H12.1173V9.16667C12.5371 9.46983 12.8472 9.89249 13.0037 10.3748C13.1602 10.8571 13.1551 11.3745 12.9891 11.8539C12.8232 12.3332 12.5048 12.7501 12.0791 13.0456C11.6534 13.341 11.1419 13.5 10.6171 13.5H4.61621C4.09142 13.5 3.57994 13.341 3.15422 13.0456C2.72849 12.7501 2.4101 12.3332 2.24415 11.8539C2.0782 11.3745 2.0731 10.8571 2.22957 10.3748C2.38605 9.89249 2.69616 9.46983 3.11599 9.16667V7.24074H1.11569C0.9686 7.24051 0.823369 7.20904 0.690352 7.14858C0.557336 7.08811 0.439809 7.00015 0.346147 6.89094C0.252485 6.78174 0.184994 6.65399 0.148484 6.51679C0.111975 6.3796 0.107345 6.23634 0.134926 6.09722C0.295271 5.3341 0.724468 4.64773 1.34991 4.15422C1.97536 3.66071 2.75866 3.39035 3.5673 3.38889H3.66982C3.3361 3.07569 3.07092 2.70131 2.88991 2.28784C2.7089 1.87437 2.61574 1.43018 2.61591 0.981481C2.61591 0.853785 2.6686 0.731318 2.76238 0.641023C2.85616 0.550727 2.98336 0.5 3.11599 0.5C3.24862 0.5 3.37581 0.550727 3.46959 0.641023C3.56337 0.731318 3.61606 0.853785 3.61606 0.981481C3.61606 1.61997 3.87949 2.2323 4.3484 2.68378C4.81731 3.13525 5.45329 3.38889 6.11643 3.38889H9.11687C9.44522 3.38889 9.77036 3.32662 10.0737 3.20564C10.3771 3.08465 10.6527 2.90732 10.8849 2.68378C11.1171 2.46023 11.3013 2.19484 11.4269 1.90276C11.5526 1.61068 11.6172 1.29763 11.6172 0.981481C11.6172 0.853785 11.6699 0.731318 11.7637 0.641023C11.8575 0.550727 11.9847 0.5 12.1173 0.5C12.2499 0.5 12.3771 0.550727 12.4709 0.641023C12.5647 0.731318 12.6174 0.853785 12.6174 0.981481C12.6176 1.43018 12.5244 1.87437 12.3434 2.28784C12.1624 2.70131 11.8972 3.07569 11.5635 3.38889H11.666C12.4746 3.39035 13.2579 3.66071 13.8834 4.15422C14.5088 4.64773 14.938 5.3341 15.0984 6.09722C15.1268 6.23534 15.123 6.3778 15.0873 6.51434C15.0516 6.65088 14.985 6.77811 14.8921 6.88685ZM8.61679 7C8.61679 7.14284 8.66079 7.28248 8.74321 7.40125C8.82563 7.52001 8.94279 7.61258 9.07985 7.66725C9.21692 7.72191 9.36774 7.73621 9.51324 7.70834C9.65875 7.68048 9.79241 7.61169 9.89731 7.51069C10.0022 7.40968 10.0737 7.281 10.1026 7.1409C10.1315 7.0008 10.1167 6.85559 10.0599 6.72362C10.0031 6.59165 9.907 6.47885 9.78364 6.39949C9.66029 6.32014 9.51526 6.27778 9.3669 6.27778C9.16796 6.27778 8.97717 6.35387 8.8365 6.48931C8.69582 6.62475 8.61679 6.80845 8.61679 7ZM5.11628 7C5.11628 7.14284 5.16027 7.28248 5.2427 7.40125C5.32512 7.52001 5.44227 7.61258 5.57934 7.66725C5.7164 7.72191 5.86722 7.73621 6.01273 7.70834C6.15824 7.68048 6.29189 7.61169 6.3968 7.51069C6.5017 7.40968 6.57314 7.281 6.60209 7.1409C6.63103 7.0008 6.61618 6.85559 6.5594 6.72362C6.50263 6.59165 6.40648 6.47885 6.28313 6.39949C6.15977 6.32014 6.01475 6.27778 5.86639 6.27778C5.66745 6.27778 5.47666 6.35387 5.33598 6.48931C5.19531 6.62475 5.11628 6.80845 5.11628 7ZM3.11599 6.27778V5.7963C3.11508 5.27526 3.29064 4.76815 3.61606 4.35185H3.56605C2.98992 4.35276 2.43171 4.54476 1.9854 4.89555C1.5391 5.24634 1.23195 5.73448 1.11569 6.27778H3.11599ZM12.1173 11.0926C12.1173 10.7095 11.9592 10.3421 11.6779 10.0712C11.3966 9.80033 11.015 9.64815 10.6171 9.64815H4.61621C4.21832 9.64815 3.83674 9.80033 3.55539 10.0712C3.27405 10.3421 3.11599 10.7095 3.11599 11.0926C3.11599 11.4757 3.27405 11.8431 3.55539 12.114C3.83674 12.3849 4.21832 12.537 4.61621 12.537H10.6171C11.015 12.537 11.3966 12.3849 11.6779 12.114C11.9592 11.8431 12.1173 11.4757 12.1173 11.0926ZM14.1176 6.27778C14.0014 5.73443 13.6943 5.24622 13.248 4.89542C12.8017 4.54461 12.2434 4.35264 11.6672 4.35185H11.6172C11.9427 4.76815 12.1182 5.27526 12.1173 5.7963V6.27778H14.1176Z" fill="#381207" />
</svg>