<svg
    width="80"
    height="80"
    viewBox="0 0 80 80"
    fill="none"
    xmlns="http://www.w3.org/2000/svg"
>
    <path
        d="M72.9351 7.16797L68.9351 8.5013C62.0798 10.8831 54.7593 11.614 47.5684 10.6346C40.0123 9.46201 32.2782 10.504 25.3018 13.6346C21.6034 15.2095 18.3576 17.6844 15.86 20.834C13.3624 23.9836 11.6923 27.708 11.0018 31.668C10.2993 35.4761 10.3712 39.3868 11.2131 43.1666C12.0549 46.9464 13.6495 50.5179 15.9018 53.668C15.7018 54.368 15.5018 55.068 15.3351 55.768C13.9812 61.5247 13.31 67.4209 13.3351 73.3346H20.0018C20.3185 68.4944 20.9757 63.6825 21.9684 58.9346C26.5932 61.432 31.7796 62.7056 37.0351 62.6346C41.9367 62.6313 46.7879 61.6452 51.3018 59.7346C76.6684 48.9013 73.3351 12.868 73.3351 11.368L72.9351 7.16797ZM48.7018 53.6013C40.0018 57.3013 29.6018 56.668 23.7684 52.1013C24.7546 48.8048 26.1075 45.6294 27.8018 42.6346C29.1198 40.4798 30.6738 38.4786 32.4351 36.668C34.2355 34.8386 36.2631 33.2478 38.4684 31.9346C43.0253 29.2098 48.0791 27.4195 53.3351 26.668V23.3346C47.2874 23.1214 41.2762 24.3557 35.8018 26.9346C30.2051 29.6693 25.4578 33.875 22.0684 39.1013C20.8117 41.0978 19.6978 43.1808 18.7351 45.3346C17.1902 41.3825 16.7523 37.0838 17.4684 32.9013C17.9377 29.9731 19.1448 27.2126 20.9759 24.8799C22.8071 22.5472 25.2021 20.7191 27.9351 19.568C31.9194 17.702 36.2689 16.7456 40.6684 16.768C42.7351 16.768 44.7684 16.968 46.9018 17.1346C53.5829 17.9966 60.3662 17.6009 66.9018 15.968C66.6684 25.168 65.0018 46.668 48.7018 53.6013Z"
        fill="#5B6502"
    />
</svg>