<svg width="40" height="40" viewBox="0 0 40 40" fill="none"
    xmlns="http://www.w3.org/2000/svg">
    <path d="M17.865 27.135L11.615 20.885C11.4986 20.7689 11.4062 20.6309 11.3432 20.4791C11.2802 20.3272 11.2478 20.1644 11.2478 20C11.2478 19.8356 11.2802 19.6728 11.3432 19.5209C11.4062 19.3691 11.4986 19.2311 11.615 19.115L17.865 12.865C18.0997 12.6303 18.4181 12.4984 18.75 12.4984C19.0819 12.4984 19.4003 12.6303 19.635 12.865C19.8697 13.0997 20.0016 13.4181 20.0016 13.75C20.0016 14.0819 19.8697 14.4003 19.635 14.635L15.5175 18.75H27.5C27.8315 18.75 28.1495 18.8817 28.3839 19.1161C28.6183 19.3505 28.75 19.6685 28.75 20C28.75 20.3315 28.6183 20.6495 28.3839 20.8839C28.1495 21.1183 27.8315 21.25 27.5 21.25H15.5175L19.635 25.365C19.8697 25.5997 20.0016 25.9181 20.0016 26.25C20.0016 26.5819 19.8697 26.9003 19.635 27.135C19.4003 27.3697 19.0819 27.5016 18.75 27.5016C18.4181 27.5016 18.0997 27.3697 17.865 27.135ZM2.5 20C2.5 24.6413 4.34374 29.0925 7.62563 32.3744C10.9075 35.6563 15.3587 37.5 20 37.5C24.6413 37.5 29.0925 35.6563 32.3744 32.3744C35.6563 29.0925 37.5 24.6413 37.5 20C37.5 15.3587 35.6563 10.9075 32.3744 7.62563C29.0925 4.34374 24.6413 2.5 20 2.5C15.3587 2.5 10.9075 4.34374 7.62563 7.62563C4.34374 10.9075 2.5 15.3587 2.5 20ZM20 35C18.0302 35 16.0796 34.612 14.2597 33.8582C12.4399 33.1044 10.7863 31.9995 9.3934 30.6066C8.00052 29.2137 6.89563 27.5601 6.14181 25.7403C5.38799 23.9204 5 21.9698 5 20C5 18.0302 5.38799 16.0796 6.14181 14.2597C6.89563 12.4399 8.00052 10.7863 9.3934 9.3934C10.7863 8.00052 12.4399 6.89563 14.2597 6.14181C16.0796 5.38799 18.0302 5 20 5C23.9782 5 27.7936 6.58035 30.6066 9.3934C33.4196 12.2064 35 16.0218 35 20C35 23.9782 33.4196 27.7936 30.6066 30.6066C27.7936 33.4196 23.9782 35 20 35Z" fill="white" />
</svg>