<svg width="16" height="16" viewBox="0 0 16 16" fill="none"
    xmlns="http://www.w3.org/2000/svg">
    <path d="M6.66526 11.6994L5.48526 12.8461C5.17584 13.1555 4.75617 13.3293 4.31859 13.3293C3.881 13.3293 3.46134 13.1555 3.15192 12.8461C2.8425 12.5367 2.66867 12.117 2.66867 11.6794C2.66867 11.2418 2.8425 10.8222 3.15192 10.5127L6.17859 7.47941C6.47566 7.18137 6.87594 7.00893 7.2966 6.99776C7.71726 6.98659 8.12612 7.13756 8.43859 7.41941L8.51859 7.48608C8.64501 7.60985 8.81542 7.67833 8.99233 7.67645C9.16924 7.67457 9.33815 7.6025 9.46192 7.47608C9.58569 7.34966 9.65417 7.17925 9.65229 7.00234C9.65042 6.82543 9.57834 6.65651 9.45192 6.53275C9.4141 6.48426 9.37405 6.43754 9.33192 6.39275C8.76282 5.89762 8.02681 5.63731 7.27297 5.66454C6.51912 5.69177 5.80381 6.00451 5.27192 6.53941L2.20526 9.57275C1.68416 10.1399 1.40234 10.8865 1.41864 11.6566C1.43494 12.4266 1.74811 13.1606 2.29274 13.7053C2.83738 14.2499 3.57136 14.5631 4.34142 14.5794C5.11148 14.5957 5.85806 14.3138 6.42526 13.7927L7.57859 12.6661C7.69247 12.5418 7.75507 12.3791 7.7538 12.2106C7.75252 12.042 7.68747 11.8803 7.57173 11.7578C7.45599 11.6353 7.29815 11.5611 7.12997 11.5503C6.96179 11.5395 6.79575 11.5928 6.66526 11.6994ZM13.7919 2.20608C13.2311 1.64875 12.4726 1.33594 11.6819 1.33594C10.8913 1.33594 10.1327 1.64875 9.57192 2.20608L8.41859 3.33275C8.30471 3.45698 8.24211 3.61973 8.24338 3.78826C8.24466 3.95678 8.30971 4.11857 8.42545 4.24107C8.54119 4.36357 8.69903 4.43769 8.86721 4.44851C9.03539 4.45934 9.20143 4.40606 9.33192 4.29941L10.4853 3.15275C10.7947 2.84333 11.2143 2.6695 11.6519 2.6695C12.0895 2.6695 12.5092 2.84333 12.8186 3.15275C13.128 3.46216 13.3018 3.88183 13.3018 4.31941C13.3018 4.757 13.128 5.17666 12.8186 5.48608L9.79192 8.51941C9.49485 8.81745 9.09457 8.98989 8.67391 9.00106C8.25325 9.01223 7.84439 8.86127 7.53192 8.57941L7.45192 8.51275C7.3255 8.38898 7.15509 8.3205 6.97819 8.32237C6.80128 8.32425 6.63236 8.39633 6.50859 8.52275C6.38482 8.64917 6.31634 8.81957 6.31822 8.99648C6.32009 9.17339 6.39217 9.34231 6.51859 9.46608C6.56724 9.51537 6.61842 9.5621 6.67192 9.60608C7.24171 10.0997 7.97741 10.359 8.73079 10.3318C9.48417 10.3046 10.1992 9.99287 10.7319 9.45941L13.7653 6.42608C14.3261 5.8688 14.6438 5.11223 14.6488 4.32158C14.6538 3.53092 14.3457 2.77041 13.7919 2.20608Z" fill="#381207"/>
</svg>
