<svg width="15" height="16" viewBox="0 0 15 16" fill="none"
    xmlns="http://www.w3.org/2000/svg">
    <path d="M7.5 13.2507C7.68372 13.2507 7.86104 13.3182 7.99833 13.4403C8.13563 13.5623 8.22334 13.7305 8.24483 13.913L8.25008 14.0007V14.7508C8.24987 14.942 8.17667 15.1258 8.04542 15.2648C7.91418 15.4039 7.73481 15.4875 7.54396 15.4987C7.35311 15.5099 7.16518 15.4478 7.01857 15.3251C6.87197 15.2024 6.77775 15.0284 6.75517 14.8385L6.74992 14.7508V14.0007C6.74992 13.8018 6.82894 13.611 6.96961 13.4704C7.11028 13.3297 7.30107 13.2507 7.5 13.2507ZM12.2353 11.6831L12.3058 11.7454L12.8308 12.2704C12.9654 12.4054 13.0435 12.5865 13.0493 12.777C13.0551 12.9674 12.9882 13.153 12.8622 13.2959C12.7361 13.4388 12.5604 13.5285 12.3707 13.5465C12.181 13.5646 11.9915 13.5098 11.8407 13.3932L11.7702 13.331L11.2452 12.8059C11.1157 12.6767 11.038 12.5047 11.0265 12.3222C11.015 12.1396 11.0706 11.9592 11.1829 11.8148C11.2951 11.6704 11.4562 11.572 11.636 11.5381C11.8157 11.5042 12.0016 11.5371 12.1588 11.6306L12.2353 11.6831ZM3.75484 11.7454C3.88398 11.8745 3.96156 12.0464 3.97303 12.2286C3.98449 12.4109 3.92904 12.5911 3.81709 12.7354L3.75484 12.8059L3.22978 13.331C3.09479 13.4655 2.91367 13.5436 2.72318 13.5494C2.5327 13.5552 2.34714 13.4883 2.2042 13.3623C2.06126 13.2362 1.97166 13.0605 1.95359 12.8708C1.93551 12.6811 1.99033 12.4917 2.1069 12.3409L2.16916 12.2704L2.69422 11.7454C2.83488 11.6048 3.02563 11.5258 3.22453 11.5258C3.42342 11.5258 3.61417 11.6048 3.75484 11.7454ZM1.49934 7.25037C1.69052 7.25059 1.8744 7.32379 2.01342 7.45502C2.15244 7.58626 2.23609 7.76562 2.2473 7.95646C2.2585 8.1473 2.19641 8.33522 2.0737 8.48182C1.95099 8.62841 1.77694 8.72263 1.5871 8.74521L1.49934 8.75046H0.749252C0.558071 8.75025 0.374186 8.67704 0.235169 8.54581C0.0961515 8.41458 0.0124943 8.23521 0.00129017 8.04437C-0.00991391 7.85353 0.0521808 7.66561 0.174887 7.51901C0.297593 7.37242 0.471649 7.2782 0.661492 7.25562L0.749252 7.25037H1.49934ZM14.2507 7.25037C14.4419 7.25059 14.6258 7.32379 14.7648 7.45502C14.9038 7.58626 14.9875 7.76562 14.9987 7.95646C15.0099 8.1473 14.9478 8.33522 14.8251 8.48182C14.7024 8.62841 14.5284 8.72263 14.3385 8.74521L14.2507 8.75046H13.5007C13.3095 8.75025 13.1256 8.67704 12.9866 8.54581C12.8476 8.41458 12.7639 8.23521 12.7527 8.04437C12.7415 7.85353 12.8036 7.66561 12.9263 7.51901C13.049 7.37242 13.2231 7.2782 13.4129 7.25562L13.5007 7.25037H14.2507ZM3.15927 2.60762L3.22978 2.66987L3.75484 3.1949C3.88936 3.32987 3.96746 3.51099 3.97328 3.70147C3.9791 3.89194 3.91219 4.07748 3.78615 4.22041C3.66011 4.36335 3.48439 4.45295 3.29468 4.47102C3.10497 4.48909 2.91549 4.43428 2.76473 4.31771L2.69422 4.25546L2.16916 3.73043C2.04021 3.60118 1.96284 3.42934 1.95153 3.24713C1.94023 3.06491 1.99579 2.88483 2.10777 2.74064C2.21976 2.59645 2.3805 2.49806 2.55985 2.4639C2.73921 2.42975 2.92486 2.46218 3.08201 2.55511L3.15927 2.60762ZM12.8308 2.66987C12.96 2.79902 13.0376 2.97086 13.049 3.15314C13.0605 3.33542 13.005 3.51561 12.8931 3.65992L12.8308 3.73043L12.3058 4.25546C12.1708 4.38998 11.9897 4.46808 11.7992 4.47389C11.6087 4.47971 11.4232 4.41281 11.2802 4.28677C11.1373 4.16074 11.0477 3.98503 11.0296 3.79533C11.0115 3.60562 11.0663 3.41616 11.1829 3.2654L11.2452 3.1949L11.7702 2.66987C11.9109 2.52926 12.1016 2.45027 12.3005 2.45027C12.4994 2.45027 12.6902 2.52926 12.8308 2.66987ZM7.5 0.5C7.68372 0.500024 7.86104 0.567471 7.99833 0.689547C8.13563 0.811623 8.22334 0.979838 8.24483 1.16229L8.25008 1.25004V2.00008C8.24987 2.19125 8.17667 2.37513 8.04542 2.51414C7.91418 2.65315 7.73481 2.7368 7.54396 2.748C7.35311 2.75921 7.16518 2.69712 7.01857 2.57442C6.87197 2.45172 6.77775 2.27767 6.75517 2.08784L6.74992 2.00008V1.25004C6.74992 1.05112 6.82894 0.860342 6.96961 0.719682C7.11028 0.579022 7.30107 0.5 7.5 0.5ZM7.5 4.25021C8.23484 4.25017 8.9535 4.46599 9.56672 4.87087C10.1799 5.27575 10.6607 5.85184 10.9493 6.5276C11.2379 7.20337 11.3216 7.94901 11.19 8.67194C11.0584 9.39486 10.7174 10.0632 10.2092 10.594C9.70098 11.1247 9.04805 11.4945 8.33149 11.6573C7.61493 11.8202 6.86631 11.769 6.17861 11.5101C5.4909 11.2511 4.89443 10.7959 4.46326 10.2009C4.03209 9.60584 3.78523 8.89728 3.75334 8.16317L3.74958 8.00042L3.75334 7.83766C3.79528 6.87217 4.20834 5.96014 4.90638 5.29176C5.60442 4.62338 6.53355 4.25026 7.5 4.25021Z" fill="#381207" />
</svg>