<svg width="16" height="14" viewBox="0 0 16 14" fill="none"
    xmlns="http://www.w3.org/2000/svg">
    <path d="M8 2.94737C8.66737 2.94723 9.32641 3.09294 9.92939 3.37392C10.5324 3.6549 11.0642 4.06412 11.4863 4.57195C11.9084 5.07978 12.2103 5.6735 12.3701 6.31009C12.5298 6.94668 12.5435 7.61022 12.41 8.25263C12.3703 8.44415 12.2548 8.61233 12.0889 8.72018C11.923 8.82804 11.7203 8.86672 11.5254 8.82774C11.3304 8.78875 11.1593 8.67528 11.0495 8.51229C10.9397 8.3493 10.9003 8.15015 10.94 7.95863C11.0285 7.53057 11.019 7.08853 10.9123 6.66451C10.8055 6.24048 10.6042 5.84507 10.3228 5.50687C10.0415 5.16866 9.68709 4.89613 9.28537 4.70898C8.88364 4.52183 8.4446 4.42474 8 4.42474C7.5554 4.42474 7.11636 4.52183 6.71463 4.70898C6.31291 4.89613 5.95855 5.16866 5.67718 5.50687C5.39581 5.84507 5.19448 6.24048 5.08774 6.66451C4.981 7.08853 4.97153 7.53057 5.06 7.95863C5.09958 8.15015 5.06011 8.34927 4.95026 8.51219C4.84041 8.6751 4.66918 8.78848 4.47425 8.82737C4.27932 8.86626 4.07664 8.82748 3.91081 8.71955C3.74498 8.61163 3.62958 8.44341 3.59 8.25189C3.45665 7.60954 3.47039 6.94608 3.6302 6.30958C3.79002 5.67308 4.09192 5.07946 4.51403 4.57172C4.93615 4.06398 5.46792 3.65482 6.07084 3.37388C6.67375 3.09295 7.33271 2.94726 8 2.94737ZM14.75 6.63158C14.9489 6.63158 15.1397 6.70921 15.2803 6.84739C15.421 6.98558 15.5 7.173 15.5 7.36842C15.5 7.56384 15.421 7.75126 15.2803 7.88945C15.1397 8.02763 14.9489 8.10526 14.75 8.10526H14C13.8011 8.10526 13.6103 8.02763 13.4697 7.88945C13.329 7.75126 13.25 7.56384 13.25 7.36842C13.25 7.173 13.329 6.98558 13.4697 6.84739C13.6103 6.70921 13.8011 6.63158 14 6.63158H14.75ZM2 6.63158C2.19891 6.63158 2.38968 6.70921 2.53033 6.84739C2.67098 6.98558 2.75 7.173 2.75 7.36842C2.75 7.56384 2.67098 7.75126 2.53033 7.88945C2.38968 8.02763 2.19891 8.10526 2 8.10526H1.25C1.05109 8.10526 0.860322 8.02763 0.71967 7.88945C0.579018 7.75126 0.5 7.56384 0.5 7.36842C0.5 7.173 0.579018 6.98558 0.71967 6.84739C0.860322 6.70921 1.05109 6.63158 1.25 6.63158H2ZM13.3032 2.15895C13.4439 2.29713 13.5228 2.48451 13.5228 2.67989C13.5228 2.87528 13.4439 3.06266 13.3032 3.20084L12.773 3.72179C12.7038 3.79217 12.6211 3.8483 12.5296 3.88692C12.4381 3.92553 12.3396 3.94586 12.2401 3.94671C12.1405 3.94756 12.0417 3.92892 11.9495 3.89187C11.8574 3.85482 11.7736 3.80011 11.7032 3.73092C11.6328 3.66174 11.5771 3.57947 11.5394 3.48891C11.5017 3.39836 11.4827 3.30133 11.4836 3.20349C11.4844 3.10566 11.5051 3.00897 11.5444 2.91907C11.5837 2.82917 11.6409 2.74787 11.7125 2.67989L12.2428 2.15895C12.3834 2.02081 12.5741 1.94321 12.773 1.94321C12.9719 1.94321 13.1626 2.02081 13.3032 2.15895ZM3.75725 2.15895L4.2875 2.67989C4.42074 2.81949 4.49348 3.00454 4.49031 3.19588C4.48715 3.38723 4.40834 3.56986 4.27055 3.70513C4.13277 3.8404 3.94682 3.9177 3.75206 3.92067C3.55729 3.92364 3.36899 3.85206 3.227 3.72105L2.69675 3.20011C2.62349 3.13252 2.56481 3.05115 2.52418 2.96085C2.48355 2.87054 2.46181 2.77314 2.46025 2.67441C2.45869 2.57569 2.47734 2.47767 2.51509 2.38617C2.55285 2.29467 2.60893 2.21155 2.68002 2.14176C2.75111 2.07197 2.83574 2.01693 2.92891 1.9799C3.02207 1.94288 3.12186 1.92462 3.22234 1.92623C3.32282 1.92783 3.42195 1.94926 3.51384 1.98923C3.60573 2.02921 3.68851 2.08693 3.75725 2.15895ZM8 0C8.19891 0 8.38968 0.0776313 8.53033 0.215816C8.67098 0.354001 8.75 0.541419 8.75 0.736842V1.47368C8.75 1.66911 8.67098 1.85653 8.53033 1.99471C8.38968 2.13289 8.19891 2.21053 8 2.21053C7.80109 2.21053 7.61032 2.13289 7.46967 1.99471C7.32902 1.85653 7.25 1.66911 7.25 1.47368V0.736842C7.25 0.541419 7.32902 0.354001 7.46967 0.215816C7.61032 0.0776313 7.80109 0 8 0ZM2 9.57895C1.80109 9.57895 1.61032 9.65658 1.46967 9.79476C1.32902 9.93295 1.25 10.1204 1.25 10.3158C1.25 10.5112 1.32902 10.6986 1.46967 10.8368C1.61032 10.975 1.80109 11.0526 2 11.0526H14C14.1989 11.0526 14.3897 10.975 14.5303 10.8368C14.671 10.6986 14.75 10.5112 14.75 10.3158C14.75 10.1204 14.671 9.93295 14.5303 9.79476C14.3897 9.65658 14.1989 9.57895 14 9.57895H2ZM4.25 12.5263C4.05109 12.5263 3.86032 12.6039 3.71967 12.7421C3.57902 12.8803 3.5 13.0677 3.5 13.2632C3.5 13.4586 3.57902 13.646 3.71967 13.7842C3.86032 13.9224 4.05109 14 4.25 14H11.75C11.9489 14 12.1397 13.9224 12.2803 13.7842C12.421 13.646 12.5 13.4586 12.5 13.2632C12.5 13.0677 12.421 12.8803 12.2803 12.7421C12.1397 12.6039 11.9489 12.5263 11.75 12.5263H4.25Z" fill="#381207" />
</svg>