<svg width="13" height="14" viewBox="0 0 13 14" fill="none"
    xmlns="http://www.w3.org/2000/svg">
    <path d="M1.68019 0.878906H2.36038C2.54077 0.878906 2.71378 0.950567 2.84134 1.07813C2.9689 1.20568 3.04056 1.37869 3.04056 1.55908V2.91943H5.08113V1.55908C5.08113 1.37869 5.15279 1.20568 5.28035 1.07813C5.40791 0.950567 5.58092 0.878906 5.76132 0.878906H7.12169C7.30209 0.878906 7.4751 0.950567 7.60266 1.07813C7.73022 1.20568 7.80188 1.37869 7.80188 1.55908V2.91943H9.84245V1.55908C9.84245 1.37869 9.91411 1.20568 10.0417 1.07813C10.1692 0.950567 10.3422 0.878906 10.5226 0.878906H11.2028C11.3832 0.878906 11.5562 0.950567 11.6838 1.07813C11.8113 1.20568 11.883 1.37869 11.883 1.55908V4.54777C11.8831 4.81649 11.8035 5.0792 11.6545 5.30277L10.7512 6.65768C10.6021 6.88125 10.5226 7.14396 10.5226 7.41268V12.4419C10.5226 12.6223 10.451 12.7953 10.3234 12.9229C10.1959 13.0504 10.0228 13.1221 9.84245 13.1221H3.04056C2.86017 13.1221 2.68716 13.0504 2.5596 12.9229C2.43204 12.7953 2.36038 12.6223 2.36038 12.4419V7.41268C2.36044 7.14396 2.28091 6.88125 2.13183 6.65768L1.22854 5.30277C1.07946 5.0792 0.99994 4.81649 1 4.54777V1.55908C1 1.37869 1.07166 1.20568 1.19922 1.07813C1.32678 0.950567 1.49979 0.878906 1.68019 0.878906Z" stroke="#381207" strokeWidth="1.5" strokeLinecap="round" strokeLinejoin="round" />
    <path d="M5.07812 13.1226V9.72168C5.07812 9.36089 5.22145 9.01488 5.47657 8.75977C5.73169 8.50465 6.07771 8.36133 6.4385 8.36133C6.7993 8.36133 7.14531 8.50465 7.40043 8.75977C7.65555 9.01488 7.79888 9.36089 7.79888 9.72168V13.1226" stroke="#381207" strokeWidth="1.5" strokeLinecap="round" strokeLinejoin="round" />
</svg>