<svg width="50" height="50" viewBox="0 0 50 50" fill="none"
    xmlns="http://www.w3.org/2000/svg">
    <path d="M39.0625 32.0312C37.609 32.0333 36.1917 32.4849 35.0049 33.3241C33.8181 34.1633 32.92 35.349 32.4336 36.7188H14.0625C12.6121 36.7188 11.2211 36.1426 10.1955 35.117C9.16992 34.0914 8.59375 32.7004 8.59375 31.25C8.59375 29.7996 9.16992 28.4086 10.1955 27.383C11.2211 26.3574 12.6121 25.7812 14.0625 25.7812H32.8125C35.0917 25.7812 37.2776 24.8758 38.8892 23.2642C40.5008 21.6526 41.4062 19.4667 41.4062 17.1875C41.4062 14.9083 40.5008 12.7224 38.8892 11.1108C37.2776 9.49916 35.0917 8.59375 32.8125 8.59375H14.0625C13.4409 8.59375 12.8448 8.84068 12.4052 9.28022C11.9657 9.71976 11.7188 10.3159 11.7188 10.9375C11.7188 11.5591 11.9657 12.1552 12.4052 12.5948C12.8448 13.0343 13.4409 13.2812 14.0625 13.2812H32.8125C33.8485 13.2812 34.8421 13.6928 35.5746 14.4254C36.3072 15.1579 36.7188 16.1515 36.7188 17.1875C36.7188 18.2235 36.3072 19.2171 35.5746 19.9496C34.8421 20.6822 33.8485 21.0938 32.8125 21.0938H14.0625C11.3689 21.0938 8.78561 22.1638 6.88095 24.0684C4.97628 25.9731 3.90625 28.5564 3.90625 31.25C3.90625 33.9436 4.97628 36.5269 6.88095 38.4316C8.78561 40.3362 11.3689 41.4062 14.0625 41.4062H32.4336C32.8633 42.6216 33.6188 43.6954 34.6176 44.5104C35.6164 45.3253 36.8199 45.85 38.0968 46.0271C39.3736 46.2042 40.6746 46.0268 41.8574 45.5145C43.0403 45.0021 44.0596 44.1744 44.8038 43.1219C45.548 42.0694 45.9886 40.8325 46.0773 39.5465C46.166 38.2605 45.8995 36.9749 45.3069 35.8301C44.7143 34.6853 43.8184 33.7255 42.7171 33.0555C41.6158 32.3855 40.3516 32.0312 39.0625 32.0312ZM39.0625 41.4062C38.5989 41.4062 38.1458 41.2688 37.7604 41.0113C37.375 40.7537 37.0746 40.3877 36.8972 39.9594C36.7198 39.5311 36.6734 39.0599 36.7638 38.6053C36.8542 38.1506 37.0774 37.733 37.4052 37.4052C37.733 37.0774 38.1506 36.8542 38.6053 36.7638C39.0599 36.6733 39.5311 36.7198 39.9594 36.8972C40.3877 37.0746 40.7537 37.375 41.0113 37.7604C41.2688 38.1458 41.4062 38.5989 41.4062 39.0625C41.4062 39.6841 41.1593 40.2802 40.7198 40.7198C40.2802 41.1593 39.6841 41.4062 39.0625 41.4062Z" fill="#381207" />
</svg>
