<svg width="436" height="163" viewBox="0 0 436 163" fill="none" xmlns="http://www.w3.org/2000/svg">
<path d="M219.308 58.1301C218.755 58.3803 218.219 58.5074 217.722 58.9243C218.469 55.5012 218.115 52.4792 222.091 51.3832C221.423 50.5612 221.391 50.4341 221.697 49.4095C222.735 50.5254 223.597 49.8027 224.838 50.172L225.672 46.2406C224.73 46.6337 224.424 45.5576 224.273 45.5139C223.772 45.3669 220.524 46.7648 222.492 44.259L221.697 43.8619L223.283 43.8539C222.854 42.7301 222.909 42.3886 223.681 41.4872C221.506 39.8193 220.234 39.1641 218.529 41.7215L218.513 43.8539L219.511 43.6077L220.099 44.6482L217.905 45.0453C216.851 46.2604 218.7 48.9568 216.927 49.8067C217.185 47.1261 211.139 42.6269 210.952 41.2648C210.658 39.0886 212.82 37.5121 212.156 35.5384L214.132 36.7258C213.977 35.4987 215.468 35.6933 215.663 35.463C215.885 35.2009 215.563 34.4702 215.837 34.0453C215.965 33.8507 216.903 34.1327 216.489 33.1875L214.132 30.7771C213.174 31.4124 213.047 32.1352 211.759 31.5633C211.83 32.6077 212.009 33.0247 210.96 33.3543C210.654 34.2359 212.256 33.672 211.731 34.911C210.88 36.9244 209.429 34.7521 208.849 34.7958C207.863 34.6886 206.917 36.7337 206.754 36.7496C205.919 36.829 205.092 36.0229 205.398 35.1373C204.273 36.4399 203.824 35.2128 203.216 35.2406C202.413 35.2763 201.423 37.2857 201.682 38.2428C201.769 38.5644 202.985 40.1807 203.097 40.2243C203.526 40.3911 204.651 39.6049 205.398 40.2919V38.9179L206.189 38.7074L206.992 41.0821H205.402L205.768 42.4521L204.607 43.0756C207.994 47.3843 203.729 45.1763 202.218 46.9514C200.708 48.7265 202.536 49.346 203.025 50.998C204.321 49.9099 204.953 49.763 206.595 50.1998C205.216 49.0243 206.734 47.7973 205.41 46.8323L210.169 45.0453L209.378 44.6521C209.151 43.985 210.042 43.6197 210.046 43.2623C210.046 42.9922 208.984 42.2298 209.378 41.8803C209.568 41.7095 210.236 41.8446 210.582 42.1464C212.339 43.6752 215.539 47.8251 216.609 49.9218C217.169 51.0178 216.561 52.372 218.513 52.1893L217.71 52.8326L215.73 64.8691L214.148 61.8868C215.893 61.2355 214.645 59.4485 215.345 58.1341C214.271 58.2254 213.393 58.1659 213.345 56.9427L212.164 57.737C211.341 56.5099 212.856 55.9619 212.856 55.5687C212.856 55.4536 212.184 53.5117 212.101 53.4323C211.902 53.2377 210.296 53.4561 209.97 52.5825C209.441 53.9287 207.66 53.4521 207.784 55.3543L206.985 54.1669C206.424 55.0922 205.16 54.5918 205.068 54.6435C204.977 54.6951 203.88 56.2994 203.86 56.4066C203.784 56.8117 205.18 57.9673 203.804 59.1149C203.248 59.5796 199.602 60.8146 198.859 60.7391C198.235 60.6756 197.567 59.6669 196.267 60.5128C197.011 61.6088 196.279 62.2442 195.814 63.2449L194.276 63.4832C195.778 63.8565 194.681 64.4879 194.784 65.0994C194.812 65.2543 196.506 66.3781 196.267 67.6449C194.852 68.1929 193.826 66.4297 193.675 66.4417C193.162 66.4814 192.825 67.0453 192.419 67.1128C191.668 67.2359 190.412 67.0214 189.537 67.2319L188.321 63.6857L191.497 63.2926C190.475 63.1417 189.124 63.4991 188.182 63.2926C188.078 63.2687 187.124 61.0409 187.327 63.2886C185.049 62.7048 181.284 65.8817 180.378 62.8954L183.157 62.4904L182.851 61.7637L183.546 61.6962V60.9059H180.772L181.185 58.9283L185.14 59.9211C184.425 58.8529 183.55 58.9164 182.39 58.8767L182.338 57.7846C182.099 57.5424 179.142 57.8879 178.553 57.594C177.866 57.2525 178.295 56.2041 177.202 56.5456L176.609 57.733C174.817 56.2796 174.753 54.3575 173.23 52.777L174.423 52.3839L173.219 51.002L172.459 51.0337L172.193 51.82L169.653 51.3911C170.476 49.7709 172.813 49.8305 174.419 49.8067L172.833 48.8218L174.411 48.2023C173.684 47.0825 174.793 46.5384 174.813 45.4464L173.02 46.6298C171.887 47.142 173.278 44.1081 173.421 43.8897C173.564 43.6713 177.087 40.2164 175.015 40.2998C174.662 40.3157 171.096 45.359 169.263 43.0716L169.255 43.8579H168.464C169.112 41.789 165.681 42.3846 164.97 43.1312C164.863 43.2424 165.216 45.3034 162.907 44.259C162.454 46.1453 164.473 47.2135 163.69 49.0164H162.505L162.903 47.4359C160.808 47.0904 159.079 46.4511 156.944 47.0388L160.907 50.0092L157.341 51.3911C158.224 51.268 159.138 51.816 159.945 51.816C160.685 51.816 161.889 50.5254 162.108 51.6016C162.223 52.1655 161.949 52.642 161.531 53.0034L158.931 55.3583L160.915 54.568L160.522 56.1485C163.722 55.3464 163.98 58.416 164.099 60.9139H165.292C164.751 59.4168 165.622 58.3009 166.48 57.1294C167.351 56.5734 167.935 57.3359 168.468 57.9395C167.093 58.3326 167.387 61.029 167.947 61.99C168.257 62.5222 168.691 62.55 169.017 62.9391C169.267 63.2409 169.176 63.8882 169.518 64.1186C169.899 64.3767 170.627 64.2655 170.984 64.464C171.394 64.6904 171.171 65.838 172.042 65.8619C167.812 67.4464 164.254 69.7258 161.321 73.2005L163.901 61.307C162.887 62.4427 162.811 64.1662 162.052 65.4131C161.225 66.7752 159.711 67.9824 158.776 69.6781C158.379 70.4009 156.256 74.4117 156.169 74.6857C155.966 75.3211 156.423 76.2583 155.548 76.7705L148.969 70.9648L152.173 59.3294C151.144 59.0633 151.474 59.6947 151.14 60.072C148.989 62.4904 148.139 65.4965 146.616 68.2803C146.366 68.4352 144.545 68.1413 144.12 68.0261C143.237 67.7879 144.756 67.6648 142.434 67.6806C140.311 67.6926 141.377 64.0908 140.558 62.3951C139.48 60.1633 135.072 58.9879 135.712 56.1406L133.669 55.394C133.358 56.216 133.247 56.2756 132.305 56.1525L133.096 54.1749L130.719 54.568C130.309 52.8843 131.721 53.329 132.194 52.8724C132.643 52.4395 133.867 49.2467 133.498 48.6233L132.094 49.0085L132.309 50.2077C130.886 50.6128 130.333 48.0752 129.554 48.663L129.3 49.4294L126.215 49.3817L123.957 46.2485L122.776 47.0388L122.371 44.6641C121.433 44.9857 122.534 46.868 121.377 47.4319C120.343 47.9363 121.079 45.8514 120.59 45.8475L119.6 47.4359L119.195 45.0572C117.577 44.7276 119.091 46.2406 118.797 46.6417C117.338 46.1373 116.953 47.2453 116.217 45.4543L116.018 46.6456L114.039 45.8514C114.941 49.4095 117.418 49.0283 120.081 49.9377C120.499 50.0807 121.282 50.0211 121.186 50.6048L119.596 50.8074L120.797 51.2045L119.982 51.6612C120.312 53.1742 120.602 56.5099 119.004 53.7778L118.805 54.9731L117.811 54.1709L117.418 54.9691L113.244 51.8002C112.771 53.7976 114.265 54.0041 114.937 55.0525C115.609 56.1009 116.134 58.4081 116.237 58.5669C116.531 59.0038 117.41 58.6106 117.215 59.5279C117.123 59.9648 116.034 59.8218 115.82 59.3254C115.752 57.8879 115.323 57.7052 114.23 56.9586L114.826 58.9362C114.301 58.9204 113.701 59.0673 113.22 58.7575C112.786 58.4796 110.433 49.6955 110.445 48.8456C110.481 46.2048 112.584 41.5428 113.963 39.2435C115.684 36.3763 115.549 37.25 118.797 37.528L118.002 38.7114C119.556 38.5009 120.014 39.1323 120.952 39.7558C121.651 40.2243 122.311 39.442 121.981 41.4911L123.563 41.094C123.222 42.6666 124.192 42.0709 124.621 42.4005C124.943 42.6467 125.11 43.4489 125.352 43.4688C125.452 43.4767 126.406 42.3092 127.141 42.6864L126.748 44.6641C127.384 44.8388 127.038 44.0803 127.209 44.0009C128.135 43.5799 131.013 45.4543 131.327 46.2644C131.601 46.9673 130.755 47.6861 132.098 48.6312L133.891 47.4399C133.911 49.0323 134.305 49.5168 135.835 49.7789L136.475 48.6352L137.664 49.4373C138.228 47.8807 140.808 48.8536 139.854 46.6734C141.166 47.1261 142.029 44.5926 141.79 44.3027C141.647 44.128 140.884 44.5648 141.047 43.8778C141.504 44.1319 142.716 42.1583 142.804 41.9002C142.967 41.4117 142.573 40.9789 142.621 40.5659C142.657 40.2521 143.249 40.3276 143.325 40.1052C143.798 38.7074 142.796 38.7868 142.335 37.9846C142.009 37.4168 141.222 36.289 141.158 36.1579C141.015 35.8641 141.599 34.5377 141.42 34.3789C141.317 34.2875 140.78 34.4543 140.594 34.3153C139.934 33.807 140.009 33.2392 138.658 33.5648L140.244 32.7785L138.26 32.7706L139.457 32.3735L139.123 31.6309L139.846 31.1901L138.276 31.1662L137.835 28.8114L134.686 29.2005L134.488 27.2229L133.458 27.8662C133.438 28.1839 134.277 30.0225 133.291 29.9868C132.472 29.955 133.378 27.1911 131.502 28.0171L131.51 29.0139C129.801 28.6049 128.775 30.8247 127.312 29.6096C126.899 25.8013 126.012 29.7088 124.74 30.2052L121.572 30.1933L127.952 24.6655C129.053 24.3796 133.196 20.5832 133.883 21.2702V22.4615C137.346 21.0875 135.958 26.1269 138.252 27.2189C137.763 26.0991 138.495 23.6092 139.453 23.0334C140.184 22.5926 140.745 23.2875 141.206 23.2637C141.448 23.2518 141.408 22.6522 141.54 22.5608C141.858 22.3384 142.629 23.0572 143.022 22.263L141.039 22.0644C141.623 17.3428 144.31 19.3164 147.395 20.476L146.207 18.4984H147.598L145.606 16.9139C145.276 18.1608 144.39 17.6644 143.257 17.7121L143.018 16.7153L148.186 15.7186L145.805 14.5392L148.186 14.1341L147.002 13.1493L148.186 11.3662C145.809 11.4854 146.493 14.841 144.215 14.5312C144.338 14.011 144.927 13.8125 145.189 13.3121C145.626 12.4782 145.833 11.0327 146.028 10.5601C146.465 9.50776 149.904 7.963 147.988 6.20776C146.878 8.57058 145.32 8.86841 143.146 9.5991C142.692 9.75 142.088 8.98357 142.223 10.163L141.436 10.1709C141.333 7.97094 140.081 8.30849 138.284 8.61823L137.656 10.568L137.457 9.78177C136.165 9.47996 137.107 11.0486 135.871 10.1709C134.988 12.7005 138.542 13.2406 136.066 15.3254L135.887 13.5345C133.8 12.6489 131.927 13.5504 129.908 12.9507L134.277 16.3182L131.498 16.9139L132.293 17.5056L131.498 18.0973L134.873 17.7041L135.012 18.6334L127.328 24.459C126.362 24.6258 126.163 22.6204 126.505 22.0485L129.51 21.0756L127.141 19.0901L129.117 17.5056L127.535 17.3031C127.404 16.7273 127.932 16.0482 127.837 15.5677C127.471 13.7171 125.873 15.6074 125.543 15.3175L125.945 14.1341L124.124 13.3597L123.361 14.1301L122.741 12.5536L122.041 12.8554C121.584 11.537 118.94 11.533 119.982 9.76986C118.71 10.3735 117.469 9.67852 116.412 8.97563C116.344 11.1836 120.713 12.2002 121.015 13.6973C121.445 15.8099 118.96 14.3644 118.793 14.5273C118.539 15.3969 121.051 16.628 119.381 17.2991C118.443 17.6763 119.024 16.1475 118.404 15.5081C116.845 13.8958 114.909 16.9457 113.232 14.9244C114.071 16.4056 112.592 15.8893 112.83 17.3031C112.186 17.4976 111.92 16.8027 111.435 16.7074C109.896 16.4016 109.364 16.8464 107.682 15.5002C107.233 15.1388 106.255 13.2287 105.683 13.733C104.669 14.6345 106.847 16.1991 107.368 17.0013C107.941 17.8828 108.418 18.9153 108.863 19.8724C108.135 20.6904 106.255 18.28 106.08 18.4904L107.269 20.8652L105.683 21.2623C106.434 21.5244 108.37 21.2027 108.064 22.4536L105.683 23.2478C107.483 23.3312 109.773 23.0096 111.24 24.2485L108.863 25.2374L108.664 24.046L107.273 25.4359L108.064 26.2222L106.879 28.0132C109.356 26.5796 112.93 24.7449 112.838 29.2005L111.244 29.9948C112.274 29.9233 112.723 29.7525 113.033 30.789L114.186 30.0067L115.227 31.9803L116.01 31.5753C115.927 32.0716 116.305 32.6355 116.293 33.0485C116.261 34.1207 112.409 39.0092 111.634 40.8836C110.755 43.0081 110.151 45.5298 110.052 47.833L109.264 47.0428L111.244 56.9547C108.084 54.6355 105.07 51.3474 100.916 51.0059L101.799 49.1395C104.192 48.8814 103.357 48.111 104.128 46.876C104.411 46.4233 105.074 46.3438 105.186 46.181C105.551 45.6409 104.104 41.4197 104.884 40.3038L103.695 40.6969L104.888 38.5088L104.061 38.0998L104.482 36.7337C102.165 38.4254 102.328 41.4554 100.904 43.6792C103.25 44.3384 100.074 45.4027 99.7198 45.0532C99.6562 44.9897 99.8549 44.3345 99.6085 43.9929C99.3978 43.703 98.7776 43.7269 98.6703 43.294C98.388 42.1424 98.8571 39.9424 98.9168 38.7114L96.3328 42.2774L95.5418 41.4713L93.7648 41.6857C94.5598 40.4626 95.5775 40.276 96.9331 40.1012L96.3606 39.168L94.9494 39.5056C94.0789 37.381 95.7961 34.9745 93.562 33.5132C92.8862 33.0724 91.8209 33.6244 91.1729 32.4171L90.187 33.1558L89.9843 32.3576L89.0024 32.3735C88.9905 33.0922 88.8275 34.1168 87.8019 33.95L87.3924 32.3695L85.2179 33.1677L84.6216 32.3695C84.5342 33.2789 84.8085 34.4027 84.5422 35.2684C84.2559 36.2056 82.9918 36.2334 83.0037 36.5511C83.0316 37.52 84.3831 37.8973 83.0276 39.1045L84.6137 39.7041C83.6795 40.0178 84.0651 40.1926 83.8703 41.0424C84.9277 41.0583 86.0528 41.9756 85.8023 43.0716L84.8125 42.2814C84.3434 43.8778 87.1817 43.8579 87.9688 45.4742C88.3306 46.2168 88.3346 47.3922 88.585 48.2222C88.0205 48.4644 87.4044 47.829 87.1977 47.829H79.8473L87.6071 49.0085C87.4043 50.3944 89.9406 51.9987 88.0802 52.0861C87.5157 52.1139 87.1698 51.2124 86.8279 52.5586L85.4127 52.1933L86.1999 54.1749L84.411 53.055C83.2025 54.6951 81.0161 54.5164 82.8884 52.646C83.6596 51.8756 85.0947 51.3196 85.0113 49.8106C83.7233 49.4691 83.6636 51.7446 83.1746 51.8279C81.6362 51.2998 81.2109 51.6294 79.8513 52.1853L80.062 51.3951L79.0682 51.0059C79.1318 52.0622 77.8319 52.102 77.0766 52.5825C76.9374 51.3792 77.3707 50.4023 78.2572 49.6081L76.2855 48.4207C77.9869 47.2691 75.5938 46.5543 76.6791 45.0532L74.5284 44.6243L74.111 45.4424L71.1216 44.4576C72.1075 42.5951 73.9282 41.1734 76.0947 41.0662C77.2913 41.0067 78.3884 41.7056 79.4538 41.2846C76.0708 38.1077 72.1353 38.0482 68.7722 41.3243C67.2934 42.7659 66.7369 44.8983 65.1587 46.2366C65.433 40.403 67.8579 35.6536 71.1137 30.9677L68.9273 31.9605C68.2713 31.2298 69.8654 30.4276 70.3186 29.7803L69.134 29.9789L70.7161 27.7948L69.5315 27.9933L70.7201 26.2063L69.9251 25.8171C72.2745 23.7641 70.6764 20.7063 73.1053 19.0662L71.1216 19.6619L72.7237 16.6915L71.8929 16.2904L72.7078 14.5153L71.5192 14.9085L71.5112 13.324L69.9211 16.493L69.134 15.7067L68.9313 17.2951L68.3389 16.5009L68.331 19.6698L67.5439 18.8796L67.5359 20.8572L66.7488 16.1038C66.0373 19.0861 66.7488 22.6244 66.3791 25.4478C66.2837 26.1825 65.6397 25.968 65.5602 26.2897C65.4648 26.6908 65.7431 32.298 64.956 31.9644L63.1711 29.5857L64.3557 35.5305L61.9785 34.3431C62.6265 36.6424 65.592 38.4294 62.7736 40.4944V41.0702C64.3517 41.1893 64.0377 42.8215 63.9781 44.0763C63.7873 48.0673 62.7338 52.6738 62.376 56.7521C62.0819 60.0879 61.9944 63.511 61.9705 66.8586C60.5156 65.6435 59.9352 63.7731 58.7863 62.3077C58.4524 61.8788 55.9202 59.0196 55.7254 58.9005C54.8389 58.3485 54.0598 59.0474 53.4953 58.8806C53.0421 58.7456 51.3765 56.1525 50.2594 56.1525C49.3411 56.8077 49.6949 57.9752 49.6552 58.9283H48.069C48.4427 56.5417 47.2223 55.1677 46.0734 53.3767C45.6401 53.1384 44.853 55.5409 44.0977 54.9572C42.6388 53.8254 45.2346 51.8041 45.6242 50.7279C44.5867 47.9561 43.6286 50.6962 42.1101 50.6009C42.2492 51.4269 43.6366 51.1012 43.5332 52.2092C43.3027 54.6911 42.3566 53.5554 41.1163 54.5521C39.721 53.2218 41.4263 51.1092 40.3133 49.4135C39.5182 48.3016 37.6538 49.5882 38.5403 51.0734C38.8623 51.6095 39.5818 51.4904 39.7448 52.3799C40.1105 54.3933 37.7174 55.5648 39.3592 56.7323C40.194 57.3279 41.327 56.4146 39.9237 58.9243C39.2638 57.8283 37.785 55.6998 37.5028 54.568C37.0456 52.7135 38.6993 51.3276 35.531 51.0337C35.042 50.1124 36.0915 48.8258 34.9665 48.0157C32.808 46.7251 31.6154 50.8193 34.9506 50.6207C34.3066 53.4601 37.9321 55.259 38.5323 58.1301L36.1512 58.5272C36.3102 57.4034 37.1211 56.2319 35.9405 55.3543C34.6008 55.4218 33.4479 57.2287 32.5416 57.5265C31.5358 57.8561 30.2598 57.042 29.9895 58.4835L30.4625 59.7583C32.1202 59.8178 33.0385 59.2142 34.5611 60.7153L32.9749 62.6929C34.7678 63.3442 34.4378 64.4362 34.5372 66.0247L32.9908 66.6799L34.0641 69.0388C34.0284 70.4167 27.6799 71.3579 31.1821 73.6294C33.122 74.8882 32.6966 71.7788 32.7722 71.4056C32.9829 70.381 35.857 67.5853 36.1512 69.8171L33.766 70.8178L34.9665 74.1694L31.9811 90.6416C31.349 91.9481 28.0655 91.1499 27.012 92.4247L31.4007 93.6756L28.9996 110.855L23.47 81.2817L25.8155 68.0341C24.5672 68.6655 24.0067 70.107 23.156 71.0998C22.9095 71.3857 23.1679 71.8503 22.2457 71.6001C22.1741 68.733 21.5619 65.1788 20.3653 62.5539C20.1069 61.9861 20.5959 61.4778 19.463 61.6922L22.6352 75.1702L22.2377 73.9828C19.9638 76.5204 19.7333 80.7496 18.9501 83.9821C18.8547 84.3792 18.8309 85.1774 18.2744 85.0821C18.1988 80.1698 18.2346 75.1146 17.8689 70.2182C17.6383 67.0969 15.7342 56.9308 16.2867 54.8142C16.3702 54.4886 17.1016 54.5958 17.0937 54.3536C17.0778 53.6983 16.1913 53.3568 16.2708 52.4038C16.3265 51.6969 18.016 49.9099 17.8768 49.7987L15.8931 50.1879L16.2828 47.0189L15.0981 47.416L14.2991 37.5081L12.7129 38.6994L11.8543 35.9832L11.1268 36.3207L10.7213 33.9381L9.92629 35.1334L9.13915 34.7283L9.52877 36.3168L8.34012 36.1182L10.3238 38.6955L8.73764 38.4969L11.5164 44.4496L10.7253 44.8428C11.8344 45.5099 11.5721 46.2009 11.906 47.2294L10.3278 47.2215C13.8459 51.1092 14.8994 54.8103 15.4877 59.9131C17.4435 76.85 16.9188 96.7572 15.44 113.785C15.3963 114.302 15.2213 116.22 14.7006 116.41L9.53668 72.7994C10.0137 80.6543 9.75137 88.5171 9.91436 96.4077C10.1529 108.119 10.9241 120.024 11.1387 131.699C11.1507 132.299 10.9598 134.336 10.3317 134.654L1.19258 67.6489C1.19656 73.2759 2.10691 78.8792 2.3971 84.4824C3.23986 100.669 3.36709 117.097 3.16037 133.252C3.02919 143.505 3.59762 154.279 0 163.996H650.824C650.275 152.758 651.551 140.844 650.84 129.682C650.398 122.784 649.516 117.411 649.627 110.263C649.854 95.9272 651.595 81.7583 654 67.6409C650.887 71.1157 649.762 76.9214 648.955 81.4366C647.576 89.1406 647.051 97.4998 646.852 105.307C645.803 106.685 646.093 102.305 646.057 101.943C645.521 96.6777 643.919 89.9705 644.054 84.8716C644.225 78.5337 646.868 71.2983 647.246 64.8651C643.362 70.2897 642.364 78.0492 641.355 84.5579C639.995 93.3658 639.888 101.991 638.918 110.676C638.85 111.268 638.834 111.899 638.111 112.05L632.649 80.424L636.115 62.2839C635.65 61.6525 635.018 62.5539 634.752 62.9074C630.9 68.0102 628.519 84.5261 627.445 91.3008C626.249 98.842 625.346 106.435 624.595 114.032L623.808 107.884L623.005 87.6712L622.218 83.5055C622.365 92.0554 621.24 100.53 620.576 109.032L619.837 112.447C619.534 110.072 619.089 107.09 619.022 104.735C618.541 88.2074 622.723 73.3435 625.283 57.4193C625.33 57.1254 625.716 55.7713 624.996 56.3391C617.213 71.6954 616.044 90.1452 613.826 107.05L613.083 110.068C612.49 106.486 612.013 102.869 611.365 99.2907C610.435 94.16 607.644 84.6731 607.561 80.0944C607.525 78.2478 610.336 67.8196 609.898 67.2478C608.845 66.9857 606.984 71.203 606.329 70.4167C606.933 67.8395 604.866 64.4521 604.762 62.264C604.711 61.1482 605.641 55.9301 606.162 54.989C607.362 52.8168 611.067 51.4586 613.277 50.589L613.476 51.3832L615.464 50.99V52.5745L614.275 52.1814C615.818 53.6229 614.295 53.8135 614.259 54.7547C614.255 54.8659 615.631 55.1557 615.074 56.5377L616.708 56.776L616.656 60.1117L617.789 60.1792L617.857 61.307C618.616 60.5009 619.733 61.7756 619.829 61.7041C619.936 61.6247 620.027 60.203 621.403 60.4651C620.985 59.7027 621.673 59.0355 621.598 58.5471C621.339 56.8991 620.262 57.0937 619.992 56.8196C619.125 55.942 618.914 53.8413 619.049 52.5825H617.67L617.463 51.7962C618.549 51.3236 619.053 49.5366 620.83 49.5565C621.868 49.5684 622.369 51.3236 623.426 51.5817C624.484 51.8399 626.141 51.5778 625.863 50.2832L626.992 50.2038C625.947 48.9926 625.537 48.6749 626.193 47.0388C624.909 48.0117 623.752 46.6456 623.609 46.6456C623.466 46.6456 622.893 48.1944 621.912 47.9204C622.587 49.203 619.292 49.3778 619.042 49.2229C618.056 48.6153 619.24 47.9958 619.439 47.4319C618.998 47.4002 618.485 47.5193 618.068 47.416C616.871 47.1103 616.378 45.772 617.062 45.0493C617.094 45.0135 617.622 45.3987 617.96 45.3034C618.68 45.0969 619.288 44.4178 620.238 44.6521C619.602 43.5521 619.932 43.1828 620.632 42.2854L617.722 40.3713C614.593 41.6301 615.965 44.394 615.861 47.0348L613.882 46.6377L614.506 49.4373C611.385 50.2633 608.694 51.5619 606.333 53.7738L607.529 47.428L609.27 47.4716L609.572 46.316L610.697 46.2366L609.902 44.6561C612.192 45.5258 612.423 45.2796 614.243 43.8261C613.886 42.4204 612.983 42.4283 614.271 41.09C613.142 41.7413 612.661 41.0067 612.276 39.9027L611.091 40.8915C609.998 41.3641 610.729 39.2713 610.292 38.7114L611.886 38.7034C611.21 37.9648 611.981 36.8648 611.795 36.428C611.759 36.3446 610.658 35.0976 610.542 35.054C609.06 34.4901 607.72 35.0738 607.279 36.5987C606.837 38.1236 607.517 38.0839 607.847 38.5485C609.604 41.0186 606.547 38.1038 606.074 41.3482C605.939 42.2695 606.766 44.4893 605.534 45.0493C604.202 40.8121 600.847 37.7106 597.587 34.9348C597.34 34.0612 598.525 34.2518 598.974 34.3312C599.475 34.4225 598.772 35.6774 599.563 35.5305L600.966 30.3799L602.151 31.5673C603.466 30.0186 604.552 30.9955 604.603 28.5056C604.627 27.3182 603.621 26.2381 602.465 26.0951C601.92 26.0276 601.248 27.1633 600.366 26.4088C600.704 28.454 598.732 27.6796 600.366 29.7684C599.177 31.0948 597.953 31.063 597.579 29.1926L594.959 31.5872C593.882 31.6269 593.62 30.5309 593.528 30.4951C593.361 30.4276 592.224 30.6738 591.62 30.1536C588.726 33.0366 590.32 35.2207 594.001 35.1334L593.791 33.942L594.792 33.5489C594.673 34.633 595.142 34.8951 595.985 35.3319C595.222 36.4081 594.765 36.3049 593.604 35.9316C594.733 37.798 591.867 38.215 594.395 39.315C594.045 42.059 591.509 39.994 590.324 42.3807C589.35 44.3424 591.751 44.4615 591.223 46.2406C592.363 45.1763 593.159 44.807 594.792 45.0493L594.753 42.4482C594.765 42.1901 593.548 42.4879 594.001 41.4872C594.53 41.1814 596.609 41.4872 596.72 41.4077C597.07 41.1615 597.229 39.5294 598.768 39.8947L597.973 39.2713L598.565 36.7298C601.697 39.9067 604.925 43.3258 605.927 47.8251L606.722 47.2373L604.329 59.3254C603.287 59.516 603.713 59.1586 603.498 58.7575C602.318 56.5337 603.975 55.398 603.935 52.9875C603.037 53.3608 601.896 52.1893 601.427 52.2648C600.874 52.3561 599.897 53.472 598.764 52.9796C598.871 52.1456 599.885 52.4395 600.25 52.0622C600.382 51.9272 600.334 51.4666 600.517 51.1648C600.632 50.9742 601.181 50.99 601.169 50.7875C601.133 50.0846 599.92 49.4969 600.747 48.2261C599.487 49.0045 599.125 47.6345 598.565 47.563C597.4 47.4121 596.442 49.1157 596.374 50.2077C596.076 49.5326 593.357 49.3182 593.25 49.4453C593.007 49.7272 593.314 51.1251 592.01 51.0139C593.107 52.1695 592.773 52.789 592.411 54.1749C593.683 53.472 594.518 53.6825 595.579 54.572C595.79 52.6341 597.821 53.4482 599.165 53.7817L598.791 55.1955C600.763 55.39 598.247 57.2326 597.766 57.2128C597.44 57.2009 597.098 56.5655 596.975 56.5655C596.796 56.5655 595.762 58.9601 593.997 57.7449C595.265 58.8926 594.383 59.4009 594.403 60.2785C594.407 60.4969 594.916 60.5088 595.023 60.6875C595.452 61.4063 595.122 62.0139 596.653 61.9781C599.424 61.9186 598.485 58.7496 599.372 57.7251C602.321 56.5258 603.383 58.8965 603.55 61.4897C603.828 65.8063 602.258 72.3626 601.948 76.9731C601.28 86.8889 600.604 96.8008 599.96 106.713C599.678 111.081 599.797 115.612 599.555 119.988L593.604 71.2229L594.788 134.264L588.408 86.4918L590.419 71.62L587.637 77.1716C587.51 77.2709 587.112 76.9413 587.041 76.7824C586.118 74.8088 586.202 69.277 585.653 66.8666C584.95 66.9817 585.212 68.9276 585.244 69.4597C585.391 71.8265 585.955 74.6341 586.051 76.981C586.325 83.7597 584.727 90.1016 584.071 96.8048C583.602 101.59 583.582 106.474 583.272 111.272L580.481 89.2875L584.063 68.451C581.427 71.0839 580.239 76.2027 579.416 79.868C577.142 90.0142 576.454 101.113 575.719 111.466L574.932 116.029L569.339 84.1171C569.645 78.1842 571.883 72.029 572.515 66.2352C572.598 65.4568 572.447 65.6593 571.756 65.6792C564.465 81.4207 563.734 99.807 561.225 116.831L560.625 117.22L559.035 88.6759C558.22 91.5471 558.812 94.6286 558.629 97.5911C558.295 102.944 557.798 109.711 556.944 114.945C556.884 115.302 556.773 116.136 556.252 116.029C554.932 102.754 556.574 89.3987 558.757 76.3059L562.012 59.7265C558.554 64.4879 556.98 71.0402 555.648 76.7705C552.953 88.3662 551.903 100.113 550.297 111.875C550.218 112.471 550.241 113.094 549.498 113.253C549.311 110.974 548.965 108.694 548.576 106.439C547.479 100.109 544.398 89.5178 544.298 83.7081C544.235 79.9315 546.294 74.6976 546.711 70.8258C545.952 70.0474 543.849 74.2926 543.142 74.3918C542.899 72.9583 542.863 71.4294 542.561 70.0117C542.215 68.3835 540.86 65.3655 540.756 64.2456C540.645 63.0265 542.704 50.4222 543.225 49.3023C544.597 46.3438 549.919 43.5442 552.845 42.2496C553.179 43.437 554.376 43.3377 554.845 43.8579C554.912 43.9334 554.57 44.942 555.847 45.2558L553.867 46.2366L556.057 47.416L558.029 46.2446L559.035 49.0164C560.533 48.4128 559.178 46.328 560.426 45.4503C561.746 45.1763 561.571 48.8059 561.416 49.4095C562.891 49.5843 562.696 47.4002 562.211 46.6377L563.801 47.0269C563.288 46.3756 564.032 45.4186 564.596 45.8435C564.7 45.9229 563.785 46.8005 564.994 46.8283L563.805 48.2142C564.429 48.1269 566.027 47.4319 566.19 48.4247C566.25 48.7821 565.654 49.2229 565.61 49.6121C565.455 50.8868 564.624 53.6388 566.186 53.3687L567.578 50.1998L568.567 52.9716L567.578 52.2052L566.19 54.5561L568.929 53.7857L571.553 58.9124C572.829 57.8402 570.058 56.5139 572.153 55.9539L571.358 54.163L572.543 54.564L574.534 51.5817L573.743 50.994L574.932 50.7955C574.415 49.2983 573.115 49.5565 571.831 49.1117C571.187 48.8893 570.774 49.3182 570.965 48.2182L574.566 48.4326C574.976 45.8991 579.539 44.1518 578.923 41.3363C578.844 40.9669 577.711 41.2727 578.116 40.2958L579.507 39.4976L579.885 41.098C580.636 42.2377 581.877 40.8478 582.298 40.8438C583.391 40.8319 582.258 41.5706 584.48 40.4745C585.701 39.8749 585.578 40.959 585.609 38.8781L587.243 38.2864C586.619 37.254 587.454 36.5511 588.05 35.7211L587.255 34.9428L588.046 33.946C586.961 34.3511 585.641 33.7713 584.691 33.9301C583.852 34.0691 583.634 34.7879 583.296 34.911C582.652 35.1453 581.384 34.216 580.692 35.5265L580.493 34.3352L578.291 35.1056C578.434 36.1381 578.561 36.9204 577.711 37.7186L578.478 37.929L578.506 38.4969L576.912 39.6922C578.211 40.0456 577.496 41.2211 578.112 42.2655L575.512 40.6969L573.934 41.8763L573.735 41.0821L572.006 41.8525L570.957 39.4937L569.772 40.0854C569.808 41.1695 573.378 42.9962 572.547 43.8539C572.082 44.3384 568.997 42.1662 568.098 42.2417C567.415 41.92 568.218 40.959 566.194 42.2695L567.772 38.4929L572.547 38.3023C572.531 37.6312 572.817 37.4565 572.046 37.5994C570.01 37.9727 568.237 37.9767 566.19 37.9052L566.977 36.9045C567.271 36.154 566.17 36.3605 566.186 36.1341C566.254 35.0579 569.172 33.8348 569.895 33.1677C570.778 32.3536 571.318 30.515 570.547 29.4189L571.748 28.5929C570.392 27.7868 571.803 27.2626 571.716 26.663C571.66 26.2857 570.69 25.7059 570.452 25.1143C570.189 24.4511 570.742 23.8117 570.368 23.2319C569.995 22.6522 569.434 23.3511 569.08 23.1446C568.965 23.0771 568.985 22.537 568.707 22.4496C567.224 21.981 567.303 23.2836 566.389 24.0301L566.19 22.0485C565.451 22.5211 564.246 22.394 563.61 22.541C563.328 22.6045 563.471 23.1605 563.233 23.1724C562.927 23.1883 562.541 22.7792 561.817 22.9897C559.607 23.6291 559.727 26.0991 560.661 27.7789L559.87 28.168L560.231 29.1767L558.244 29.7724L561.821 31.9525C560.72 31.9525 559.965 32.3496 559.639 31.1662L558.649 32.7467L555.866 28.3904C556.01 29.8597 556.968 32.167 556.045 33.5489C555.831 33.8745 555.191 33.8825 555.107 33.9897C554.901 34.2558 556.451 35.7966 555.266 36.3168L553.084 34.1366L553.907 33.7236L551.498 27.767L550.301 27.9933C550.241 28.8828 551.263 29.6413 551.116 30.5269C551.076 30.7572 550.488 30.7572 550.44 30.8684C550.166 31.4998 549.017 35.1135 550.269 35.3041L549.904 36.7218L550.691 36.3207C550.329 39.2753 553.851 38.1951 553.875 40.681C549.816 41.646 546.552 44.3146 543.547 47.0308L545.924 36.3287L544.74 37.516C544.883 34.7919 543.885 31.881 542.677 29.4587C541.846 27.7948 539.453 25.2572 538.995 24.0182C537.922 21.1193 540.999 19.5428 543.539 20.067C544 18.8041 542.036 19.2727 541.925 18.6374C542.009 17.0291 543.165 15.8893 544.831 16.1673C545.638 16.3023 547.554 17.9861 547.912 17.6803L547.093 15.9052L547.908 15.5041L546.513 14.1182L546.322 14.9045L543.539 14.3208C544.585 13.1413 547.161 13.046 548.699 12.9229L546.715 12.1287L549.097 11.3384L547.912 10.3536L548.695 8.56661C546.262 9.00343 547.53 12.2359 545.125 11.541C546.381 10.6435 546.211 9.16625 546.958 7.81607C547.574 6.70813 549.685 4.94098 549.49 4.01174C549.164 2.44712 547.689 4.97275 547.463 5.15939C546.608 5.86228 546.167 5.71932 545.511 6.05686C545.256 6.18791 545.241 6.78755 544.919 6.91462C543.909 7.29982 541.067 6.74387 541.54 4.99657C540.013 6.32293 538.586 4.80199 537.477 5.06011C537 5.1713 535.306 6.72004 535.191 6.58105L535.978 4.59946C534.881 4.42076 535.104 6.28322 533.971 4.71462C532.488 2.66553 538.332 1.30741 538.359 -0.952158C537.159 -1.24602 536.602 -0.193675 536.495 -0.165877C535.99 -0.0427726 535.139 -0.332664 534.845 -0.102339C534.758 -0.0348303 534.444 1.50199 534.01 1.97455C533.768 2.24062 533.426 1.8991 533.199 2.06589C532.782 2.37167 532.973 3.31679 532.214 2.71318L532.007 3.80524L531.017 2.61788C530.023 3.57491 528.97 4.21824 529.224 5.78683L527.845 4.59946L526.942 5.5843L527.642 6.97022L526.06 7.56986L527.63 9.13448L525.257 11.3345L528.262 11.7078C528.636 12.2677 528.302 13.2208 528.429 13.8561C528.513 14.281 529.61 13.8402 529.228 14.9045L527.245 14.706C528.342 15.4366 529.316 16.8186 530.143 17.5612C530.969 18.3038 533.172 18.7446 533.199 20.4561C531.407 19.9915 529.26 20.3886 528.823 18.0814C527.59 17.7002 528.25 19.0702 527.67 19.4991C527.038 19.9637 522.876 18.9868 522.673 17.6922L521.878 18.4706C521.103 16.4572 519.29 17.5413 519.278 19.2648L517.509 18.4865L516.909 20.067L515.724 19.6659L517.31 20.8612L515.327 21.85C518.435 22.6363 515.207 23.8395 513.737 23.8236L513.351 24.2287L514.039 25.9323L511.467 28.9821C512.775 31.5197 512.333 35.7171 515.251 36.8966L514.937 38.3063C515.871 37.7662 516.36 38.8702 517.203 39.0251C518.046 39.1799 519.318 38.8186 520.491 39.4937L520.904 37.516H522.478C522.621 39.1323 521.238 38.3976 521.767 40.3991C521.806 40.554 522.542 42.4839 522.609 42.5832C522.979 43.1233 525.32 43.5521 523.281 44.6521L522.888 44.1399L522.856 44.6204L521.691 44.255C521.942 45.4424 522.78 45.6807 522.085 47.0269L524.863 47.8211L525.062 46.2366L526.052 48.2142L526.255 46.2366L528.835 47.428L527.248 48.0157L529.232 50.0012L526.907 50.1442L526.398 48.6709C524.597 48.7622 524.998 50.3467 522.375 49.7789C522.303 49.763 521.262 48.8576 521.27 48.7861C521.301 48.3334 521.862 47.976 521.902 47.6265C522.049 46.4312 521.385 45.0215 519.934 45.4662C519.02 45.7482 519.683 46.9117 519.338 47.5272C518.558 48.9092 515.036 50.8233 514.229 52.4713C513.422 54.1193 514.027 56.0413 514.142 57.729L515.724 56.9348L516.32 58.1222L518.904 55.3503L517.716 59.3135L519.135 58.9442L519.362 59.6233L520.252 59.3254C521.965 61.7438 522.037 58.7178 523.476 57.729C524.724 56.8713 525.599 57.4431 525.654 57.3438C526.052 56.637 525.499 54.3695 527.622 54.1113L527.256 52.5825L528.282 53.3489L529.025 52.9637L530.035 49.0124C531.212 49.6716 533.025 48.9846 533.764 49.1038C535.593 49.4056 538.999 58.1261 539.142 59.9687C539.508 64.6745 536.948 74.7254 536.396 80.138C535.891 85.0702 535.461 90.6575 535.207 95.6055C534.976 100.025 535.616 104.517 534.802 108.881L530.83 75.1781L530.15 75.8294L531.625 139.808L522.884 75.7777C525.277 74.3005 526.768 80.2532 527.857 80.3247C528.783 80.3842 528.107 78.5059 528.155 78.4146C528.191 78.3471 529.081 78.3709 528.894 77.7752C528.68 76.2503 527.757 74.9319 526.469 74.1853L527.268 73.7922L526.469 73.3991L527.26 72.4102L524.08 71.6041L524.414 70.8655L523.687 70.4247L525.273 70.2261L523.695 69.0348L524.875 68.046L523.734 67.9785L523.683 66.8507L522.077 67.089L521.695 65.6593L520.737 66.0723L520.316 65.2622L518.92 66.263C518.547 67.0413 520.769 66.7315 519.115 68.0341C518.817 68.0222 517.398 64.0074 517.326 67.2518C515.092 66.39 512.91 70.2261 512.361 66.0644C511.701 66.7316 511.415 67.7601 510.457 68.1572C509.105 68.7171 505.293 67.4464 505.742 70.3532L503.81 70.651L492.294 52.781L493.872 51.9908L491.101 50.7955L495.069 47.833C492.839 47.4557 490.895 47.5947 488.716 48.2301C490.74 50.3189 487.977 50.6326 487.985 48.4247C487.989 46.5225 489.511 47.2016 489.519 46.8323L489.11 45.0493L488.513 45.363L488.315 43.8619L487.726 45.4424C486.911 45.0373 487.305 43.7785 487.118 43.4568C487.043 43.3298 485.067 43.6832 484.379 42.6944L482.765 44.6482L482.698 43.9691C481.425 44.3225 479.533 43.7666 478.527 42.9326C478.297 42.7381 477.16 40.4467 476.6 41.4792C475.896 42.7738 478.567 44.1955 478.977 45.0731C479.251 45.6568 478.424 46.5781 479.979 46.6456L479.37 47.4319L477.2 46.2406L478.388 48.2182L476.802 48.6153L479.184 49.0204L477.593 49.8146C478.603 51.55 481.97 49.9337 482.36 52.1853L479.8 52.6063L479.525 51.8677C478.981 51.4706 477.832 52.8485 477.593 53.3767L479.18 53.1821C477.983 54.3377 476.822 55.0525 477.192 56.9547L476.385 56.7561L475.407 58.5312L474.803 57.3518L474.214 57.3399C474.008 59.0633 469.985 57.8124 469.651 58.7377C469.134 60.1554 470.482 59.4485 470.863 59.9648C472.282 61.8788 468.78 62.0734 468.856 62.2998L469.651 64.0868L470.275 63.2648L471.63 63.6976C471.297 66.1319 468.247 64.2575 466.669 64.0868C465.091 63.916 462.893 63.8763 461.303 64.0947L468.848 65.2861L466.872 66.668C469.448 68.9554 466.482 67.9269 464.797 68.4908C464.698 68.5265 463.084 69.281 462.988 69.3366C462.603 69.559 462.189 71.751 461.303 69.4478L462.491 68.0579L460.655 67.2994L459.919 68.0579L458.325 66.8666C457.697 67.9388 457.125 68.5781 455.741 68.4471C456.302 67.4265 456.111 66.259 457.327 65.8778L455.352 64.6864C456.56 63.8684 455.602 63.4871 455.435 62.6095C455.212 61.4341 456.31 61.1918 453.937 60.5604L453.161 61.7081C452.485 60.3976 451.194 61.3269 450.558 61.0965C450.271 60.9893 449.993 60.3261 449.496 60.1832C448.534 59.9052 447.469 60.7074 446.455 60.1355L444.622 62.1092C445.111 59.4048 442.146 59.9052 440.246 60.1316C440.969 61.2474 439.463 62.9193 440.707 64.0312C441.148 64.4243 442.555 63.4673 442.229 64.885C441.025 65.0994 440.353 64.5792 439.649 63.7056C439.033 64.8095 438.846 65.1153 437.463 64.8889C437.26 65.0359 438.19 68.8879 438.147 69.3922C438.127 69.6185 437.511 71.5723 437.073 71.624L434.815 61.4659C433.909 58.9045 441.347 48.4287 442.826 48.6312C443.955 48.7861 442.754 49.8623 442.766 50.0132C442.79 50.4063 443.641 50.728 443.426 51.403L442.635 51.7962C444.3 52.1337 444.897 53.746 447.004 53.3886C447.115 54.2344 447.035 54.2424 446.212 54.1868C447.262 55.3464 446.964 55.7236 446.212 56.9507L449.778 57.7409C452.044 54.981 451.221 52.1973 447.421 52.9835C447.198 51.8756 446.344 50.8233 447.819 50.4103C447.27 49.3619 446.868 49.0561 447.405 47.837C446.67 47.7456 445.779 48.8734 445.807 47.6345C445.835 46.4511 446.097 44.9778 447.405 45.4503V47.0388C448.844 46.3597 449.592 47.6384 450.562 45.9348C451.901 43.5799 450.565 44.0128 449.782 41.8843C448.498 42.1861 448.594 43.024 447.409 41.8843C446.741 45.1565 445.851 42.7698 444.921 42.0193C444.797 41.92 444.284 42.5673 444.03 41.4753L442.098 42.6467L440.75 41.2966C442.054 40.1727 440.44 39.6446 441.049 38.3182C439.757 38.8901 439.633 38.1514 438.675 37.524L438.282 38.5525L437.081 38.3142C437.69 39.7041 436.262 39.994 436.27 40.1052C436.322 40.824 437.451 41.2846 436.676 42.2814C437.737 42.1861 438.64 42.2536 438.675 43.4727C439.586 42.9525 439.24 41.92 440.651 42.2854C439.872 44.2431 442.046 46.0897 441.848 48.0276C441.748 48.9926 439.427 50.6684 438.679 51.6135C437.534 53.059 436.692 54.6236 435.686 56.1525L434.664 54.0041L435.503 53.5792C434.998 53.2099 435.082 51.9193 435.018 51.8558C434.509 51.3673 432.848 51.9193 432.705 51.1965C432.486 50.0807 433.798 50.6962 433.897 50.3864C434.394 48.8298 433.877 46.8839 432.053 46.7965C430.105 46.7052 430.387 47.0189 429.759 48.0594C429.652 48.2381 429.151 48.242 429.143 48.4724C429.119 49.0482 429.799 49.7749 429.127 50.6048L430.721 50.6128C430.363 51.1529 431.067 53.194 429.93 52.777C429.015 51.5778 428.336 53.0828 427.139 52.9994C427.743 53.9763 427.131 54.8619 427.155 55.5171C427.155 55.6164 428.372 56.9825 428.483 57.0301C429.87 57.6059 429.906 56.7521 431.11 56.5575C430.466 58.3843 431.15 57.8998 431.353 58.285C431.556 58.6702 431.48 59.1944 431.548 59.2857C431.623 59.389 433.158 58.694 433.818 60.0005L436.235 72.6525C436.628 78.3153 437.574 83.9741 437.884 89.6409C437.92 90.2803 438.174 92.3572 437.471 92.6312C436.863 88.3225 434.378 84.3514 434.68 79.9474C434.199 79.5503 434.378 81.52 433.698 80.3366C433.44 79.8879 430.14 70.937 428.725 72.4142L433.122 90.0539L429.91 122.371C429.318 122.291 429.258 120.663 429.175 120.139C427.417 108.873 426.292 96.8604 422.794 86.3846C422.413 85.2409 421.351 82.5723 421.248 81.6272C421.069 80.011 422.015 77.4377 421.57 75.5911L420.584 79.9474L418.799 77.3662L419.984 76.3853C418.052 75.6824 415.992 75.2099 414.418 73.812C412.645 72.2355 412.013 69.9124 410.618 68.0897C408.046 64.7341 403.888 63.102 399.73 64.0908C399.618 59.798 401.638 55.8864 404.492 52.789L402.906 52.9875L403.701 51.9987L402.902 51.6056C403.932 50.8034 403.522 49.0641 404.059 48.0117C404.42 47.3009 405.311 46.8958 405.414 46.5503C405.701 45.5814 404.87 44.529 406.476 43.6713L404.492 44.263L406.078 42.0828L405.291 41.8922L405.681 40.2998L404.886 39.1164L403.693 41.4951L402.954 41.1496L402.103 43.8698L401.705 41.8882L400.584 42.3529L399.722 52.9875L398.14 51.8041L398.927 55.7633L396.943 55.3742C396.804 55.4854 398.489 57.2724 398.549 57.9792C398.625 58.9323 397.742 59.2738 397.726 59.929C397.718 60.1713 398.45 60.064 398.533 60.3897C399.575 64.3568 396.74 64.9803 394.792 67.2994C393.632 68.6853 392.809 70.4366 391.978 72.0211C391.445 71.6597 391.429 71.2269 391.366 70.651C391.048 67.7323 391.262 64.1424 390.98 61.1243C390.63 57.3915 389.628 53.2258 389.45 49.5724C389.43 49.1951 389.39 47.0229 389.43 46.8958C389.621 46.2525 390.587 46.4272 390.594 46.0539C390.61 45.2081 389.318 45.0334 389.39 43.715C389.446 42.7381 391.545 40.0536 391.382 39.9146L389 40.7009L389.788 35.5503C388.825 35.6615 389.549 37.5399 388.205 37.1348C387.426 35.2803 388.185 32.707 387.796 31.063C387.72 30.7413 387.076 30.9558 386.977 30.2211C386.81 28.9384 387.271 22.4179 387.005 22.0684C385.196 21.7189 387.017 25.1222 385.82 25.6345L385.812 23.6568L385.025 24.4471L384.222 20.4839L383.435 21.6673L382.234 18.5023L381.837 20.0828L380.652 19.2886L381.439 21.6673L380.255 21.8619L382.234 24.8402L380.251 24.2446L381.837 25.833L381.046 26.2262L383.427 30.9915L382.632 31.1901L383.435 32.576L382.632 32.9691L384.218 34.5615L383.03 34.9507C383.483 35.598 385.077 36.4002 384.421 37.1308L382.234 36.1381C385.454 40.8121 388.042 45.5734 388.189 51.407C386.802 50.1363 386.11 48.0435 384.775 46.6933C381.575 43.4568 376.566 43.0399 373.89 47.0428C377.997 45.5893 380.068 46.2882 382.401 49.8543C384.373 52.8684 389.784 68.5066 389.784 71.8265V89.0731C389.187 89.1684 389.287 88.3305 389.187 87.8897C387.581 80.829 386.607 73.0019 383.185 66.5171C382.815 65.8142 382.075 64.5593 381.443 64.0987C382.811 71.4492 384.644 78.7521 385.753 86.1582C387.243 96.1138 388.758 109.119 387.41 119.023C387.331 119.619 387.355 120.242 386.611 120.401C386.444 114.631 385.403 108.897 385.021 103.151C384.874 100.935 385.184 98.6276 385.013 96.4196C384.973 95.8835 384.822 94.0211 384.226 93.8384L382.636 121.986C380.712 109.703 379.591 97.2575 376.876 85.1099C375.751 80.0864 374.61 73.8875 371.116 70.0474L374.304 88.4655L368.337 120.401C367.693 115.255 367.673 109.953 367.136 104.743C366.425 97.7817 364.417 79.6297 360.712 74.2767C360.434 73.8716 360.104 73.3276 359.591 73.2164L363.01 93.7034L360.386 114.448C359.194 103.643 359.508 91.3882 355.914 81.0435C355.298 79.2644 354.531 76.9691 352.833 75.9922C354.042 82.7669 355.203 89.6131 355.958 96.4633C357.282 108.42 358.633 122.931 356.701 134.781C356.642 135.138 356.53 135.972 356.01 135.865C353.72 116.776 351.291 97.6387 351.633 78.3749L348.858 105.732C348.528 101.586 347.828 97.468 347.141 93.3698C346.664 90.5304 345.133 85.8723 345.086 83.3388C345.062 81.929 347.137 75.1503 346.866 74.8088C345.837 74.5705 346.175 75.1146 345.845 75.5554C345.36 76.2106 344.915 77.1637 344.426 77.7196C344.056 78.1406 344.024 78.6767 343.484 77.9817L338.912 66.8785L338.121 67.077C338.371 68.5344 339.337 71.0998 339.099 72.4738C338.785 74.2886 335.748 79.2247 335.048 81.4445C334.658 82.6716 334.909 84.3554 334.273 85.8128C334.046 86.329 333.362 86.2655 333.339 86.5514C333.299 87.0716 333.752 87.6832 333.661 88.3781C332.389 97.8294 329.332 107.519 328.986 117.228C328.389 117.042 328.246 115.191 328.199 114.647C328.099 113.468 328.298 112.264 328.191 111.089C327.455 103.182 325.054 91.5669 325.4 84.1052C325.635 79.0579 328.517 72.7041 329.495 67.5734C329.594 67.0453 330.234 66.7951 329.196 66.8785C326.831 69.0904 325.678 72.2276 324.593 75.1821L323.83 74.8009L313.498 117.625C313.828 113.464 313.741 109.29 313.876 105.12C314.178 95.7604 313.24 85.1416 315.597 76.3059C316.269 73.7842 317.736 71.8225 317.469 69.2532L318.292 70.8019L323.83 70.2658L324.172 69.7814C323.52 68.046 324.613 68.4272 325.169 67.625C326.139 66.2312 326.549 65.0676 325.042 63.8684C323.118 62.3355 322.792 63.9279 321.631 64.3131C321.023 64.5157 319.839 63.8803 319.055 64.8889L319.648 60.1316C317.624 61.6446 317.008 64.3131 315.828 66.2431C315.533 66.7276 314.79 66.8308 314.742 66.9222C314.663 67.0691 315.327 68.4431 314.066 70.0236C312.81 71.5962 311.729 70.8933 310.143 69.9879C308.223 68.8918 308.839 69.0308 306.414 68.32C306.291 68.2843 306.235 67.216 304.347 68.0539C304.768 66.6164 306.116 66.9102 305.536 64.881L311.896 64.0908H305.738C305.611 64.0908 305.285 64.8572 304.812 63.8962C304.82 61.6565 305.85 61.0528 307.746 60.1474L307.571 58.6027L309.515 57.733L308.716 56.1604H309.916C309.264 54.8738 310 54.5402 310.31 53.3886C307.519 52.7929 309.074 50.1085 309.515 48.2261L308.322 50.6048L306.172 49.7828L304.947 51.3911L304.752 49.8146H303.413L302.964 50.6048L301.775 49.8106L301.167 51.002L300.578 50.2117C297.843 51.6413 298.436 53.5117 298.774 56.1326L297.235 56.5099L296.806 55.7633L296.377 57.3279L295.212 57.3478L294.421 55.3622C294.472 56.5615 294.957 58.837 294.679 59.9449C294.548 60.4612 293.824 60.3619 293.661 60.5723C293.447 60.8543 294.588 62.3435 293.423 62.8915C293.129 61.6604 292.656 61.3626 291.638 60.7113L292.433 60.3261C291.38 58.833 291.157 56.8951 290.402 55.2749C290.207 54.8579 289.384 55.1081 290 54.2146L288.855 53.7778L289.161 54.9095L288.466 55.5409L289.638 57.7409L288.45 57.3478C289.36 58.9084 287.488 60.8186 288.211 62.3355C288.402 62.7366 288.959 62.7723 289.241 63.2052C289.487 63.5825 289.36 64.476 289.734 64.7936C290.267 65.2463 292.143 65.0716 292.425 66.8586C287.957 67.5933 284.463 70.5915 281.302 73.6016L284.077 62.8994L283.29 63.6897C283.167 60.8702 282.205 58.4438 280.825 56.0373C279.497 53.7301 276.619 51.7247 277.331 49.0204L278.114 49.4254L278.766 47.8608C280.149 48.4287 280.793 47.6424 282.093 47.4319C282.121 46.6456 280.797 47.2612 280.523 46.4074C280.404 46.042 280.63 45.5099 280.801 45.1565C282.018 42.6904 285.89 45.915 286.466 45.4503L285.27 43.6752H286.462L285.067 42.2854L284.228 43.0994L282.093 42.4879C282.725 41.0186 284.105 41.916 284.403 41.785C284.534 41.7294 285.162 40.4229 286.856 41.09L285.266 40.4944L287.651 39.5016L286.065 39.1045L286.856 37.524C285.433 37.5716 285.258 39.6088 284.673 39.9027C284.141 40.1688 283.389 39.9702 283.691 39.1164C284.753 38.8901 285.21 36.5471 285.882 35.5583C286.228 35.05 288.036 33.541 288.044 33.3623C288.056 33.1121 287.472 32.6355 286.856 32.9572C286.033 33.3861 285.027 34.7879 283.68 35.2724C282.992 35.5225 282.439 35.2287 281.903 35.3438C281.366 35.459 281.171 36.146 280.507 35.9395V34.3511C278.826 35.0063 276.301 33.1677 275.184 33.9897C274.62 34.4027 274.763 35.1691 274.155 35.1453L274.946 33.1677L272.565 33.954L272.219 32.6157C272.775 31.75 276.289 29.9233 276.138 29.0059C275.948 27.8702 273.88 29.6731 273.38 28.8114L272.533 31.1623L271.372 30.785V31.9843L270.645 31.6666C270.319 33.1359 268.625 32.4608 267.393 32.7745L267.79 34.355C266.419 34.22 267.297 33.0128 265.405 33.9698L265.807 35.5464L264.217 36.3366L266.2 37.3294L263.823 39.315L266.832 40.2919L266.602 42.2893L267.794 43.0836C266.932 42.8572 265.823 42.611 265.016 42.2933C266.153 43.2027 267.91 45.1485 268.709 45.7402C269.357 46.2168 271.146 45.9983 270.971 47.4438C268.919 48.2897 267.874 47.6424 266.801 45.8713L266.156 47.3962C265.695 47.7973 262.829 46.9077 262.134 46.6258C261.263 46.2763 261.271 44.4893 260.043 47.4399L259.848 45.4702L258.846 45.0691L257.276 47.0269L255.92 46.0182C256.779 43.9453 256.326 40.8796 259.45 41.4991L259.053 39.9186C259.78 39.7319 259.971 40.4626 260.547 40.6135C262.611 41.1456 263.06 41.5269 265.016 42.2933C264.236 41.6698 263.827 41.0583 262.75 40.3911C261.001 39.3031 257.188 38.7233 258.266 36.3485C258.921 36.1778 258.44 37.0395 258.914 37.1547C259.927 37.4009 261.203 36.7854 262.233 36.7377L259.057 35.1612L263.028 32.3854L261.036 32.7745C261.172 32.3457 261.855 31.8453 260.842 31.9843C259.828 32.1233 258.683 33.0049 257.459 32.7785C258.429 36.1976 255.761 34.224 256.302 32.2464C256.393 31.9088 257.407 31.9485 257.47 30.2052C257.506 29.2005 257.18 29.824 256.671 30.0106L256.664 28.8114L255.081 29.6016V28.0211L252.875 27.6875L251.643 29.1846C249.731 29.0218 248.498 28.9305 246.924 27.6319C246.109 26.9568 245.91 25.6384 244.75 25.6424C244.69 28.037 247.512 29.3355 247.93 31.7818C246.948 32.5482 246.308 31.1225 245.545 30.7929C245.513 32.2225 246.825 32.3496 245.541 33.5648C246.272 33.5727 247.294 33.4655 247.528 34.359L244.75 35.1532C245.891 35.1056 249.735 35.0818 250.307 36.154C250.673 36.841 249.794 36.7457 249.444 36.8568C247.262 37.5478 248.22 36.0269 247.338 36.3485L245.942 37.7345L247.139 37.933L245.942 39.9067C248.796 38.8384 251.523 36.3724 252.299 41.098L250.311 41.8922C251.364 41.8009 251.766 41.6817 252.1 42.7023L253.289 41.9518L253.694 42.2774C255.622 44.124 255.109 44.9659 255.475 47.4438H254.278L255.073 49.0283L252.692 48.2381L255.073 50.2157C253.714 50.1799 253.599 51.55 251.897 51.0139C253.11 54.163 249.655 54.8619 249.516 57.7529C250.967 56.903 251.623 60.489 251.353 61.446C250.852 63.2131 248.824 66.5528 248.025 68.7528C244.424 78.6727 243.092 89.764 241.565 100.172C240.874 100.264 241.192 99.2709 241.172 98.7904C240.989 94.3149 241.092 89.7759 240.77 85.3084C240.5 81.5438 240.027 77.2034 239.546 73.4427C239.494 73.0456 239.379 71.9575 238.791 72.0211C239.268 79.5821 238.91 87.6037 238.385 95.2124C237.606 106.55 235.781 117.804 234.811 129.118C233.611 129.312 234.179 128.82 234.008 128.157C233.615 126.592 233.317 123.82 233.225 122.18C232.255 104.68 235.193 86.8929 237.586 69.6463C234.871 72.855 233.75 77.7554 232.939 81.8575C231.301 90.1452 230.753 99.4535 230.439 107.916C230.423 108.396 230.737 109.389 230.045 109.298C229.858 107.308 229.85 105.12 229.644 103.155C229.143 98.4091 227.584 91.7655 227.624 87.294C227.664 83.172 229.695 72.8352 230.785 68.6019C231.198 67.0016 231.242 65.1391 233.225 65.6792C232.605 64.7301 233.372 63.2687 232.84 62.3991C232.553 61.9344 231.063 61.8947 230.61 60.9139C230.375 60.4016 231.643 59.1864 230.323 57.868C229.946 57.4868 228.59 57.737 228.856 56.5615L230.041 56.9586C229.652 55.2074 231.043 54.5958 232.577 54.711C233.981 54.8182 233.392 55.6839 233.73 56.0532C233.794 56.1207 235.261 56.9626 235.352 56.9586C237.622 56.8395 236.759 55.6124 238.381 54.7785C237.519 54.1312 237.511 53.2059 237.59 52.1973C236.338 52.924 235.833 52.3998 235.01 51.407C234.803 53.472 233.15 52.3164 233.265 53.9962L230.447 54.1788L230.84 52.5983L228.829 52.4236L228.459 50.2157L231.639 49.8186C231.118 48.7106 232.236 46.8879 231.21 45.8752C231.126 45.7919 229.799 46.3835 229.067 45.4384L227.127 47.428L227.262 52.2012L225.279 51.8121C228.205 55.1756 224.261 54.846 221.828 56.0969C220.663 56.6965 220.171 57.2287 219.316 58.15C221.419 57.1929 224.579 54.8301 226.841 56.3908C227.258 56.6807 227.35 56.8395 227.258 57.3557L225.275 56.9666L226.857 58.7496L225.672 59.3492C226.308 60.3063 227.032 60.4334 226.459 61.716C230.578 61.3229 226.626 66.5528 230.836 66.0803C229.707 68.3796 228.55 70.6709 227.771 73.129C226.662 76.6355 226.018 80.6066 225.402 84.2442C223.74 94.0608 222.985 104.104 222.492 114.055C221.673 113.69 221.586 111.82 221.423 110.966C219.701 102.007 215.925 85.92 217.05 77.4933C217.626 73.1608 218.819 68.594 219.721 64.2972C218.091 63.9319 217.352 66.942 216.927 68.0579C216.235 68.0738 216.084 68.2843 216.167 67.5019C216.525 64.198 217.022 60.624 219.316 58.146L219.308 58.1301ZM535.191 9.37671C536.471 8.56661 538.276 9.9843 537.735 11.3782C536.94 13.4273 536.078 11.807 536.431 11.3782L537.175 11.1478L535.187 10.5482L535.195 9.37671H535.191ZM532.066 11.4139L532.595 11.3464L534.786 13.7171C532.977 14.0785 531.935 13.1691 530.421 12.5258C530.548 11.6164 532.138 12.7522 532.066 11.4139ZM530.81 15.3096L535.974 14.9125C537.016 15.8615 530.528 20.8374 530.81 15.3096ZM537.568 22.0485C537.203 22.4615 533.843 19.6023 535.39 19.2767C536.694 19.0027 537.711 20.9207 537.568 22.0485ZM524.346 22.7435C524.641 22.5529 524.776 21.6633 525.05 21.6594C525.134 21.6594 525.535 22.3782 526.171 22.3742C526.768 22.3662 528.874 21.5283 529.932 21.3695C534.833 20.6467 536.515 22.3027 538.761 26.4088L535.982 26.0117L536.38 24.8283L534.197 25.6384L533.808 24.8244L532.603 25.6106L532.404 24.0341L530.62 25.2374L528.835 24.0341V25.2294C527.821 25.3644 527.777 25.2294 527.435 24.4114L524.621 26.7305L520.491 26.8099C520.316 25.0269 522.228 25.7536 522.673 25.2493L522.872 23.637L524.06 24.0341L523.265 22.8507C523.607 22.8348 524.064 22.9341 524.346 22.7475V22.7435ZM123.949 22.4496C124.39 22.8507 120.733 25.0865 119.982 23.4384L122.204 21.6832L123.949 22.4536V22.4496ZM118.785 24.8283L124.343 25.6226C124.569 26.8337 123.492 27.4374 122.76 28.2078L122.339 28.2316C120.952 27.3937 118.638 26.8655 118.781 24.8283H118.785ZM536.376 27.6081C537.278 27.4096 539.071 26.8258 539.87 27.2904C540.275 27.5287 542.991 33.0565 543.312 33.9619C545.61 40.4825 542.967 43.9771 541.416 50.2752C540.844 52.6063 540.566 55.0168 539.949 57.3359L538.18 52.9597L535.982 49.6041C535.891 49.2825 537.974 49.5882 537.564 48.0276L536.777 47.428L536.574 48.2261L535.986 48.2182L534.945 46.6456L533.601 47.424C533.036 46.3796 534.13 44.5211 532.854 44.6085L532.806 44.0604L535.183 43.4568L533.987 42.8651C534.635 42.8453 534.901 42.0153 534.662 41.5507C534.571 41.368 533.82 41.7254 533.995 41.0861L535.179 40.2879L533.597 40.4864C534.877 39.1124 537.338 39.585 538.729 38.8742C539.635 38.4095 541.544 36.702 540.947 35.5265C540.446 34.5377 539.5 36.6821 538.956 36.3327L538.562 35.5305L537.958 36.7179L537.37 36.7258L537.099 36.0308L536.38 36.3287C536.356 35.5424 536.698 34.911 535.585 35.1294L534.988 37.107L534.193 35.9197C533.74 35.9236 534.384 37.5478 533.406 37.111C532.027 36.4915 533.851 34.7164 532.81 34.3431C532.893 37.3056 530.703 36.015 529.741 37.2262C529.312 37.7662 529.347 38.4334 529.188 39.0568C527.853 39.6049 525.71 38.5843 524.716 38.6796C524.581 38.6915 523.667 40.4586 522.478 39.8868C522.943 38.9576 522.681 37.524 524.064 37.5041L523.273 36.5233C524.43 35.4431 526.338 33.263 527.845 34.3233L528.421 33.7475L528.04 32.3576L530.019 32.9771L531.22 30.7691L532.802 31.1662V29.5778L534.392 29.9749L533.998 28.7915L536.781 28.3864L536.384 27.6041L536.376 27.6081ZM519.29 28.7915L514.524 29.9789C514.281 29.0218 515.251 29.1132 515.601 28.6565C515.899 28.2673 515.521 27.5088 516.71 27.211L517.346 28.3547L519.087 27.9933C519.421 27.9735 519.354 28.581 519.29 28.7915C520.133 28.5413 520.872 27.3937 521.663 28.589C520.793 30.3958 520.351 30.3085 518.495 29.9749C518.332 29.8558 519.191 29.129 519.29 28.7875V28.7915ZM119.978 28.0013L121.56 28.9901L117.597 32.3615C117.434 30.1536 118.292 29.7088 120.208 29.2085L119.978 28.0013ZM117.839 34.1922C122.383 28.6009 124.263 32.5601 130.099 31.9724L130.349 33.1161L131.506 33.1518L131.128 33.9142L132.691 34.3431L132.09 35.5265C132.412 36.0904 134.352 35.0341 134.678 36.7099C133.557 36.0229 130.834 37.1031 130.29 36.9005C129.355 36.555 128.02 32.6991 127.058 35.4352L125.941 35.5305L125.742 33.9381L124.51 35.5146L122.959 34.3392L122.76 35.5305C121.166 35.0897 119.763 35.8521 118.396 34.7363L118.789 36.3207H116.408C116.193 35.1453 117.378 34.7641 117.843 34.1922H117.839ZM564.549 37.0753C564.859 36.7099 564.151 35.4471 564.982 35.5345C564.982 36.4478 565.932 37.8298 564.707 37.9966L564.99 38.6994C558.554 37.9767 564.37 37.2937 564.549 37.0753ZM140.633 40.685C139.011 39.8987 135.048 39.2157 138.447 37.5121L139.111 38.6399L139.802 38.3381L140.633 40.685ZM133.438 38.6478L133.681 37.5121L136.268 39.7002L135.446 40.1171L135.867 41.0781L134.301 40.6612L134.682 39.8947H133.478L133.792 39.2951L132.293 39.0965C132.158 38.3262 133.148 38.9456 133.438 38.6518V38.6478ZM270.657 39.994C271.209 39.728 274.004 41.3799 273.344 41.8724C271.968 41.9002 270.084 42.1305 269.373 40.689C270.394 41.0702 270.585 40.0258 270.657 39.994ZM529.22 43.4608C528.703 43.8698 526.29 38.8106 530.814 40.6929L529.22 43.4608ZM273.38 42.3171C274.055 41.8168 274.556 43.0121 274.453 43.5998C274.274 44.6283 271.372 45.9586 270.426 45.8554C270.275 45.8395 268.208 43.6991 269.245 43.4727C270.887 42.6984 272.056 43.3099 273.089 43.0796C273.423 43.0041 273.32 42.3529 273.376 42.3092L273.38 42.3171ZM89.3841 47.0308C89.7895 47.1738 93.0572 46.9633 92.5563 48.0157C91.7692 49.6677 89.078 48.9767 89.3841 47.0308ZM261.951 50.3269C263.012 49.1236 263.787 49.8583 264.694 49.6915C267.647 49.1474 271.801 47.6265 274.35 49.7947C274.608 50.0131 277.18 53.1503 276.922 53.3727H274.54L274.934 51.7882L272.755 52.9955L272.39 52.2171L270.808 52.6103L270.561 51.7922C269.043 53.1543 268.697 52.4355 267.393 51.3911V52.5864C266.133 53.0391 266.399 51.7485 265.636 51.7803C263.934 51.8557 263.91 53.6348 263.04 53.9565C262.678 54.0915 261.521 53.7539 260.853 53.7539C260.301 53.7539 259.538 54.2066 259.251 54.1669C257.944 54.0001 259.597 51.8915 261.032 52.9835C261.08 52.1496 261.41 50.9464 261.955 50.3308L261.951 50.3269ZM68.7245 49.0124L69.5156 49.2189L69.7144 50.5969L70.3027 49.8067C69.8615 51.5103 71.547 50.5572 71.5152 51.7763C72.8707 50.3983 72.994 51.6016 74.4728 51.7882L75.081 49.8027C78.2692 50.4063 75.8999 51.0854 75.8642 51.2482C75.2361 53.9406 80.3641 56.3788 80.2488 58.9283L83.8187 58.1381C83.8863 59.5637 81.6004 59.8178 80.6424 59.7225C80.1415 62.1409 81.6402 63.0424 82.2365 64.881L83.4212 64.4799L82.6619 65.9095L83.4529 66.6879L82.63 69.2334C84.5223 69.0308 84.4587 66.6879 85.0231 65.5799C85.2855 65.0637 86.5179 64.8889 86.2157 63.6897C86.9671 63.5547 87.7899 63.7492 87.7979 64.6547C87.8058 65.3615 84.9158 70.937 84.2758 71.0124C83.7272 71.076 83.1866 70.7463 82.6261 70.8218C83.9141 72.025 82.7533 72.2395 82.6857 73.0615C82.638 73.6135 83.3814 73.955 83.3496 74.5189C83.3138 75.1503 79.7202 82.9853 79.1477 84.6016C76.9415 90.8203 74.9737 97.2099 73.8765 103.73C73.1848 103.822 73.5028 102.829 73.483 102.348C73.2723 97.0788 73.4194 91.7575 73.0815 86.4879C72.8191 82.3976 72.3778 77.5052 71.8491 73.4427C71.7934 73.0139 71.6941 71.5882 71.1057 71.616C71.3999 90.733 69.4878 109.854 66.5341 128.717C66.2519 128.717 65.9975 126.946 65.9418 126.529C64.4551 115.139 65.5523 101.55 66.7806 90.1055C67.5439 82.9933 68.7961 75.9009 69.9052 68.8442C65.2184 74.2092 65.1865 82.6756 63.9462 89.4622C63.2545 89.5536 63.5726 88.5608 63.5527 88.0803C63.3221 82.3222 63.2069 75.1384 63.5368 69.424C63.9463 62.3276 66.7925 55.7752 68.7245 49.0204V49.0124ZM124.347 50.6009C125.046 50.5215 126.02 49.7987 126.553 50.581L126.33 53.7698L124.351 50.6009H124.347ZM489.893 52.1853C491.062 51.5778 493.113 54.5442 492.672 54.9572C491.658 55.5052 489.245 52.8088 489.893 52.1853ZM110.839 61.7001V67.8474C110.839 69.6265 106.8 68.8164 106.45 69.0348C106.176 69.2056 106.072 69.9362 105.655 70.2103C105.066 70.5955 103.103 70.4326 103.886 71.616C104.458 70.8893 106.963 69.9918 107.483 70.8019C108.656 72.6366 106.45 72.2713 105.679 73.407C105.337 74.3442 107.945 73.8279 107.261 75.5792L102.912 74.7731L102.892 72.8074L102.502 74.7889H98.5272L102.84 75.6348L102.9 77.5608L103.286 75.8135L104.482 75.5832L103.671 77.7593C103.687 77.8904 105.245 78.0889 104.482 78.7521C104.236 78.9666 103.361 78.4106 103.071 78.3987C102.964 78.3947 102.669 79.7131 101.302 79.1532L101.703 80.7337C100.698 81.1546 100.968 79.9554 100.71 79.9276C99.68 79.8124 98.555 81.7066 97.7321 80.7377C97.0842 79.9752 101.369 78.0453 100.507 76.3774L98.8889 78.7283L97.9269 78.768L97.7122 77.9897L96.3447 78.7521L95.1403 77.5687L93.7608 78.359C93.6535 78.2597 93.3394 75.5832 93.3672 75.4362C93.4189 75.1741 94.8381 74.777 94.4446 73.3395L102.888 62.1052C98.7299 65.2662 95.7326 69.6424 92.3615 73.5976C91.5108 73.1926 92.131 72.3149 91.9441 72.0012C91.4671 71.1991 89.6385 70.6074 90.1712 72.4182L88.1716 71.3936L94.3412 56.5456C95.2595 55.1716 95.2913 58.6742 95.9393 58.9283L96.7502 56.5536L99.3143 57.5503L100.904 56.5417L98.9247 55.5568L100.089 54.9175L99.7039 53.7778C100.777 54.0994 101.759 52.7731 102.359 52.6659C103.206 52.515 107.372 55.0684 108.243 55.7673C111.761 58.5908 112.62 60.9774 112.818 65.5005C112.846 66.1597 112.91 69.2214 111.63 68.8402L111.888 65.9254L110.835 61.7041L110.839 61.7001ZM170.042 52.9796C171.362 52.9399 173.827 54.02 174.248 55.3344C174.363 55.6958 174.352 58.4279 174.276 58.7496C174.153 59.2659 173.246 59.1666 173.183 59.5756C173.079 60.2666 174.22 61.3705 173.02 62.0973C172.614 61.0767 172.567 60.2269 171.235 60.1077L171.263 59.3413L172.03 59.1308L170.042 52.9796ZM478.583 60.2904C478.293 60.0482 477.816 59.8655 477.728 59.5359C477.693 59.4009 477.558 56.9705 477.573 56.7799C477.764 54.6395 480.289 54.0478 481.938 53.3767L479.955 59.9251L480.75 60.3103C479.581 61.4698 479.378 60.9615 478.583 60.2904ZM274.536 54.564C275.872 54.6792 277.148 53.5991 278.305 54.568C279.708 55.7395 282.729 62.4904 282.869 64.3211C283.008 66.1518 280.65 70.8178 279.899 72.7994L278.913 64.8731L278.11 80.7297C276.154 78.6568 275.92 75.9009 276.126 73.1965C274.894 73.0695 274.823 74.225 273.348 73.9868L273.745 72.8034C271.479 72.8669 271.539 71.7669 271.356 69.8648L272.946 69.0308L271.758 68.4431L273.344 68.4352L272.433 66.8467C271.853 66.8864 272.31 66.394 272.553 66.263C273.996 65.4807 275.57 65.6117 277.009 65.1788C277.82 64.9326 277.999 63.777 279.303 64.476V61.7001L277.911 62.8875L277.343 62.8597L277.307 62.1171H276.54L276.317 62.9193L274.147 61.7001L273.753 64.472L272.95 62.0973C272.088 61.9464 273.062 64.2139 271.968 63.6778C270.875 63.1417 271.869 61.5095 270.975 61.307L270.569 63.2846L269.388 62.4983L267.739 65.2146L264.388 65.6315C263.477 63.511 262.817 66.537 261.04 66.0604C260.889 64.9088 262.193 64.0272 262.181 63.9001C262.149 63.4752 261.672 63.1377 261.907 62.5778C262.13 62.0456 264.678 61.1283 264.67 60.1633L266.598 60.9099L266.204 59.3254L267.989 60.1157C268.482 58.5868 270.168 59.3691 269.782 57.737L271.364 58.1341L271.372 56.5496L272.958 56.9427L272.565 55.7593H274.95L274.552 54.572L274.536 54.564ZM256.66 54.9612C258.023 54.985 258.743 55.6839 259.832 54.564C260.404 56.5536 259.005 57.598 257.053 56.9388L257.451 55.7514L256.66 54.9612ZM253.082 56.9388C252.474 55.7792 255.288 54.1511 255.857 54.564L256.095 56.1604L253.078 56.9388H253.082ZM491.081 55.3583C491.785 55.7276 493.419 55.9341 493.88 56.4265C494.778 57.3835 497.454 62.7922 498.185 64.3251C498.893 65.8063 501.087 70.25 501.346 71.5088C501.652 73.0099 498.503 74.8565 497.625 76.3615L490.744 68.5821L488.692 62.8915C487.953 62.7962 488.394 63.6897 488.474 64.0987C488.672 65.1431 489.229 66.1359 489.09 67.2478C487.154 64.9763 482.407 64.4482 484.288 60.6756C482.984 60.2507 483.751 57.9673 484.92 57.3438C485.707 58.7297 487.714 60.0442 486.709 61.6962L487.897 61.7041C487.993 59.5399 488.251 56.2041 491.081 56.9467V55.3583ZM129.908 58.5233L133.084 56.9427L132.726 57.9514C135.08 59.3612 131.554 60.072 130.305 60.1117L131.494 58.5312L129.908 58.5233ZM204.607 58.9283C205.494 58.42 206.678 59.7106 206.794 59.7066C207.275 59.6828 207.672 57.2803 208.571 58.7258C205.613 62.6572 204.301 68.2882 203.132 73.1171C200.231 85.0821 199.11 97.2734 197.404 109.429C197.333 109.929 197.241 111.585 196.665 111.657C195.882 103.651 193.695 95.8597 192.407 87.9492C191.449 82.0879 191.739 78.4543 193.174 72.6763C194.379 71.1157 197.424 68.8204 197.082 66.7038C197.026 66.3464 195.878 66.672 196.267 65.6673L197.853 65.2662L197.885 66.8189L202.365 66.4774L202.624 65.2622L203.812 65.6593C202.89 64.1543 204.369 64.3727 204.933 63.4077C205.132 63.0702 205.744 60.0918 205.704 59.8814C205.593 59.3135 204.488 59.5875 204.611 58.9243L204.607 58.9283ZM88.9865 58.1341H90.9742C91.169 59.4128 90.3898 60.3936 89.5828 61.2951L88.9865 58.1341ZM208.98 58.5272L210.964 58.9283L210.169 60.3142C210.976 60.6915 211.111 60.624 210.956 61.6843L209.171 62.4904C208.328 61.2355 208.881 59.8814 208.976 58.5272H208.98ZM48.8561 61.7001C47.7391 60.6359 52.9824 59.4684 53.6185 59.7225C53.8053 60.7431 53.4396 60.4254 52.8314 60.6994C51.5911 61.2514 50.164 61.3864 48.8561 61.7041V61.7001ZM114.019 63.2886C113.029 59.4962 115.048 61.6445 117.191 61.307L116.805 62.685L114.019 63.2926V63.2886ZM53.9405 62.8001L56.2899 60.9615C58.3173 60.6637 60.0744 70.0554 60.0068 71.8146C59.9273 73.9709 58.7784 75.8929 58.4286 77.799C57.3592 83.6326 56.8703 89.633 55.9957 95.4983L51.6388 98.977C51.2771 94.5214 49.8658 90.0341 49.2974 85.646C49.1026 84.1409 48.6017 80.6265 48.8482 79.3359C49.0429 78.3153 50.3946 78.4583 50.4542 76.9333L49.6313 76.1312C49.2974 74.4752 51.0902 74.0146 51.1976 73.3474C51.2731 72.8947 50.0089 71.7272 50.4462 70.8258C51.5156 71.2546 52.2669 71.7193 52.6207 70.4247C54.1114 71.2507 53.7775 72.9344 55.9997 73.2045L56.3734 70.8575L53.6066 70.663C53.217 68.8362 52.0483 68.8918 50.8994 67.8117L52.0523 63.1139L51.2413 62.1012L53.9405 62.8001ZM211.059 62.5619C211.234 62.4427 212.494 62.7723 212.951 62.4904V64.472L214.14 62.8915C215.535 65.576 215.122 66.9897 214.812 69.7139C214.546 72.0409 214.454 74.8048 214.1 77.3146C212.403 89.3034 210.32 101.372 208.531 113.388C208.44 114.016 208.356 115.779 207.795 116.017L206.197 85.8882L203.812 114.433C203.156 114.071 203.049 112.165 203.005 111.478C202.457 102.849 203.188 93.1276 204.269 84.5579C204.993 78.8435 206.205 73.2045 207.06 67.5139C207.33 66.6958 209.064 67.1048 209.879 66.4536C210.276 66.1359 210.105 65.7388 210.32 65.4211C210.479 65.1828 210.936 65.2821 210.956 65.2543C211.043 65.1232 209.378 63.7214 211.059 62.5619ZM251.901 62.8954L253.475 62.8875L253.523 64.4204C254.795 64.2099 255.527 65.6951 255.654 65.6633C255.94 65.5998 256.373 64.9604 256.846 65.0041C257.82 65.0955 259.061 66.8825 259.442 63.6817L261.024 64.0788C261.271 65.2305 259.721 64.7897 259.927 66.1994C259.947 66.3384 261.04 68.6258 261.144 68.7251C261.617 69.1817 263.028 68.7409 262.615 70.4207L260.233 70.0276L260.627 71.6081L258.218 71.3778C257.137 76.0835 251.587 75.2694 252.323 80.8965C252.497 82.2189 252.649 82.2348 253.873 82.5128L251.027 86.4124L247.922 93.4174L251.905 62.8954H251.901ZM183.153 64.4799L187.557 64.2695L188.122 68.4471C187.279 69.1579 187.474 67.7045 185.947 67.4225C185.502 67.3391 183.666 67.9268 184.139 66.8547L185.128 65.8619L183.153 64.4799ZM117.195 71.6081C113.729 72.4102 117.7 64.1305 118.189 64.0868C119.028 64.0074 118.471 65.1352 118.384 65.4568C117.859 67.3868 116.587 69.6344 117.195 71.6081ZM480.873 65.3973C482.101 64.3529 482.896 64.4005 484.125 65.2741C484.828 65.7745 489.531 70.4088 489.897 71.0084C490.406 71.8424 490.616 73.0258 490.676 73.9947C487.822 70.5994 484.3 68.0658 479.955 66.8547C479.903 66.7832 480.714 65.5362 480.873 65.4012V65.3973ZM399.702 78.7481C399.563 78.6092 398.386 75.8969 398.462 75.3846L399.67 65.0399C409.091 63.7612 408.69 76.3615 417.511 76.433C417.885 76.6752 419.817 84.1767 419.868 84.9907C420.039 87.7824 418.533 92.4684 418.179 95.399L413.198 80.3287H411.624C411.699 81.8615 412.395 83.2871 412.387 84.8319C412.343 93.1792 409.747 105.065 408.845 113.841C408.364 118.519 408.312 123.252 407.644 127.911C406.953 128.002 407.271 127.009 407.251 126.529C406.814 115.934 406.575 105.351 404.802 94.8669C404.198 91.285 402.95 84.4427 401.292 81.3929C401.137 81.107 400.473 81.1666 400.473 80.9084C400.473 80.4954 401.252 79.1016 401.431 78.2915C402.123 75.1622 402.564 71.9575 403.272 68.8323C401.101 71.1315 401.034 75.1622 400.481 78.1406C400.389 78.637 400.366 79.4034 399.706 78.7402L399.702 78.7481ZM442.607 67.2438C440.802 65.5084 443.696 65.0796 445.366 65.3139L445.39 66.4615C446.391 66.4536 446.69 65.425 447.894 65.6633C448.005 65.6871 449.222 66.9658 449.591 67.1128C450.395 67.4305 453.197 68.0063 453.742 67.4503C454.286 66.8944 453.809 65.5442 455.125 66.0684C455.523 66.2272 455.837 66.7991 455.721 67.2557L454.926 67.0572C454.048 69.6781 458.429 72.1124 458.838 73.4983C458.973 73.963 458.961 77.5886 458.305 77.5568C457.331 76.4767 456.668 74.6301 454.926 74.7929C455.602 78.1247 458.059 83.6842 458.103 86.881C458.154 90.5821 456.572 96.7373 456.119 100.764C455.586 105.521 455.288 110.283 454.946 115.056C454.898 115.735 454.982 116.367 454.326 116.815C451.571 102.452 448.729 88.0048 443.788 74.2211L446.948 72.3785C446.519 71.064 445.978 70.9489 446.976 69.6384C445.588 70.1666 444.885 69.4398 443.994 68.4471L443.601 69.2373L441.418 67.8514L442.603 67.2478L442.607 67.2438ZM393.341 117.609C393.492 112.252 391.537 106.288 391.39 101.11C391.139 92.2221 391.827 77.9857 394.637 69.5431C395.21 67.8276 396.2 66.8507 397.507 65.6713L397.698 69.0269C395.218 84.8756 398.462 100.641 394.148 116.235C393.997 116.78 394.097 117.467 393.337 117.606L393.341 117.609ZM603.132 79.5424L603.924 69.4319L604.711 66.0644L605.911 72.4063L606.698 72.0052V74.3839L606.301 72.7994C604.134 74.233 605.108 78.0651 603.128 79.5384L603.132 79.5424ZM266.594 66.4615C267.437 66.4456 268.41 66.2431 268.967 67.0532L267.186 69.6305L266.594 66.4615ZM538.367 91.4359L540.001 70.2698L540.745 67.2518L543.13 77.1597L542.323 76.9691L538.367 91.4319V91.4359ZM125.627 67.7442C126.362 66.7752 128.342 68.4153 128.715 69.2334C127.849 69.0864 127.086 68.4868 126.728 69.6305L127.924 69.833L127.908 70.8019L124.744 71.6121L125.627 67.7442ZM170.046 73.5936C169.959 72.577 168.281 67.9983 170.225 68.038L173.215 69.4319L170.042 73.5936H170.046ZM120.443 68.9117L121.961 68.2168C122.987 69.8648 124.064 70.377 123.154 72.4023L124.343 72.0052C124.915 73.6532 124.255 75.7102 122.768 76.5481L123.552 79.5384L125.929 77.9539C126.251 79.4709 126.871 81.1546 126.942 82.7073C126.97 83.2673 127.288 83.3983 126.529 83.8907C125.487 82.9853 124.613 81.786 123.516 80.9601C120.98 79.046 119.214 79.6694 119.274 75.8691C119.302 74.0106 120.61 72.7121 120.685 71.6994C120.753 70.7781 120.149 69.3882 120.443 68.9077V68.9117ZM282.487 133.069L281.704 103.119C281.704 95.6651 279.764 86.6785 280.126 79.4073C280.348 74.9676 283.274 72.3904 286.884 70.2579C289.571 68.6695 290.624 67.8554 293.526 69.694C293.371 70.1388 293.653 70.8893 293.415 71.2149C293.109 71.6359 292.29 71.3857 292.417 72.0052L293.832 73.1846L296.567 72.0171C297.748 72.3149 296.452 74.8167 297.975 74.3918L298.571 71.2229L299.163 73.3752C292.624 86.1781 290.755 100.863 289.189 114.989C289.126 115.548 288.979 117.403 288.446 117.613L287.265 76.1629L286.458 72.4142L282.483 133.077L282.487 133.069ZM486.713 91.6344C486.287 93.2943 486.713 98.9611 486.713 101.149C486.713 101.217 486.323 102.309 485.922 102.138C485.369 95.3792 485.393 86.8929 483.19 80.4756C483.012 79.9554 483.079 79.2644 482.348 79.1413V135.444C481.489 126.807 481.167 118.15 480.75 109.477C480.305 100.16 479.672 90.6853 479.541 81.3413C479.49 77.5528 479.629 73.7525 479.796 70.0077C481.334 68.1572 482.26 69.0269 483.938 69.8171C485.719 70.659 490.207 74.1456 490.978 75.877C491.94 78.0453 492.93 88.7712 493.065 91.6344C493.145 93.338 492.592 95.0694 492.684 96.3442C492.751 97.2655 493.479 98.1232 493.479 99.1637C493.479 100.335 492.64 101.328 492.66 102.714C492.727 107.285 494.055 111.589 493.864 116.613C493.844 117.093 494.162 118.09 493.471 117.995C492.032 113.412 492.505 108.472 492.668 103.726L490.692 109.274C489.146 103.313 487.687 97.2416 487.504 91.0387C487.253 91.0268 486.748 91.4994 486.713 91.6344ZM160.605 78.6806C160.136 77.9341 160.816 75.3528 161.289 74.5745C161.865 73.6214 168.317 68.1929 168.846 68.8362C168.897 71.1554 169.526 73.3832 169.212 75.738C168.977 77.4972 167.776 79.1651 167.375 80.6463C166.973 82.1276 166.508 86.4362 165.872 87.4767C165.419 88.2193 165.252 87.5799 164.93 87.2146C164.119 86.2893 162.772 84.411 163.253 83.168L160.549 82.2626L160.541 81.3095L161.69 81.1189L160.486 80.1261V79.3359L161.289 79.1333C161.46 78.4861 160.732 78.8832 160.597 78.6727L160.605 78.6806ZM135.867 69.6344C138.324 70.3651 140.196 68.594 142.78 68.864C145.849 69.1817 147.053 71.3738 144.41 73.1926L144.211 71.616H141.651L141.142 73.0019C141.905 74.0106 142.649 73.7287 142.625 75.1781H138.256L139.047 74.3918L138.057 74.368L137.461 75.1781L137.262 74.3918L135.076 75.7777C136.682 76.2821 139.222 75.0987 140.633 76.1749L139.445 75.9723V77.1676C139.198 77.4417 136.467 75.881 135.867 76.9691L138.248 77.5648C138.451 79.2048 136.722 78.2796 136.662 78.355C135.958 79.2842 137.966 78.9149 137.453 79.9355L135.469 80.9362L137.056 81.1348C136.817 81.8178 135.616 81.5041 136.467 82.7232L139.397 81.8774C139.309 80.3167 139.731 79.0738 141.428 78.7442L140.633 77.5648C142.832 78.7124 143.495 75.7341 143.817 73.9907C145.109 72.5889 144.135 76.7546 143.996 77.1478C143.42 78.8236 142.684 79.0063 142.323 79.6456C142.084 80.0705 142.355 80.7218 142.156 81.0474C141.985 81.3254 139.54 81.9925 139.079 82.5525L133.482 87.4727C132.703 83.1283 132.54 80.555 133.514 76.2741C133.728 75.333 134.193 73.4983 134.607 72.1561C134.853 71.3539 135.863 71.9615 135.068 70.4287H136.268L135.863 69.6384L135.867 69.6344ZM505.416 74.3759C505.385 73.7167 504.725 73.0416 504.645 72.5095C504.391 70.794 508.819 69.5669 510.354 69.6066C512.683 69.6702 514.035 71.1752 516.11 70.0236L516.177 71.1474L517.306 71.2189C516.722 72.438 519.242 74.0702 520.355 74.7889C520.836 75.0987 521.85 74.9359 522.073 75.4601L523.671 100.343L524.048 134.26L522.911 128.463C521.007 111.673 519.242 94.8431 519.282 77.9619L518.539 81.7741C517.235 90.9911 517.664 100.24 517.298 109.489C517.279 109.969 517.596 110.962 516.905 110.87C514.846 98.6236 510.827 86.8492 506.16 75.3925C505.957 74.3323 507.491 74.8644 508.135 74.8167C508.231 75.5991 508.775 77.8427 509.165 78.3471C509.555 78.8514 510.91 79.0142 511.741 80.138C512.274 80.8608 512.528 82.2308 512.934 82.5167C513.283 82.7629 516.547 84.272 515.72 82.5167L514.917 81.933L516.106 81.1388L514.746 80.7615L514.52 79.9514L515.708 79.1532L513.725 78.5615L516.102 77.7633C514.965 76.3774 513.506 78.1723 512.13 77.9579L512.548 76.9969L511.733 76.7666L512.524 76.3734C512.639 73.8438 509.066 77.4972 509.598 74.7651C510.854 74.3601 511.872 72.9106 509.745 73.2005L510.536 72.8034C510.055 71.4413 508.823 72.3824 507.75 72.4182L507.774 73.7962L505.404 74.3759H505.416ZM444.201 121.966L439.431 99.5608C440.325 91.3564 437.499 82.0402 437.411 74.1853C437.395 72.7121 437.924 70.8178 438.838 69.6265C439.773 69.4041 440.206 71.7391 440.421 72.4023C442.706 79.5662 444.801 89.1564 446.085 96.4871C447.294 103.385 448.459 111.633 448.172 118.598C448.152 119.079 448.471 120.072 447.779 119.98L444.201 93.4174V121.962V121.966ZM178.045 71.2745L179.575 71.2189L179.567 72.2196L181.364 72.8034L182.35 71.62V73.5976H183.944L183.149 79.1453C185.204 79.038 183.924 75.4918 186.325 75.9763C185.693 77.533 187.188 79.7211 187.398 80.9998C187.573 82.068 184.632 96.924 184.341 99.9619C183.693 106.76 183.789 113.626 183.145 120.377L182.358 117.403C182.684 105.005 178.673 91.4994 178.363 79.3597C178.311 77.4099 178.597 75.8334 179.177 73.9947L180.362 74.785C180.362 73.812 181.237 72.8034 179.977 72.4102L178.184 74.3839C177.11 73.6056 177.639 72.2554 178.045 71.2785V71.2745ZM38.1269 84.6969V91.2373C37.5147 92.1983 36.6918 91.5113 35.7934 91.3882L37.7094 76.564L39.3194 76.3694C39.4864 74.3839 37.2006 74.2568 38.3137 71.9893L39.8641 72.0449L40.3093 71.2189L40.9692 73.137C41.8716 73.5976 42.4202 72.8312 42.6944 73.9987C43.0959 73.2521 42.9648 70.4366 44.4913 72.2077C45.6958 73.6016 42.3724 76.012 46.0138 76.425L43.2907 93.8185L38.9776 92.1785L38.9179 88.8666L38.1269 84.7009V84.6969ZM472.485 72.0648C474.29 70.9926 474.465 73.4825 474.397 74.7889C475.753 75.0868 475.045 73.6214 475.192 72.8034C475.554 72.45 478.834 73.6294 478.774 74.5824L475.979 139.419L472.008 77.5687L471.213 78.1525L470.016 123.161C469.452 123.109 469.325 121.398 469.273 120.933C468.287 112.113 467.166 103.595 465.135 94.9265C464.725 93.1792 462.205 85.9478 462.503 84.9669C462.595 84.6691 463.127 84.673 463.231 84.3951C463.95 82.5048 464.558 80.7536 465.922 79.4629L465.648 76.7705C467.782 76.3933 467.043 79.3478 468.82 79.9395L468.033 73.9947L470.016 74.3839C468.581 73.2998 469.786 71.3579 470.597 73.129L472.207 73.0933L472.477 72.0648H472.485ZM264.153 72.3269L264.395 71.6121L266.983 72.8074L266.184 74.1853L267.377 75.5792L265.361 75.4084L264.992 73.9947C263.819 73.82 264.276 75.051 263.219 75.2178C262.316 75.3568 260.444 75.3092 260.007 74.3879L260.229 72.0131L263.199 73.2084L263.008 72.0171L264.149 72.3308L264.153 72.3269ZM173.664 73.1449L176.18 72.0131L177.52 75.3211C174.658 79.185 174.375 84.268 172.861 88.5131C172.658 89.077 172.976 89.1842 172.026 89.0611C171.915 83.4301 169.136 77.3344 173.024 72.4142L173.664 73.1489V73.1449ZM461.676 73.2005H464.062L462.475 74.1933L463.266 74.5864C462.4 75.881 461.092 75.6149 459.693 75.5792C459.319 74.0662 461.303 75.3052 461.899 74.3998L461.672 73.2045L461.676 73.2005ZM303.544 111.26C303.6 108.555 303.417 105.823 303.142 103.139C302.502 96.8763 300.213 87.0915 300.348 81.3453C300.364 80.7178 301.779 74.7334 302.025 74.2608C302.419 73.4944 303.138 73.6294 303.747 73.2084C305.126 74.8842 303.405 76.9373 303.544 78.7442C304.597 78.9626 304.228 78.4781 304.53 77.9658C305.07 77.0445 305.21 75.6308 306.716 75.9684C306.565 76.85 307.515 78.0254 306.327 78.351L306.319 77.1557C305.082 77.4456 304.84 78.3629 304.733 79.5384L307.114 78.7481C306.931 79.9991 308.004 80.146 308.66 81.3691C309.03 82.0601 309.789 84.1012 309.773 84.824C309.721 87.4091 307.483 94.1998 306.839 97.3052C305.957 101.558 305.373 106.137 304.343 110.295C304.176 110.962 304.737 111.45 303.54 111.256L303.544 111.26ZM148.238 74.0424C151.374 73.2482 153.314 74.9835 153.744 77.9539C152.122 77.0604 152.014 78.3471 151.08 78.6687C148.727 79.4749 149.84 77.9658 148.779 76.7745L147.391 78.351L148.234 74.0424H148.238ZM493.868 83.9027L492.278 74.3879C493.999 75.4045 494.528 77.537 495.768 79.0182L493.868 83.9027ZM271.758 101.352V86.881C271.758 86.8016 271.388 85.3362 270.967 85.4951C270.863 91.7218 269.194 97.7341 267.778 103.73L265.799 98.5799V109.087L263.418 115.628L265.819 97.2059C265.25 95.5579 265.055 93.0759 263.815 91.8409C261.362 104.445 256.536 116.418 251.885 128.316C251.297 128.343 251.194 126.914 251.142 126.489C249.933 116.962 250.546 105.593 252.482 96.1972C253.38 91.8449 254.592 87.0041 256.664 83.1203L257.057 84.3117C259.073 83.3666 259.104 84.6929 259.24 84.7167C260.782 84.9907 260.436 83.029 261.823 83.1203L263.608 89.8673L265.004 89.4622L265.405 91.4438V84.3077L264.217 86.6864C263.974 85.0503 263.422 82.612 263.895 81.0196C263.942 80.8647 265.787 78.5774 265.918 78.4821C266.407 78.1326 267.452 78.224 267.711 77.8824C267.937 77.5806 268.438 74.4911 269.174 74.4077C270.927 75.0113 270.557 76.8102 270.573 78.363L270.951 75.063C272.672 73.3951 273.435 75.9207 274.477 77.0723L271.762 101.364L271.758 101.352ZM511.351 112.848C509.407 100.415 505.245 88.2113 498.285 77.6839C498.762 76.151 501.326 73.4149 502.805 75.1821C503.564 76.0875 506.422 85.4554 506.951 87.298C508.652 93.2546 511.912 105.637 511.741 111.466C511.729 111.943 512.035 112.943 511.347 112.848H511.351ZM127.531 80.3366C126.422 77.2232 125.197 74.4792 129.908 74.7889C130.146 75.0074 127.948 80.6622 127.531 80.3366ZM339.309 92.6232L336.559 88.0842L339.5 75.9684C339.802 75.9604 339.997 77.0604 340.053 77.4019C341.047 83.1084 341.373 86.3806 340.089 92.0355C339.949 92.647 340.355 92.7304 339.309 92.6232ZM460.893 82.3182L459.299 77.5608L461.279 77.9579L460.09 78.7521C460.595 79.5821 461.605 79.4431 461.283 80.7337L462.467 80.3366L462.046 82.2983L460.889 82.3182H460.893ZM79.0563 103.333C79.0284 102.503 78.9847 101.677 79.1477 100.851C80.0183 96.3481 81.835 90.3478 83.2263 85.8922C83.6358 84.5777 85.6393 77.8864 86.4105 77.5687L87.2374 78.3947L88.9826 77.9658C89.6067 78.6806 86.0368 84.4983 85.4644 85.7532C82.9202 91.3564 81.672 96.5427 79.7241 102.233C79.581 102.65 79.6367 103.433 79.0563 103.341V103.333ZM61.569 77.9579V93.8185C60.4361 93.9972 60.9052 93.5882 60.7183 92.9012C59.5734 88.664 59.975 83.724 60.9012 79.4709C61.0006 79.0063 60.9489 77.8944 61.569 77.9579ZM90.9781 79.5424C91.5267 79.4312 91.483 79.459 91.801 79.7965C93.9119 82.0362 96.3487 88.4972 96.0267 91.5153C95.1959 99.2351 88.259 118.547 84.729 125.846C84.5024 126.314 84.5183 127.021 83.8266 127.124C82.308 111.002 84.3792 94.3785 90.9821 79.5463L90.9781 79.5424ZM120.379 118.4L119.584 79.9395C121.059 80.7575 126.167 83.6485 126.338 85.3005L120.379 118.4ZM146.6 80.3366C148.961 80.1777 150.428 81.9687 152.555 80.7297L152.623 81.8536L153.716 81.9528C153.569 83.5016 153.839 84.9431 152.77 86.2972C151.967 87.3138 152.468 85.8962 151.585 85.8406C150.285 85.7611 147.483 86.7579 146.787 86.3092C145.435 85.4355 147.578 85.0662 147.391 83.9027H146.199L147.014 83.2832L146.596 80.3326L146.6 80.3366ZM494.663 88.66C494.763 86.0788 495.279 82.7232 497.036 80.7337L497.676 83.1203L494.659 88.66H494.663ZM275.729 88.664V81.7265C275.729 81.651 276.373 81.0196 276.52 81.1308C277.605 83.4619 277.128 85.3005 276.536 87.699C276.369 88.3702 276.93 88.8507 275.729 88.664ZM177.989 135.051C177.814 131.695 177.571 128.284 177.186 124.944C176.14 115.898 173.262 104.509 174.534 95.7247C175.182 91.2453 176.359 86.7102 177.389 82.3142C177.858 82.3142 177.54 90.7211 177.571 91.6543C178.009 105.069 178.422 118.654 178.808 132.072C178.832 132.851 178.903 134.765 177.989 135.051ZM108.465 84.2879C108.7 83.8788 109.789 81.8575 110.437 82.3222C111.395 84.3315 110.473 86.1662 110.425 88.0525C110.115 100.538 110.147 114.611 108.465 126.938C108.386 127.533 108.41 128.157 107.666 128.316L108.044 89.2438L109.284 84.538L108.469 84.2879H108.465ZM112.826 83.5095C113.152 83.1442 115.633 84.955 115.521 85.773L116.813 102.722L115.203 131.882L112.826 83.5135V83.5095ZM506.971 133.466C506.354 133.367 506.223 132.728 505.989 132.271C504.323 129.015 502.693 124.126 501.405 120.588C498.941 113.813 494.174 100.971 495.092 94.0449C495.502 90.9395 497.625 87.0756 498.241 83.9027C498.682 83.5572 501.576 90.5821 501.819 91.2294C506.851 104.624 507.956 119.254 506.975 133.466H506.971ZM169.247 110.072C169.152 108.162 169.355 106.216 169.259 104.31C168.949 98.1312 167.411 91.2611 169.227 85.2767C169.39 84.7445 169.259 84.0456 170.034 83.9066C170.305 91.7893 170.861 99.6045 169.991 107.451C169.927 108.011 169.78 109.866 169.247 110.076V110.072ZM398.108 92.6272V85.2925C398.108 85.225 398.644 84.6691 398.899 84.6969C399.332 87.2424 399.356 88.9261 398.696 91.4319C398.577 91.8886 398.724 92.7185 398.108 92.6272ZM135.875 111.26L133.959 89.7442C135.457 86.2893 137.636 84.9352 141.432 85.094L135.875 111.264V111.26ZM606.309 86.2853C607.605 85.8763 607.14 88.8467 607.096 89.6489C606.686 97.1702 605.534 104.723 605.108 112.248L603.924 118.793C603.423 117.312 603.455 115.759 603.502 114.214C603.574 112.01 603.765 109.334 603.92 107.102C604.412 100.141 605.696 93.2268 606.301 86.2813L606.309 86.2853ZM159.313 86.2813C162.807 85.5864 162.151 89.8236 164.791 90.725L161.297 115.624C160.367 115.683 160.597 115.755 160.502 115.036C160.359 113.928 160.593 112.63 160.502 111.466C160.064 106.109 158.757 99.9817 158.669 94.7398C158.625 92.0117 159.524 89.0532 159.313 86.2813ZM309.9 114.433C310.278 106.685 310.97 98.985 312.409 91.3644L313.47 87.4727C312.961 95.5777 312.21 103.762 311.041 111.804C310.942 112.475 310.954 114.802 309.9 114.429V114.433ZM187.526 120.778C187.386 110.358 188.233 99.6402 190.03 89.3788C190.117 88.8864 190.106 87.4568 190.698 87.4727L188.667 115.771L187.526 120.774V120.778ZM22.2337 87.4727C23.5297 87.0676 23.0685 90.0341 23.0208 90.8402C22.6074 98.3655 21.379 105.899 21.0372 113.444L19.8525 119.988C19.6538 118.848 19.4033 117.804 19.4272 116.621C19.4749 114.063 19.6816 110.886 19.8525 108.297C20.3097 101.34 21.4784 94.3983 22.2337 87.4767V87.4727ZM142.231 114.433C142.37 106.28 143.074 97.7142 144.68 89.7203C144.779 89.22 144.756 87.8698 145.4 87.8698C145.765 90.7727 145.276 94.1402 144.958 97.1344C144.489 101.491 143.491 105.815 143.372 110.223L142.231 114.433ZM630.936 129.9C630.172 129.761 630.28 129.07 630.125 128.53C627.739 120.238 629.167 105.938 630.148 97.19C630.482 94.2117 630.987 91.1976 631.536 88.259L630.936 129.896V129.9ZM412.017 143.378L413.405 89.0532L416.815 106.701L412.021 143.374L412.017 143.378ZM540.355 122.76C540.287 112.372 541.202 101.939 542.792 91.69C542.871 91.1658 542.935 89.5337 543.527 89.4543C543.452 96.3759 543.006 103.365 542.339 110.267C542.017 113.587 541.691 117.701 541.086 120.913C540.995 121.402 540.995 122.76 540.359 122.756L540.355 122.76ZM145.805 116.418L146.266 90.1214L147.188 89.4543C148.206 90.8561 149.434 91.3922 149.415 93.3897L150.969 93.4254L145.805 116.418ZM47.6635 98.1788C45.6322 97.2099 46.6419 92.9528 46.9798 90.9554C47.0514 90.5304 47.0792 89.3788 47.6635 89.4582V98.1828V98.1788ZM421.156 115.624C419.423 107.13 420.063 98.3933 420.954 89.8514C423.251 95.4387 421.812 101.312 421.534 107.086C421.419 109.457 421.641 111.867 421.55 114.242C421.53 114.722 421.848 115.719 421.156 115.624ZM104.085 98.5759V89.8514L104.9 91.6146L104.085 98.5759ZM214.144 114.437V94.8113L215.337 90.451C215.472 104.306 215.217 118.082 214.538 131.882C213.965 131.977 213.985 131.183 213.87 130.774C211.898 123.737 212.904 115.684 212.955 108.492L214.144 114.437ZM101.604 91.7456C101.862 91.3048 101.668 90.725 101.703 90.2485C103.222 91.2413 101.902 94.6326 101.576 96.2727C101.286 97.7301 100.718 100.847 100.209 102.047C99.9702 102.615 100.125 102.646 99.3183 102.543L97.8951 96.1734C98.0223 95.1489 99.1553 95.4824 99.7356 94.8431C100.28 94.2395 100.221 93.1752 100.578 92.4922C100.841 91.9918 101.497 91.9323 101.6 91.7496L101.604 91.7456ZM293.614 119.984C293.566 115.961 294.27 111.939 294.866 107.96C295.617 102.96 296.512 97.0073 297.696 92.1427C297.792 91.7456 297.812 90.9474 298.372 91.0427C298.122 98.9373 295.975 106.673 295.089 114.528L293.61 119.984H293.614ZM643.656 94.4102C644.845 104.707 642.77 117.185 643.656 127.716L642.865 128.705C641.84 122.228 641.542 115.644 641.649 109.06L642.865 93.0203C643.287 92.8694 643.637 94.2474 643.656 94.4063V94.4102ZM566.977 133.466C564.429 120.238 566.067 106.244 567.967 93.0203C569.18 94.4499 568.174 96.0582 568.15 97.5673C567.971 108.508 568.579 120.04 567.764 130.885C567.725 131.417 567.57 133.287 566.981 133.466H566.977ZM402.48 126.727L400.099 94.2196L401.626 102.4C402.397 110.295 403.387 118.177 403.272 126.143L402.477 126.731L402.48 126.727ZM275.733 129.106C275.331 118.539 276.771 108.126 277.323 97.5871L278.11 94.2156L276.52 126.128L275.733 129.106ZM35.3481 94.6088C35.5191 94.438 38.0275 94.7041 37.7611 95.5896L36.1392 113.642C35.5588 113.714 35.4276 112.606 35.3839 112.221C34.7638 106.359 34.9983 100.474 35.3481 94.6088ZM227.254 130.694C226.364 130.345 226.241 128.883 226.106 128.073C224.71 119.532 225.283 107.483 226.066 98.7824C226.153 97.8214 226.42 95.538 227.251 95.0099V130.694H227.254ZM151.363 133.073C150.639 132.922 150.623 132.295 150.556 131.699C149.601 123.229 151.605 113.63 152.674 105.235L154.936 95.0138L151.363 133.077V133.073ZM580.084 95.403V133.073C579.464 133.137 579.519 132.025 579.416 131.56C577.186 121.442 578.871 109.127 579.333 98.8221L580.08 95.407L580.084 95.403ZM318.646 133.863C317.577 122.812 319.342 110.942 321.54 100.081C321.767 98.9651 322.037 97.5871 322.339 96.5149C322.454 96.1059 322.438 95.3156 323.007 95.407C321.894 106.669 321.166 118.022 319.783 129.257C319.64 130.408 319.521 131.639 319.334 132.779C319.274 133.137 319.163 133.97 318.642 133.863H318.646ZM40.1185 114.83L39.3234 95.8001L42.4122 97.464L42.5394 97.9803L40.1145 114.83H40.1185ZM464.463 125.536C462.956 115.91 460.551 106.355 460.094 96.5943L464.006 116.275C464.097 118.856 464.721 121.589 464.872 124.138C464.896 124.571 465.127 125.643 464.463 125.536ZM336.92 110.469C337.473 109.314 336.042 96.9875 336.718 96.9875C338.272 100.804 338.288 104.223 337.656 108.238C337.572 108.766 337.517 110.39 336.92 110.473V110.469ZM375.858 137.826L375.039 99.1478L375.85 97.3846C376.768 108.226 378.649 119.575 377.834 130.488C377.699 132.311 377.206 135.146 376.701 136.909C376.51 137.576 376.999 138.017 375.854 137.826H375.858ZM125.941 118.4C126.346 111.99 127.109 105.18 128.449 98.9016C128.548 98.4449 128.501 97.325 129.109 97.3886C129.268 98.4131 129.53 99.2153 129.479 100.295C129.264 104.807 127.586 112.276 126.601 116.887C126.501 117.343 126.549 118.463 125.937 118.4H125.941ZM59.5814 97.3846V128.51C59.5814 128.59 59.2117 130.055 58.7903 129.896C56.8345 119.126 57.7607 108.238 58.3888 97.3806H59.5774L59.5814 97.3846ZM95.347 115.227L97.5254 99.7673C98.1893 100.22 98.0899 100.843 98.1415 101.526C98.3483 104.247 97.748 109.322 96.9967 111.927L95.343 115.227H95.347ZM363.543 137.429C363.002 134.892 363.63 132.644 363.555 130.075C363.304 121.525 363.002 112.812 363.105 104.322C363.121 103.004 363.69 101.503 363.738 100.152C365.34 111.053 365.511 122.196 364.684 133.22L363.543 137.429ZM54.024 113.245C54.1512 108.563 50.6052 103.397 55.6061 100.16C55.3676 102.718 55.0138 105.335 54.819 107.896C54.6918 109.548 55.4471 112.241 54.024 113.245ZM439.033 139.018L435.459 100.561C436.099 100.565 436.064 101.892 436.187 102.408C437.674 108.79 438.846 115.402 438.64 121.97L439.427 120.782C439.693 125.961 440.647 131.219 440.222 136.437C440.174 137.02 440.091 139.395 439.037 139.018H439.033ZM163.288 133.069C162.946 123.451 164.016 113.92 165.379 104.429L166.461 100.955C165.606 110.104 165.391 119.361 164.477 128.506C164.346 129.813 164.234 131.183 164.083 132.481C164.016 133.073 163.769 133.696 163.288 133.065V133.069ZM45.6799 101.352C46.308 100.637 47.8742 103.663 47.6755 104.314L46.8685 131.087C46.3 131.183 46.3279 130.4 46.1967 129.983C45.8628 128.923 45.5567 127.521 45.3897 126.421C44.1574 118.11 45.2903 109.679 45.6799 101.352ZM331.359 134.657C330.457 124.67 331.713 113.9 333.406 103.996C333.502 103.448 333.521 101.844 334.134 101.753L331.359 134.657ZM103.294 122.76L102.065 114.635L104.077 102.146C103.687 108.539 103.922 114.985 103.683 121.378C103.663 121.859 103.981 122.855 103.29 122.76H103.294ZM587.239 131.481C585.188 122.037 586.269 112.157 586.444 102.539C587.168 102.69 587.184 103.317 587.251 103.913C587.808 108.861 587.116 115.406 587.219 120.596C587.283 123.721 587.76 126.775 587.633 130.099C587.613 130.579 587.931 131.576 587.239 131.481ZM270.967 124.742L269.814 115.465L271.754 104.521L271.36 123.356L270.967 124.738V124.742ZM426.718 140.205L424.333 107.3L425.466 111.911C426.106 120.028 428.061 129.122 427.521 137.251C427.473 137.942 427.374 139.848 426.714 140.205H426.718ZM487.11 129.106C486.991 126.406 487.249 123.661 487.122 120.961C487.074 119.976 485.842 109.679 486.907 109.671L488.613 120.973C487.997 123.034 488.124 125.226 487.857 127.275C487.802 127.704 487.702 129.13 487.114 129.102L487.11 129.106ZM340.097 116.418V127.323C340.097 127.454 339.723 127.986 339.683 128.494C339.532 130.404 339.536 132.354 339.298 134.256L338.471 130.095C339.154 126.024 338.797 121.87 339.286 117.788C339.357 117.193 339.365 116.565 340.097 116.414V116.418Z" fill="#2A341F"/>
</svg>
