<svg width="71" height="49" viewBox="0 0 71 49" fill="none"
    xmlns="http://www.w3.org/2000/svg">
    <path d="M15.8513 17.5C18.8798 17.5 21.8403 18.3981 24.3584 20.0806C26.8766 21.7632 28.8392 24.1547 29.9982 26.9527C31.1571 29.7507 31.4604 32.8295 30.8695 35.7998C30.2787 38.7702 28.8203 41.4986 26.6788 43.6401C24.5373 45.7816 21.8089 47.2399 18.8386 47.8308C15.8682 48.4216 12.7894 48.1184 9.99141 46.9594C7.19342 45.8004 4.80193 43.8378 3.11937 41.3197C1.43681 38.8015 0.53875 35.841 0.53875 32.8125L0.46875 30.625C0.46875 22.5027 3.6953 14.7132 9.43861 8.96986C15.1819 3.22655 22.9715 0 31.0938 0V8.75C28.2198 8.74228 25.3729 9.30436 22.7175 10.4037C20.0622 11.5031 17.6511 13.118 15.6238 15.155C14.8357 15.9414 14.1088 16.7867 13.4494 17.6838C14.234 17.5583 15.0331 17.4956 15.8469 17.4956L15.8513 17.5ZM55.2263 17.5C58.2548 17.5 61.2153 18.3981 63.7334 20.0806C66.2516 21.7632 68.2142 24.1547 69.3732 26.9527C70.5321 29.7507 70.8354 32.8295 70.2445 35.7998C69.6537 38.7702 68.1953 41.4986 66.0538 43.6401C63.9123 45.7816 61.1839 47.2399 58.2136 47.8308C55.2432 48.4216 52.1644 48.1184 49.3664 46.9594C46.5684 45.8004 44.1769 43.8378 42.4944 41.3197C40.8118 38.8015 39.9138 35.841 39.9138 32.8125L39.8438 30.625C39.8438 22.5027 43.0703 14.7132 48.8136 8.96986C54.5569 3.22655 62.3465 0 70.4688 0V8.75C67.5948 8.74228 64.7479 9.30436 62.0925 10.4037C59.4372 11.5031 57.0261 13.118 54.9988 15.155C54.2107 15.9414 53.4838 16.7867 52.8244 17.6838C53.609 17.5583 54.4096 17.5 55.2263 17.5Z" fill="#D9BBAA"/>
</svg>
