<svg width="40" height="40" viewBox="0 0 40 40" fill="none"
    xmlns="http://www.w3.org/2000/svg">
    <path d="M22.135 27.135L28.385 20.885C28.5014 20.7689 28.5938 20.6309 28.6568 20.4791C28.7198 20.3272 28.7522 20.1644 28.7522 20C28.7522 19.8356 28.7198 19.6728 28.6568 19.5209C28.5938 19.3691 28.5014 19.2311 28.385 19.115L22.135 12.865C22.0188 12.7488 21.8808 12.6566 21.729 12.5937C21.5771 12.5308 21.4144 12.4984 21.25 12.4984C21.0856 12.4984 20.9229 12.5308 20.771 12.5937C20.6192 12.6566 20.4812 12.7488 20.365 12.865C20.2488 12.9812 20.1566 13.1192 20.0937 13.271C20.0308 13.4229 19.9984 13.5856 19.9984 13.75C19.9984 13.9144 20.0308 14.0771 20.0937 14.229C20.1566 14.3808 20.2488 14.5188 20.365 14.635L24.4825 18.75H12.5C12.1685 18.75 11.8505 18.8817 11.6161 19.1161C11.3817 19.3505 11.25 19.6685 11.25 20C11.25 20.3315 11.3817 20.6495 11.6161 20.8839C11.8505 21.1183 12.1685 21.25 12.5 21.25H24.4825L20.365 25.365C20.1303 25.5997 19.9984 25.9181 19.9984 26.25C19.9984 26.5819 20.1303 26.9003 20.365 27.135C20.5997 27.3697 20.9181 27.5016 21.25 27.5016C21.5819 27.5016 21.9003 27.3697 22.135 27.135ZM37.5 20C37.5 24.6413 35.6563 29.0925 32.3744 32.3744C29.0925 35.6563 24.6413 37.5 20 37.5C15.3587 37.5 10.9075 35.6563 7.62563 32.3744C4.34374 29.0925 2.5 24.6413 2.5 20C2.5 15.3587 4.34374 10.9075 7.62563 7.62563C10.9075 4.34374 15.3587 2.5 20 2.5C24.6413 2.5 29.0925 4.34374 32.3744 7.62563C35.6563 10.9075 37.5 15.3587 37.5 20ZM20 35C21.9698 35 23.9204 34.612 25.7403 33.8582C27.5601 33.1044 29.2137 31.9995 30.6066 30.6066C31.9995 29.2137 33.1044 27.5601 33.8582 25.7403C34.612 23.9204 35 21.9698 35 20C35 18.0302 34.612 16.0796 33.8582 14.2597C33.1044 12.4399 31.9995 10.7863 30.6066 9.3934C29.2137 8.00052 27.5601 6.89563 25.7403 6.14181C23.9204 5.38799 21.9698 5 20 5C16.0218 5 12.2064 6.58035 9.3934 9.3934C6.58035 12.2064 5 16.0218 5 20C5 23.9782 6.58035 27.7936 9.3934 30.6066C12.2064 33.4196 16.0218 35 20 35Z" fill="white" />
</svg>