<svg width="15" height="14" viewBox="0 0 15 14" fill="none"
    xmlns="http://www.w3.org/2000/svg">
    <path d="M12.1154 0.5C12.2882 0.500041 12.4571 0.553082 12.6002 0.65229C12.7433 0.751497 12.8542 0.892327 12.9185 1.05664C13.0892 1.49273 13.3512 1.80827 13.6085 2.01155C13.8877 2.23018 14.0954 2.27036 14.1346 2.27036C14.3641 2.27036 14.5842 2.36375 14.7465 2.52997C14.9088 2.6962 15 2.92165 15 3.15673C15 3.39181 14.9088 3.61726 14.7465 3.78348C14.5842 3.94971 14.3641 4.04309 14.1346 4.04309C13.5969 4.04309 13.0269 3.78782 12.5538 3.41673C12.4031 3.29855 12.2569 3.16303 12.1154 3.01018C11.8195 3.334 11.4622 3.59261 11.0655 3.77021C10.6687 3.94781 10.2407 4.04066 9.80769 4.04309C9.37477 4.04081 8.94684 3.94814 8.55006 3.77075C8.15329 3.59336 7.79599 3.33497 7.5 3.01136C7.20401 3.33497 6.84671 3.59336 6.44994 3.77075C6.05316 3.94814 5.62523 4.04081 5.19231 4.04309C4.75938 4.04081 4.33146 3.94814 3.93468 3.77075C3.5379 3.59336 3.1806 3.33497 2.88462 3.01136C2.74308 3.16421 2.59692 3.30012 2.44615 3.41909C1.97423 3.79018 1.40423 4.04545 0.865385 4.04545C0.63587 4.04545 0.415756 3.95207 0.253465 3.78584C0.0911742 3.61962 0 3.39417 0 3.15909C0 2.92401 0.0911742 2.69856 0.253465 2.53234C0.415756 2.36611 0.63587 2.27273 0.865385 2.27273C0.903462 2.27273 1.11231 2.23255 1.39038 2.01273C1.64885 1.81064 1.91077 1.49273 2.08154 1.05782C2.14591 0.893605 2.25679 0.752884 2.39992 0.653773C2.54304 0.554661 2.71185 0.501696 2.88462 0.501696C3.05738 0.501696 3.22619 0.554661 3.36932 0.653773C3.51244 0.752884 3.62332 0.893605 3.68769 1.05782C4.03154 1.93473 4.65692 2.27036 5.19231 2.27036C5.72769 2.27036 6.35423 1.93473 6.69692 1.05664C6.76129 0.892423 6.87218 0.751702 7.0153 0.652591C7.15842 0.553479 7.32723 0.500514 7.5 0.500514C7.67277 0.500514 7.84158 0.553479 7.9847 0.652591C8.12782 0.751702 8.23871 0.892423 8.30308 1.05664C8.64577 1.93473 9.27231 2.27036 9.80769 2.27036C10.3431 2.27036 10.9696 1.93355 11.3123 1.05664C11.3766 0.892327 11.4874 0.751497 11.6306 0.65229C11.7737 0.553082 11.9426 0.500041 12.1154 0.5ZM12.1154 5.22727C12.2882 5.22731 12.4571 5.28035 12.6002 5.37956C12.7433 5.47877 12.8542 5.6196 12.9185 5.78391C13.0892 6.22 13.3512 6.53554 13.6085 6.73882C13.8877 6.95745 14.0954 6.99764 14.1346 6.99764C14.3641 6.99764 14.5842 7.09102 14.7465 7.25725C14.9088 7.42347 15 7.64892 15 7.884C15 8.11908 14.9088 8.34453 14.7465 8.51075C14.5842 8.67698 14.3641 8.77036 14.1346 8.77036C13.5969 8.77036 13.0269 8.51509 12.5538 8.144C12.4031 8.02582 12.2569 7.8903 12.1154 7.73745C11.8195 8.06127 11.4622 8.31988 11.0655 8.49748C10.6687 8.67508 10.2407 8.76793 9.80769 8.77036C9.37477 8.76808 8.94684 8.67542 8.55006 8.49802C8.15329 8.32063 7.79599 8.06224 7.5 7.73864C7.20401 8.06224 6.84671 8.32063 6.44994 8.49802C6.05316 8.67542 5.62523 8.76808 5.19231 8.77036C4.75938 8.76808 4.33146 8.67542 3.93468 8.49802C3.5379 8.32063 3.1806 8.06224 2.88462 7.73864C2.74308 7.89148 2.59692 8.02739 2.44615 8.14636C1.97423 8.51745 1.40423 8.77273 0.865385 8.77273C0.63587 8.77273 0.415756 8.67934 0.253465 8.51312C0.0911742 8.34689 0 8.12144 0 7.88636C0 7.65129 0.0911742 7.42584 0.253465 7.25961C0.415756 7.09338 0.63587 7 0.865385 7C0.903462 7 1.11231 6.95982 1.39038 6.74C1.64885 6.53791 1.91077 6.22 2.08154 5.78509C2.14591 5.62088 2.25679 5.48016 2.39992 5.38105C2.54304 5.28193 2.71185 5.22897 2.88462 5.22897C3.05738 5.22897 3.22619 5.28193 3.36932 5.38105C3.51244 5.48016 3.62332 5.62088 3.68769 5.78509C4.03154 6.662 4.65692 6.99764 5.19231 6.99764C5.72769 6.99764 6.35423 6.662 6.69692 5.78391C6.76129 5.6197 6.87218 5.47898 7.0153 5.37986C7.15842 5.28075 7.32723 5.22779 7.5 5.22779C7.67277 5.22779 7.84158 5.28075 7.9847 5.37986C8.12782 5.47898 8.23871 5.6197 8.30308 5.78391C8.64577 6.662 9.27231 6.99764 9.80769 6.99764C10.3431 6.99764 10.9696 6.66082 11.3123 5.78391C11.3766 5.6196 11.4874 5.47877 11.6306 5.37956C11.7737 5.28035 11.9426 5.22731 12.1154 5.22727ZM12.9185 10.5112C12.8541 10.347 12.7432 10.2062 12.6001 10.1071C12.457 10.008 12.2881 9.95506 12.1154 9.95506C11.9426 9.95506 11.7738 10.008 11.6307 10.1071C11.4876 10.2062 11.3767 10.347 11.3123 10.5112C10.9696 11.3881 10.3431 11.7249 9.80769 11.7249C9.27231 11.7249 8.64577 11.3893 8.30308 10.5112C8.23871 10.347 8.12782 10.2062 7.9847 10.1071C7.84158 10.008 7.67277 9.95506 7.5 9.95506C7.32723 9.95506 7.15842 10.008 7.0153 10.1071C6.87218 10.2062 6.76129 10.347 6.69692 10.5112C6.35308 11.3881 5.72769 11.7249 5.19231 11.7249C4.65692 11.7249 4.03154 11.3893 3.68769 10.5112C3.62332 10.347 3.51244 10.2062 3.36932 10.1071C3.22619 10.008 3.05738 9.95506 2.88462 9.95506C2.71185 9.95506 2.54304 10.008 2.39992 10.1071C2.25679 10.2062 2.14591 10.347 2.08154 10.5112C1.91077 10.9485 1.64885 11.264 1.39038 11.4685C1.11231 11.6871 0.903462 11.7273 0.865385 11.7273C0.63587 11.7273 0.415756 11.8207 0.253465 11.9869C0.0911742 12.1531 0 12.3786 0 12.6136C0 12.8487 0.0911742 13.0742 0.253465 13.2404C0.415756 13.4066 0.63587 13.5 0.865385 13.5C1.40423 13.5 1.97423 13.2447 2.44615 12.8736C2.59692 12.7555 2.74308 12.6195 2.88462 12.4659C3.1806 12.7895 3.5379 13.0479 3.93468 13.2253C4.33146 13.4027 4.75938 13.4954 5.19231 13.4976C5.62523 13.4954 6.05316 13.4027 6.44994 13.2253C6.84671 13.0479 7.20401 12.7895 7.5 12.4659C7.79599 12.7895 8.15329 13.0479 8.55006 13.2253C8.94684 13.4027 9.37477 13.4954 9.80769 13.4976C10.2407 13.4952 10.6687 13.4024 11.0655 13.2248C11.4622 13.0472 11.8195 12.7885 12.1154 12.4647C12.2569 12.6176 12.4031 12.7531 12.5538 12.8713C13.0269 13.2424 13.5969 13.4976 14.1346 13.4976C14.3641 13.4976 14.5842 13.4043 14.7465 13.238C14.9088 13.0718 15 12.8464 15 12.6113C15 12.3762 14.9088 12.1507 14.7465 11.9845C14.5842 11.8183 14.3641 11.7249 14.1346 11.7249C14.0954 11.7249 13.8877 11.6847 13.6085 11.4649C13.2991 11.2161 13.0608 10.8867 12.9185 10.5112Z" fill="#381207" />
</svg>