<svg width="50" height="51" viewBox="0 0 50 51" fill="none"
    xmlns="http://www.w3.org/2000/svg">
    <path d="M22.505 9.25C25.6939 9.25015 28.8037 10.2435 31.4022 12.092C34.0007 13.9405 35.959 16.5525 37.005 19.565L37.1925 20.1475L37.3025 20.5075H43.1275C44.8778 20.508 46.562 21.1761 47.8367 22.3756C49.1113 23.575 49.8806 25.2155 49.9875 26.9625L50 27.38V29.88C49.9993 30.9775 49.5862 32.0347 48.8425 32.8419C48.0987 33.649 47.0788 34.1472 45.985 34.2375L45.6275 34.25H41.5625L42.165 35.71C42.5815 36.7217 42.6039 37.8527 42.2276 38.8801C41.8514 39.9075 41.1039 40.7566 40.1325 41.26L39.79 41.42C39.3935 41.5818 38.976 41.6862 38.55 41.73L38.1225 41.75H33.655C32.8913 41.7496 32.1411 41.5493 31.4788 41.1691C30.8165 40.7888 30.2653 40.2418 29.88 39.5825L29.7 39.24L28.3525 36.3825L28.4875 36.365C24.9875 36.83 21.445 36.885 17.935 36.53L16.6925 36.3875L15.355 39.2275C15.0016 39.9786 14.4419 40.6136 13.7412 41.0585C13.0404 41.5034 12.2276 41.7398 11.3975 41.74H6.8875C6.16926 41.7397 5.46213 41.5626 4.82856 41.2243C4.19498 40.8859 3.65444 40.3968 3.25467 39.8001C2.85489 39.2034 2.60817 38.5175 2.53629 37.8028C2.4644 37.0882 2.56957 36.3669 2.8425 35.7025L3.925 33.0775C2.72637 32.3565 1.73486 31.3375 1.04702 30.1195C0.359189 28.9016 -0.00152526 27.5262 4.84767e-06 26.1275C0.000627547 25.6748 0.164988 25.2377 0.462743 24.8967C0.760499 24.5558 1.17155 24.3341 1.62 24.2725L1.875 24.255H6.575L7.8175 20.1475C8.77277 16.9958 10.7163 14.2349 13.3611 12.2726C16.0059 10.3102 19.2117 9.25055 22.505 9.25ZM39.4475 33.4825C37.5175 34.2575 35.5542 34.895 33.5575 35.395L32.185 35.7175L33.09 37.6425C33.1505 37.7722 33.2538 37.8773 33.3825 37.94L33.515 37.985L33.655 38.0025H38.1225C38.2109 38.0024 38.2982 37.9836 38.3788 37.9473C38.4593 37.911 38.5313 37.858 38.5899 37.7919C38.6485 37.7257 38.6924 37.6479 38.7187 37.5636C38.745 37.4792 38.7531 37.3902 38.7425 37.3025L38.7 37.14L37.505 34.25H37.3975L38.425 33.88L39.4475 33.4825ZM5.5675 33.4825L6.5425 33.8625L7.5125 34.215L6.3075 37.13C6.26845 37.2251 6.25344 37.3283 6.26381 37.4306C6.27419 37.5328 6.30962 37.631 6.36698 37.7163C6.42434 37.8016 6.50185 37.8714 6.59264 37.9196C6.68344 37.9678 6.78472 37.9928 6.8875 37.9925H11.3975L11.54 37.975C11.6321 37.9538 11.7183 37.9119 11.7919 37.8526C11.8655 37.7933 11.9247 37.718 11.965 37.6325L12.8625 35.725L12.9725 35.75C10.4437 35.2092 7.96617 34.4514 5.5675 33.485M22.505 13C20.1096 13.0007 17.7733 13.743 15.8167 15.1248C13.8601 16.5066 12.3792 18.4603 11.5775 20.7175L11.4075 21.235L8.5675 30.61L8.975 30.7575C17.3997 33.6493 26.5293 33.7658 35.025 31.09L36.04 30.7575L36.445 30.61L33.605 21.235C32.9366 19.031 31.6272 17.0758 29.8436 15.6186C28.06 14.1614 25.8831 13.2681 23.59 13.0525L23.05 13.0125L22.505 13ZM5.0625 29.25L5.44 28L4.1725 28.005L4.235 28.135C4.45167 28.5517 4.72917 28.9233 5.0625 29.25ZM38.4375 24.255L40.3275 30.5L45.6275 30.5025C45.768 30.5024 45.9043 30.455 46.0145 30.3679C46.1247 30.2808 46.2024 30.1591 46.235 30.0225L46.2525 29.8775V27.38C46.2522 26.6068 45.9653 25.8611 45.4472 25.2872C44.9291 24.7132 44.2166 24.3517 43.4475 24.2725L43.1275 24.2575L38.4375 24.255Z" fill="#381207" />
</svg>
