<svg width="16" height="16" viewBox="0 0 16 16" fill="none"
    xmlns="http://www.w3.org/2000/svg">
    <path fillRule="evenodd" clipRule="evenodd" d="M7.34391 2C7.08466 1.99991 6.83334 2.08936 6.63244 2.25322C6.43155 2.41707 6.29341 2.64528 6.24138 2.89925C6.22173 2.99577 6.18327 3.08748 6.12817 3.16913C6.07308 3.25079 6.00245 3.32079 5.9203 3.37515C5.83815 3.42951 5.7461 3.46715 5.64941 3.48594C5.55271 3.50472 5.45326 3.50427 5.35674 3.48463C5.26021 3.46498 5.1685 3.42651 5.08685 3.37142C5.00519 3.31633 4.93518 3.24569 4.88082 3.16355C4.82647 3.0814 4.78882 2.98936 4.77004 2.89266C4.75125 2.79597 4.7517 2.69652 4.77135 2.6C4.87068 2.11337 5.10604 1.6649 5.45008 1.30669C5.79413 0.948477 6.23274 0.695216 6.71498 0.576322C7.19721 0.457428 7.70329 0.47778 8.17442 0.635015C8.64555 0.792249 9.06241 1.07991 9.37657 1.4646C9.69074 1.84928 9.88932 2.3152 9.94926 2.80823C10.0092 3.30127 9.92802 3.80119 9.71517 4.24994C9.50232 4.69869 9.16653 5.07784 8.74679 5.34337C8.32705 5.6089 7.84059 5.7499 7.34391 5.75H3.21881C3.01989 5.75 2.82912 5.67098 2.68846 5.53033C2.54781 5.38968 2.46879 5.19891 2.46879 5C2.46879 4.80109 2.54781 4.61032 2.68846 4.46967C2.82912 4.32902 3.01989 4.25 3.21881 4.25H7.34391C7.64229 4.25 7.92844 4.13147 8.13943 3.9205C8.35041 3.70952 8.46894 3.42337 8.46894 3.125C8.46894 2.82663 8.35041 2.54048 8.13943 2.3295C7.92844 2.11853 7.64229 2 7.34391 2ZM13.3441 5C13.0848 4.99991 12.8335 5.08936 12.6326 5.25322C12.4317 5.41707 12.2936 5.64528 12.2415 5.89925C12.2219 5.99577 12.1835 6.08749 12.1285 6.16916C12.0734 6.25083 12.0028 6.32087 11.9207 6.37526C11.8386 6.42965 11.7466 6.46734 11.6499 6.48617C11.5532 6.505 11.4538 6.5046 11.3573 6.485C11.2607 6.4654 11.169 6.42698 11.0873 6.37194C11.0057 6.31689 10.9356 6.2463 10.8812 6.16419C10.8268 6.08208 10.7892 5.99006 10.7703 5.89338C10.7515 5.79671 10.7519 5.69727 10.7715 5.60075C10.8707 5.11405 11.106 4.66549 11.4499 4.30716C11.7939 3.94883 12.2325 3.69545 12.7148 3.57645C13.197 3.45745 13.7031 3.47771 14.1743 3.63488C14.6455 3.79205 15.0625 4.07968 15.3767 4.46436C15.6909 4.84904 15.8896 5.31497 15.9495 5.80804C16.0095 6.30111 15.9284 6.80108 15.7155 7.24987C15.5027 7.69866 15.1668 8.07785 14.7471 8.34339C14.3273 8.60893 13.8408 8.74993 13.3441 8.75H1.71877C1.51985 8.75 1.32908 8.67098 1.18843 8.53033C1.04777 8.38968 0.96875 8.19891 0.96875 8C0.96875 7.80109 1.04777 7.61032 1.18843 7.46967C1.32908 7.32902 1.51985 7.25 1.71877 7.25H13.3441C13.6424 7.25 13.9286 7.13147 14.1396 6.9205C14.3506 6.70952 14.4691 6.42337 14.4691 6.125C14.4691 5.82663 14.3506 5.54048 14.1396 5.3295C13.9286 5.11853 13.6424 5 13.3441 5ZM9.24146 13.1007C9.28417 13.3092 9.38514 13.5013 9.53264 13.6547C9.68015 13.8082 9.86815 13.9166 10.0748 13.9674C10.2815 14.0183 10.4983 14.0095 10.7002 13.942C10.902 13.8746 11.0806 13.7512 11.2152 13.5864C11.3497 13.4215 11.4348 13.2218 11.4604 13.0106C11.4861 12.7993 11.4513 12.5851 11.3601 12.3928C11.2688 12.2005 11.125 12.0381 10.9451 11.9243C10.7652 11.8105 10.5568 11.7501 10.344 11.75H5.46886C5.26995 11.75 5.07918 11.671 4.93852 11.5303C4.79786 11.3897 4.71885 11.1989 4.71885 11C4.71885 10.8011 4.79786 10.6103 4.93852 10.4697C5.07918 10.329 5.26995 10.25 5.46886 10.25H10.344C10.8407 10.2501 11.3272 10.3911 11.747 10.6566C12.1668 10.9222 12.5026 11.3013 12.7154 11.7501C12.9283 12.1989 13.0094 12.6989 12.9495 13.192C12.8895 13.685 12.6908 14.151 12.3766 14.5356C12.0624 14.9203 11.6454 15.2079 11.1742 15.3651C10.7031 15.5223 10.1969 15.5426 9.71468 15.4235C9.23243 15.3045 8.79384 15.0512 8.44986 14.6928C8.10588 14.3345 7.87062 13.8859 7.77142 13.3993C7.73184 13.2043 7.77131 13.0016 7.88117 12.8358C7.99102 12.67 8.16225 12.5546 8.35719 12.515C8.55213 12.4754 8.75481 12.5149 8.92064 12.6247C9.08647 12.7346 9.20187 12.9058 9.24146 13.1007Z" fill="#381207" />
</svg>