<svg width="33" height="82" viewBox="0 -10 33 100" fill="none"
    xmlns="http://www.w3.org/2000/svg">
    <g>
        <animateTransform attributeName="transform" type="translate" values="0,0;0,-10;0,0" dur="1s" repeatCount="indefinite" />
        <path d="M1.91406 16.5833C1.91406 12.7156 3.45052 9.00626 6.18542 6.27136C8.92033 3.53645 12.6297 2 16.4974 2C20.3651 2 24.0745 3.53645 26.8094 6.27136C29.5443 9.00626 31.0807 12.7156 31.0807 16.5833V29.0833C31.0807 30.9984 30.7035 32.8948 29.9706 34.6641C29.2378 36.4335 28.1636 38.0411 26.8094 39.3953C25.4552 40.7495 23.8475 41.8237 22.0782 42.5566C20.3089 43.2895 18.4125 43.6667 16.4974 43.6667C14.5823 43.6667 12.6859 43.2895 10.9166 42.5566C9.14726 41.8237 7.53961 40.7495 6.18542 39.3953C4.83123 38.0411 3.75703 36.4335 3.02415 34.6641C2.29127 32.8948 1.91406 30.9984 1.91406 29.0833V16.5833Z" stroke="#5B6502" stroke-width="3.125"/>
        <path d="M13.375 15.543C13.375 14.7142 13.7042 13.9193 14.2903 13.3333C14.8763 12.7472 15.6712 12.418 16.5 12.418C17.3288 12.418 18.1237 12.7472 18.7097 13.3333C19.2958 13.9193 19.625 14.7142 19.625 15.543V19.7096C19.625 20.5384 19.2958 21.3333 18.7097 21.9193C18.1237 22.5054 17.3288 22.8346 16.5 22.8346C15.6712 22.8346 14.8763 22.5054 14.2903 21.9193C13.7042 21.3333 13.375 20.5384 13.375 19.7096V15.543Z" stroke="#5B6502" stroke-width="3.125"/>
        <path d="M16.5 2V12.4167" stroke="#5B6502" stroke-width="3.125" stroke-linecap="round"/>
        <path d="M15.7598 60.0049L8.97168 53.1494L8.96582 53.1553L16.2578 60.5234L16.2598 60.5254L16.3125 60.5684C16.3163 60.5709 16.3204 60.5728 16.3242 60.5752L15.7598 60.0049ZM24.0293 53.1504L17.2402 60.0059L16.6826 60.5693C16.7015 60.5566 16.7199 60.542 16.7363 60.5254L16.7383 60.5234L24.0342 53.1553L24.0293 53.1504Z" fill="#381207" stroke="#5B6502" stroke-width="2.08333"/>
        <path d="M8.97109 61.668L7.5 63.1552L15.5174 71.2559C15.6459 71.3865 15.7987 71.4901 15.9669 71.5608C16.1352 71.6316 16.3157 71.668 16.4979 71.668C16.6802 71.668 16.8606 71.6316 17.0289 71.5608C17.1972 71.4901 17.3499 71.3865 17.4784 71.2559L25.5 63.1552L24.0289 61.6694L16.5 69.2725L8.97109 61.668Z" fill="#381207"/>
        <path d="M15.7598 70.0049L8.97168 63.1494L8.96582 63.1553L16.2578 70.5234L16.2598 70.5254L16.3125 70.5684C16.3163 70.5709 16.3204 70.5728 16.3242 70.5752L15.7598 70.0049ZM24.0293 63.1504L17.2402 70.0059L16.6826 70.5693C16.7015 70.5566 16.7199 70.542 16.7363 70.5254L16.7383 70.5234L24.0342 63.1553L24.0293 63.1504Z" stroke="#EDE4DC" stroke-opacity="0.5" stroke-width="2.08333"/>
        <path d="M8.97109 71.668L7.5 73.1552L15.5174 81.2559C15.6459 81.3865 15.7987 81.4901 15.9669 81.5608C16.1352 81.6316 16.3157 81.668 16.4979 81.668C16.6802 81.668 16.8606 81.6316 17.0289 81.5608C17.1972 81.4901 17.3499 81.3865 17.4784 81.2559L25.5 73.1552L24.0289 71.6694L16.5 79.2725L8.97109 71.668Z" fill="#381207"/>
        <path d="M15.7598 80.0049L8.97168 73.1494L8.96582 73.1553L16.2578 80.5234L16.2598 80.5254L16.3125 80.5684C16.3163 80.5709 16.3204 80.5728 16.3242 80.5752L15.7598 80.0049ZM24.0293 73.1504L17.2402 80.0059L16.6826 80.5693C16.7015 80.5566 16.7199 80.542 16.7363 80.5254L16.7383 80.5234L24.0342 73.1553L24.0293 73.1504Z" stroke="#EDE4DC" stroke-opacity="0.5" stroke-width="2.08333"/>
    </g>
</svg>