<svg width="24" height="25" viewBox="0 0 24 25" fill="none"
    xmlns="http://www.w3.org/2000/svg">
    <path d="M10.961 5.5C14.253 5.5 16.922 8.169 16.922 11.461C16.922 12.831 16.46 14.092 15.684 15.099L18.948 18.365C19.011 18.427 19.023 18.521 18.986 18.595L18.948 18.647L18.148 19.448C18.085 19.511 17.991 19.523 17.916 19.486L17.865 19.448L14.599 16.184C13.592 16.96 12.331 17.422 10.961 17.422C7.67 17.422 5 14.753 5 11.462C5 8.168 7.669 5.5 10.961 5.5ZM10.956 6.579C8.262 6.579 6.079 8.762 6.079 11.456C6.079 14.15 8.262 16.333 10.956 16.333C13.65 16.333 15.833 14.15 15.833 11.456C15.833 8.762 13.65 6.579 10.956 6.579Z" fill="white" />
</svg>