<svg width="993" height="679" viewBox="0 0 993 679" fill="none" xmlns="http://www.w3.org/2000/svg">
<g clip-path="url(#clip0_2516_7304)">
<path d="M547.684 470.412C551.477 516.597 560.727 647.055 581.52 661.959C602.849 677.242 629.556 681.805 655.278 677.421C655.278 677.421 760.344 659.907 782.58 636.035C785.344 633.067 789.301 628.654 790.18 624.628C781.072 637.057 768.587 641.141 754.308 645.153C732.7 651.225 705.936 658.112 684.043 662.467C674.785 664.305 654.821 668.231 647.635 660.515C646.842 659.656 646.807 657.304 646.521 656.896C654.314 663.103 662.935 663.347 672.471 662.059C694.836 659.034 729.043 649.322 751.458 643.051C779.53 635.191 795.115 627.06 795.008 594.484C794.858 546.998 787.937 497.066 784.558 449.208C777.822 353.627 771.929 257.682 764.972 162.123C763.322 139.431 762.365 82.4973 751.315 65.4694C740.265 48.4416 718.615 54.0126 702.429 55.7505C680.257 58.1319 655.778 60.4919 634.021 64.4825C598.977 70.9046 598.749 86.5236 601.399 154.199L638.085 636.771C637.728 614.981 638.306 647.899 646.164 659.027C634.399 649.659 635.242 625.937 632.213 612.263C624.463 477.621 605.306 308.129 595.456 103.487C597.499 72.7068 610.663 65.4122 639.106 60.8424C655.757 58.1677 673.835 56.8947 690.7 55.0425C704.657 53.512 727.179 48.4773 740.308 53.3833C749.243 56.7231 754.658 65.7197 757.208 74.5304C758.529 75.8964 758.058 73.4863 757.901 72.7712C752.415 47.8694 728.536 40.3746 728.536 40.3746C717.879 36.427 707.493 33.645 696.021 33.1158C678.314 32.3077 661.042 36.0765 643.635 38.0289C610.077 41.7978 575.113 42.8848 544.634 59.0688C544.634 59.0688 513.505 78.1062 521.434 134.41" fill="white"/>
<path d="M702.624 235.07C725.152 233.31 741.464 206.851 739.059 175.971C736.653 145.092 716.44 121.485 693.912 123.244C671.384 125.003 655.071 151.463 657.477 182.342C659.883 213.222 680.096 236.829 702.624 235.07Z" stroke="#1F1915" stroke-width="2" stroke-miterlimit="10"/>
<path d="M696.875 251.066C726.699 248.737 748.347 214.391 745.228 174.352C742.109 134.313 715.403 103.743 685.579 106.072C655.755 108.401 634.107 142.747 637.226 182.786C640.345 222.825 667.051 253.395 696.875 251.066Z" stroke="#1F1915" stroke-width="2" stroke-miterlimit="10"/>
<path d="M699.902 244.763C726.226 242.708 745.286 211.788 742.475 175.703C739.664 139.617 716.045 112.031 689.722 114.086C663.398 116.142 644.338 147.062 647.149 183.147C649.96 219.232 673.578 246.819 699.902 244.763Z" stroke="#1F1915" stroke-width="2" stroke-miterlimit="10"/>
<path d="M594.077 422.309C603.292 419.727 601.199 407.763 600.949 404.223C599.784 387.838 600.963 400.683 599.799 384.298C599.27 376.889 598.141 368.207 593.041 364.424C589.756 361.986 586.02 361.049 582.313 360.899C575.098 360.612 577.177 360.441 570.055 361.478C568.134 361.757 563.584 363.423 561.934 364.639C557.02 368.25 557.334 377.49 558.241 384.963C560.012 399.603 558.82 412.919 563.912 420.686C569.377 429.017 584.591 424.976 594.084 422.316L594.077 422.309Z" stroke="#1F1915" stroke-width="2" stroke-miterlimit="10" stroke-linecap="round"/>
<path d="M605.97 513.405C615.748 510.759 613.613 498.801 613.37 495.254C612.248 478.863 605.855 394.746 604.741 378.355C604.234 370.939 603.091 362.264 597.72 358.509C594.255 356.092 590.305 355.177 586.377 355.055C578.741 354.819 573.105 355.248 565.555 356.328C563.512 356.621 558.691 358.323 556.933 359.546C551.705 363.194 551.976 372.441 552.883 379.914C554.662 394.553 560.855 504.852 566.198 512.59C571.926 520.893 595.905 516.13 605.984 513.405H605.97Z" stroke="#1F1915" stroke-width="2" stroke-miterlimit="10" stroke-linecap="round"/>
<path d="M591.72 345.13C601.499 342.484 599.363 330.526 599.12 326.979C597.999 310.588 594.327 261.406 593.206 245.015C592.699 237.599 591.556 228.924 586.184 225.169C582.72 222.752 578.77 221.837 574.841 221.715C567.206 221.479 561.57 221.908 554.02 222.988C551.977 223.281 547.155 224.983 545.398 226.206C540.17 229.854 540.441 239.101 541.348 246.574C543.127 261.213 546.598 336.576 551.941 344.314C557.67 352.617 581.649 347.854 591.727 345.13H591.72Z" stroke="#1F1915" stroke-width="2" stroke-miterlimit="10" stroke-linecap="round"/>
<path d="M580.904 206.225C590.683 203.579 588.547 191.622 588.304 188.074C587.183 171.683 585.847 152.445 584.726 136.054C584.218 128.638 583.076 119.963 577.704 116.208C574.24 113.791 570.29 112.876 566.361 112.754C558.725 112.518 553.089 112.947 545.539 114.027C543.496 114.32 538.675 116.023 536.918 117.245C531.689 120.893 531.961 130.14 532.868 137.613C534.646 152.252 535.789 197.672 541.125 205.41C546.854 213.713 570.833 208.95 580.911 206.225H580.904Z" stroke="#1F1915" stroke-width="2" stroke-miterlimit="10" stroke-linecap="round"/>
<path d="M702.085 284.261C703.525 284.148 704.541 282.12 704.355 279.729C704.168 277.339 702.851 275.493 701.411 275.605C699.972 275.717 698.956 277.746 699.142 280.136C699.328 282.527 700.646 284.373 702.085 284.261Z" stroke="#1F1915" stroke-width="2" stroke-miterlimit="10"/>
<path d="M574.67 387.168C572.234 390 573.355 394.148 574.634 396.057C575.913 397.967 578.091 399.683 580.498 398.939C585.884 397.28 585.227 389.621 582.641 386.746" stroke="#1F1915" stroke-width="4" stroke-miterlimit="10" stroke-linecap="round"/>
<path d="M578.649 392.25C578.527 389.054 578.399 385.857 578.277 382.66" stroke="#1F1915" stroke-width="4" stroke-miterlimit="10" stroke-linecap="round"/>
<path d="M573.484 309.585C574.013 308.755 573.263 302.641 573.07 300.845C572.162 292.564 571.098 282.831 570.191 274.549C569.784 270.802 569.262 266.389 568.705 264.229C568.348 262.842 568.034 262.177 567.755 261.92C567.227 261.412 566.862 261.34 566.398 261.505C566.277 261.548 566.034 262.156 565.977 262.685C565.805 264.251 566.291 268.907 566.734 272.704C567.598 280.142 569.977 303.005 570.727 307.16C571.534 311.616 572.927 310.443 573.477 309.592L573.484 309.585Z" stroke="#1F1915" stroke-width="2" stroke-miterlimit="10" stroke-linecap="round"/>
<path d="M568.582 170.754C573.253 169.868 572.582 167.164 572.568 166.356C572.496 162.602 572.403 158.196 572.339 154.442C572.31 152.747 572.01 150.773 569.589 150.058C568.032 149.593 566.196 149.493 564.353 149.579C560.767 149.736 558.11 149.993 554.532 150.451C553.567 150.573 551.246 151.102 550.389 151.438C547.832 152.425 547.696 154.556 547.917 156.258C548.346 159.591 547.617 170.046 549.91 171.684C552.367 173.443 563.775 171.67 568.589 170.762L568.582 170.754Z" stroke="#1F1915" stroke-width="2" stroke-miterlimit="10" stroke-linecap="round"/>
<path d="M568.091 170.425C572.577 169.739 572.077 168.444 572.113 168.051C572.248 166.206 572.391 164.046 572.527 162.201C572.591 161.364 572.413 160.413 570.155 160.191C568.698 160.048 566.963 160.098 565.212 160.234C561.798 160.506 559.262 160.771 555.841 161.193C554.92 161.307 552.691 161.686 551.855 161.901C549.369 162.523 549.134 163.581 549.248 164.404C549.477 166.02 548.227 171.205 550.312 171.891C552.555 172.621 563.477 171.14 568.098 170.44L568.091 170.425Z" stroke="#1F1915" stroke-width="2" stroke-miterlimit="10" stroke-linecap="round"/>
<path d="M460.475 468.659C457.375 514.894 450.082 645.474 429.503 660.693C408.403 676.297 381.767 681.253 355.988 677.256C355.988 677.256 250.672 661.315 228.086 637.786C225.272 634.861 221.258 630.506 220.315 626.494C229.608 638.788 242.158 642.678 256.494 646.475C278.187 652.225 305.059 658.712 327.016 662.731C336.302 664.433 356.324 668.052 363.395 660.235C364.181 659.37 364.174 657.017 364.459 656.602C356.759 662.924 348.138 663.296 338.588 662.152C316.18 659.463 281.83 650.266 259.322 644.33C231.129 636.885 215.422 628.99 215.036 596.415C214.472 548.935 220.651 498.903 223.308 450.995C228.615 355.328 233.065 259.297 238.594 163.645C239.908 140.932 240.008 83.9913 250.801 66.799C261.444 49.8498 283.323 54.8487 299.537 56.3434C321.738 58.3959 346.259 60.3912 368.067 64.0456C403.203 69.9385 403.667 85.5575 404.224 118.29L374.217 621.388C372.045 634.568 372.502 647.455 364.817 658.705C376.438 649.157 375.245 625.457 378.067 611.74C385.288 441.991 401.574 272.227 407.203 102.471C404.696 71.7192 391.424 64.6249 362.917 60.4913C346.224 58.0669 328.13 57.0657 311.237 55.4709C297.259 54.1479 274.666 49.4564 261.608 54.5555C252.73 58.024 247.444 67.1065 245.022 75.953C243.722 77.3404 244.158 74.9231 244.308 74.2008C249.422 49.2204 273.187 41.368 273.187 41.368C283.794 37.2702 294.137 34.3309 305.594 33.63C323.288 32.5573 340.616 36.0616 358.045 37.7565C391.66 41.0176 426.632 41.5826 457.353 57.3089C457.353 57.3089 488.768 75.8743 481.682 132.293" fill="white"/>
<path d="M346.381 182.278C348.323 151.366 331.616 125.155 309.064 123.734C286.512 122.313 266.655 146.221 264.713 177.134C262.77 208.046 279.477 234.257 302.029 235.678C324.581 237.098 344.438 213.19 346.381 182.278Z" stroke="#1F1915" stroke-width="2" stroke-miterlimit="10"/>
<path d="M366.641 182.424C369.16 142.343 346.999 108.326 317.144 106.446C287.288 104.565 261.044 135.533 258.525 175.614C256.007 215.695 278.167 249.712 308.023 251.593C337.878 253.473 364.123 222.506 366.641 182.424Z" stroke="#1F1915" stroke-width="2" stroke-miterlimit="10"/>
<path d="M356.721 182.928C358.99 146.804 339.469 116.175 313.117 114.515C286.766 112.855 263.564 140.793 261.294 176.917C259.024 213.04 278.546 243.67 304.897 245.33C331.248 246.99 354.451 219.051 356.721 182.928Z" stroke="#1F1915" stroke-width="2" stroke-miterlimit="10"/>
<path d="M306.19 280.692C306.34 278.299 305.294 276.286 303.853 276.195C302.412 276.104 301.122 277.97 300.971 280.363C300.821 282.756 301.867 284.769 303.308 284.86C304.749 284.95 306.039 283.084 306.19 280.692Z" stroke="#1F1915" stroke-width="2" stroke-miterlimit="10"/>
<path d="M258.32 598.902C258.568 594.964 255.889 591.591 252.338 591.367C248.787 591.143 245.707 594.154 245.46 598.092C245.212 602.03 247.891 605.404 251.442 605.628C254.993 605.851 258.073 602.84 258.32 598.902Z" stroke="#1F1915" stroke-width="2" stroke-miterlimit="10"/>
<path d="M238.123 297.723L383.125 317.125L368.353 577.456L223.016 553.663L238.123 297.723Z" stroke="#1F1915" stroke-width="2" stroke-miterlimit="10"/>
<path d="M332.758 609.843C332.75 606.832 329.336 606.582 328.35 606.396C323.807 605.537 327.386 606.131 322.843 605.266C320.786 604.872 318.336 604.579 316.929 605.859C316.022 606.682 315.479 607.754 315.165 608.884C314.543 611.073 314.657 610.422 314.4 612.682C314.329 613.29 314.443 614.806 314.65 615.399C315.265 617.173 317.8 617.759 319.907 618.038C324.022 618.582 327.558 619.941 330.05 618.961C332.729 617.91 332.772 612.954 332.758 609.85V609.843Z" stroke="#1F1915" stroke-width="2" stroke-miterlimit="10" stroke-linecap="round"/>
<path d="M326.414 612.198C326.407 609.187 322.992 608.937 322.007 608.751C317.464 607.893 321.042 608.486 316.499 607.621C314.442 607.228 311.992 606.935 310.585 608.215C309.678 609.037 309.135 610.11 308.821 611.24C308.199 613.428 308.314 612.777 308.056 615.037C307.985 615.645 308.099 617.161 308.306 617.755C308.921 619.528 311.457 620.115 313.564 620.394C317.678 620.937 321.214 622.296 323.707 621.316C326.385 620.265 326.428 615.309 326.414 612.205V612.198Z" fill="white" stroke="#1F1915" stroke-width="2" stroke-miterlimit="10" stroke-linecap="round"/>
<path d="M439.811 428.167C449.296 426.923 448.925 414.787 449.182 411.239C450.361 394.855 449.696 407.735 450.875 391.351C451.411 383.942 451.518 375.188 447.011 370.712C444.111 367.829 440.539 366.363 436.889 365.691C429.789 364.382 431.868 364.511 424.675 364.518C422.732 364.518 417.996 365.527 416.189 366.492C410.81 369.367 409.81 378.557 409.646 386.087C409.317 400.834 406.246 413.843 410.182 422.253C414.403 431.278 430.039 429.447 439.818 428.167H439.811Z" stroke="#1F1915" stroke-width="2" stroke-miterlimit="10" stroke-linecap="round"/>
<path d="M438.645 520.02C448.702 518.79 448.288 506.653 448.552 503.106C449.774 486.722 455.395 402.548 456.616 386.164C457.166 378.755 457.274 370.001 452.488 365.517C449.402 362.635 445.616 361.162 441.752 360.483C434.223 359.16 428.588 358.781 420.959 358.773C418.902 358.773 413.88 359.767 411.966 360.733C406.273 363.601 405.223 372.79 405.059 380.314C404.737 395.06 395.194 505.116 399.38 513.54C403.873 522.573 428.28 521.278 438.645 520.012V520.02Z" stroke="#1F1915" stroke-width="2" stroke-miterlimit="10" stroke-linecap="round"/>
<path d="M448.447 351.431C458.504 350.201 458.09 338.065 458.354 334.518C459.575 318.134 462.925 268.931 464.147 252.547C464.697 245.138 464.804 236.384 460.018 231.9C456.932 229.018 453.147 227.545 449.282 226.865C441.754 225.542 436.118 225.163 428.489 225.156C426.432 225.156 421.411 226.15 419.496 227.116C413.803 229.984 412.753 239.173 412.589 246.697C412.268 261.443 404.996 336.535 409.182 344.952C413.675 353.984 438.082 352.69 448.447 351.424V351.431Z" stroke="#1F1915" stroke-width="2" stroke-miterlimit="10" stroke-linecap="round"/>
<path d="M457.481 212.397C467.538 211.167 467.124 199.03 467.388 195.483C468.61 179.099 470.017 159.868 471.238 143.484C471.788 136.075 471.895 127.322 467.11 122.838C464.024 119.956 460.238 118.482 456.374 117.803C448.845 116.48 443.209 116.101 435.581 116.094C433.524 116.094 428.502 117.088 426.588 118.053C420.895 120.921 419.845 130.111 419.681 137.634C419.359 152.381 414.038 197.493 418.223 205.917C422.716 214.95 447.124 213.655 457.488 212.389L457.481 212.397Z" stroke="#1F1915" stroke-width="2" stroke-miterlimit="10" stroke-linecap="round"/>
<path d="M425.597 390.605C422.783 393.066 423.304 397.328 424.297 399.402C425.29 401.476 427.204 403.478 429.697 403.092C435.261 402.22 435.697 394.546 433.547 391.328" stroke="#1F1915" stroke-width="4" stroke-miterlimit="10" stroke-linecap="round"/>
<path d="M428.809 396.211C429.137 393.029 429.473 389.847 429.801 386.664" stroke="#1F1915" stroke-width="4" stroke-miterlimit="10" stroke-linecap="round"/>
<path d="M435.444 313.65C436.087 312.899 436.215 306.741 436.272 304.946C436.551 296.615 436.88 286.838 437.158 278.507C437.287 274.738 437.401 270.297 437.158 268.08C437.001 266.657 436.78 265.956 436.551 265.656C436.094 265.076 435.751 264.955 435.272 265.048C435.144 265.069 434.815 265.641 434.687 266.156C434.294 267.679 434.115 272.357 434.008 276.183C433.801 283.67 432.908 306.634 433.065 310.853C433.237 315.38 434.78 314.422 435.444 313.65Z" stroke="#1F1915" stroke-width="2" stroke-miterlimit="10" stroke-linecap="round"/>
<path d="M450.326 175.537C455.076 175.33 454.798 172.555 454.898 171.754C455.362 168.028 455.898 163.651 456.362 159.933C456.569 158.245 456.562 156.249 454.269 155.198C452.791 154.519 450.991 154.161 449.155 153.975C445.583 153.625 442.919 153.496 439.305 153.446C438.333 153.432 435.962 153.625 435.062 153.832C432.39 154.447 431.955 156.536 431.926 158.252C431.876 161.613 429.669 171.854 431.705 173.807C433.89 175.895 445.426 175.766 450.319 175.552L450.326 175.537Z" stroke="#1F1915" stroke-width="2" stroke-miterlimit="10" stroke-linecap="round"/>
<path d="M449.881 175.139C454.417 175.096 454.11 173.751 454.195 173.358C454.588 171.556 455.045 169.432 455.438 167.63C455.617 166.814 455.581 165.842 453.374 165.298C451.952 164.948 450.231 164.748 448.474 164.64C445.059 164.419 442.509 164.326 439.059 164.254C438.131 164.233 435.866 164.297 435.016 164.383C432.474 164.647 432.088 165.656 432.081 166.493C432.081 168.123 430.102 173.079 432.074 174.052C434.188 175.096 445.209 175.189 449.881 175.146V175.139Z" stroke="#1F1915" stroke-width="2" stroke-miterlimit="10" stroke-linecap="round"/>
<path d="M237.501 605.543C237.844 605.543 238.131 605.427 238.363 605.195C238.595 604.963 238.71 604.676 238.71 604.335V599.501C238.71 599.159 238.594 598.872 238.362 598.641C238.13 598.41 237.843 598.294 237.501 598.293C237.16 598.292 236.873 598.408 236.641 598.641C236.409 598.874 236.293 599.161 236.293 599.501V604.335C236.293 604.677 236.409 604.964 236.641 605.196C236.873 605.428 237.16 605.544 237.501 605.543ZM237.501 595.876C237.844 595.876 238.131 595.76 238.363 595.528C238.595 595.296 238.71 595.01 238.71 594.668C238.709 594.326 238.593 594.04 238.362 593.808C238.13 593.576 237.844 593.46 237.501 593.46C237.159 593.46 236.872 593.576 236.641 593.808C236.41 594.04 236.294 594.326 236.293 594.668C236.292 595.01 236.408 595.297 236.641 595.53C236.874 595.762 237.161 595.878 237.501 595.876ZM237.501 611.585C235.83 611.585 234.259 611.267 232.789 610.632C231.319 609.998 230.04 609.137 228.952 608.05C227.865 606.964 227.004 605.685 226.37 604.214C225.736 602.743 225.419 601.172 225.418 599.501C225.417 597.831 225.735 596.26 226.37 594.789C227.006 593.318 227.866 592.039 228.952 590.952C230.038 589.866 231.317 589.005 232.789 588.37C234.261 587.735 235.831 587.418 237.501 587.418C239.171 587.418 240.742 587.735 242.214 588.37C243.686 589.005 244.964 589.866 246.05 590.952C247.136 592.039 247.997 593.318 248.634 594.789C249.27 596.26 249.587 597.831 249.585 599.501C249.582 601.172 249.265 602.743 248.632 604.214C248 605.685 247.139 606.964 246.05 608.05C244.961 609.137 243.682 609.998 242.214 610.634C240.745 611.269 239.174 611.586 237.501 611.585Z" fill="#DD9219"/>
<path d="M327.501 632.543C327.844 632.543 328.131 632.427 328.363 632.195C328.595 631.963 328.71 631.676 328.71 631.335V626.501C328.71 626.159 328.594 625.872 328.362 625.641C328.13 625.41 327.843 625.294 327.501 625.293C327.16 625.292 326.873 625.408 326.641 625.641C326.409 625.874 326.293 626.161 326.293 626.501V631.335C326.293 631.677 326.409 631.964 326.641 632.196C326.873 632.428 327.16 632.544 327.501 632.543ZM327.501 622.876C327.844 622.876 328.131 622.76 328.363 622.528C328.595 622.296 328.71 622.01 328.71 621.668C328.709 621.326 328.593 621.04 328.362 620.808C328.13 620.576 327.844 620.46 327.501 620.46C327.159 620.46 326.872 620.576 326.641 620.808C326.41 621.04 326.294 621.326 326.293 621.668C326.292 622.01 326.408 622.297 326.641 622.53C326.874 622.762 327.161 622.878 327.501 622.876ZM327.501 638.585C325.83 638.585 324.259 638.267 322.789 637.632C321.319 636.998 320.04 636.137 318.952 635.05C317.865 633.964 317.004 632.685 316.37 631.214C315.736 629.743 315.419 628.172 315.418 626.501C315.417 624.831 315.735 623.26 316.37 621.789C317.006 620.318 317.866 619.039 318.952 617.952C320.038 616.866 321.317 616.005 322.789 615.37C324.261 614.735 325.831 614.418 327.501 614.418C329.171 614.418 330.742 614.735 332.214 615.37C333.686 616.005 334.964 616.866 336.05 617.952C337.136 619.039 337.997 620.318 338.634 621.789C339.27 623.26 339.587 624.831 339.585 626.501C339.582 628.172 339.265 629.743 338.632 631.214C338 632.685 337.139 633.964 336.05 635.05C334.961 636.137 333.682 636.998 332.214 637.634C330.745 638.269 329.174 638.586 327.501 638.585Z" fill="#DD9219"/>
<path d="M592.501 385.543C592.844 385.543 593.131 385.427 593.363 385.195C593.595 384.963 593.71 384.676 593.71 384.335V379.501C593.71 379.159 593.594 378.872 593.362 378.641C593.13 378.41 592.843 378.294 592.501 378.293C592.16 378.292 591.873 378.408 591.641 378.641C591.409 378.874 591.293 379.161 591.293 379.501V384.335C591.293 384.677 591.409 384.964 591.641 385.196C591.873 385.428 592.16 385.544 592.501 385.543ZM592.501 375.876C592.844 375.876 593.131 375.76 593.363 375.528C593.595 375.296 593.71 375.01 593.71 374.668C593.709 374.326 593.593 374.04 593.362 373.808C593.13 373.576 592.844 373.46 592.501 373.46C592.159 373.46 591.872 373.576 591.641 373.808C591.41 374.04 591.294 374.326 591.293 374.668C591.292 375.01 591.408 375.297 591.641 375.53C591.874 375.762 592.161 375.878 592.501 375.876ZM592.501 391.585C590.83 391.585 589.259 391.267 587.789 390.632C586.319 389.998 585.04 389.137 583.952 388.05C582.865 386.964 582.004 385.685 581.37 384.214C580.736 382.743 580.419 381.172 580.418 379.501C580.417 377.831 580.735 376.26 581.37 374.789C582.006 373.318 582.866 372.039 583.952 370.952C585.038 369.866 586.317 369.005 587.789 368.37C589.261 367.735 590.831 367.418 592.501 367.418C594.171 367.418 595.742 367.735 597.214 368.37C598.686 369.005 599.964 369.866 601.05 370.952C602.136 372.039 602.997 373.318 603.634 374.789C604.27 376.26 604.587 377.831 604.585 379.501C604.582 381.172 604.265 382.743 603.632 384.214C603 385.685 602.139 386.964 601.05 388.05C599.961 389.137 598.682 389.998 597.214 390.634C595.745 391.269 594.174 391.586 592.501 391.585Z" fill="#DD9219"/>
<path d="M683.501 173.543C683.844 173.543 684.131 173.427 684.363 173.195C684.595 172.963 684.71 172.676 684.71 172.335V167.501C684.71 167.159 684.594 166.872 684.362 166.641C684.13 166.41 683.843 166.294 683.501 166.293C683.16 166.292 682.873 166.408 682.641 166.641C682.409 166.874 682.293 167.161 682.293 167.501V172.335C682.293 172.677 682.409 172.964 682.641 173.196C682.873 173.428 683.16 173.544 683.501 173.543ZM683.501 163.876C683.844 163.876 684.131 163.76 684.363 163.528C684.595 163.296 684.71 163.01 684.71 162.668C684.709 162.326 684.593 162.04 684.362 161.808C684.13 161.576 683.844 161.46 683.501 161.46C683.159 161.46 682.872 161.576 682.641 161.808C682.41 162.04 682.294 162.326 682.293 162.668C682.292 163.01 682.408 163.297 682.641 163.53C682.874 163.762 683.161 163.878 683.501 163.876ZM683.501 179.585C681.83 179.585 680.259 179.267 678.789 178.632C677.319 177.998 676.04 177.137 674.952 176.05C673.865 174.964 673.004 173.685 672.37 172.214C671.736 170.743 671.419 169.172 671.418 167.501C671.417 165.831 671.735 164.26 672.37 162.789C673.006 161.318 673.866 160.039 674.952 158.952C676.038 157.866 677.317 157.005 678.789 156.37C680.261 155.735 681.831 155.418 683.501 155.418C685.171 155.418 686.742 155.735 688.214 156.37C689.686 157.005 690.964 157.866 692.05 158.952C693.136 160.039 693.997 161.318 694.634 162.789C695.27 164.26 695.587 165.831 695.585 167.501C695.582 169.172 695.265 170.743 694.632 172.214C694 173.685 693.139 174.964 692.05 176.05C690.961 177.137 689.682 177.998 688.214 178.634C686.745 179.269 685.174 179.586 683.501 179.585Z" fill="#DD9219"/>
</g>
<path d="M11.112 481L5.016 473.536V481H1.656V464.248H5.016V471.76L11.112 464.248H15.168L8.256 472.552L15.36 481H11.112ZM20.6901 463.24V481H17.3301V463.24H20.6901ZM25.4738 466.12C24.8818 466.12 24.3858 465.936 23.9858 465.568C23.6018 465.184 23.4098 464.712 23.4098 464.152C23.4098 463.592 23.6018 463.128 23.9858 462.76C24.3858 462.376 24.8818 462.184 25.4738 462.184C26.0658 462.184 26.5538 462.376 26.9378 462.76C27.3378 463.128 27.5378 463.592 27.5378 464.152C27.5378 464.712 27.3378 465.184 26.9378 465.568C26.5538 465.936 26.0658 466.12 25.4738 466.12ZM27.1298 467.704V481H23.7698V467.704H27.1298ZM38.0814 481L33.5694 475.336V481H30.2094V463.24H33.5694V473.344L38.0334 467.704H42.4014L36.5454 474.376L42.4494 481H38.0814ZM55.3678 481.216C54.0878 481.216 52.9358 480.936 51.9118 480.376C50.8878 479.8 50.0798 478.992 49.4878 477.952C48.9118 476.912 48.6238 475.712 48.6238 474.352C48.6238 472.992 48.9198 471.792 49.5118 470.752C50.1198 469.712 50.9438 468.912 51.9838 468.352C53.0238 467.776 54.1838 467.488 55.4638 467.488C56.7438 467.488 57.9038 467.776 58.9438 468.352C59.9838 468.912 60.7998 469.712 61.3918 470.752C61.9998 471.792 62.3038 472.992 62.3038 474.352C62.3038 475.712 61.9918 476.912 61.3678 477.952C60.7598 478.992 59.9278 479.8 58.8718 480.376C57.8318 480.936 56.6638 481.216 55.3678 481.216ZM55.3678 478.288C55.9758 478.288 56.5438 478.144 57.0718 477.856C57.6158 477.552 58.0478 477.104 58.3678 476.512C58.6878 475.92 58.8478 475.2 58.8478 474.352C58.8478 473.088 58.5118 472.12 57.8398 471.448C57.1838 470.76 56.3758 470.416 55.4158 470.416C54.4558 470.416 53.6478 470.76 52.9918 471.448C52.3518 472.12 52.0318 473.088 52.0318 474.352C52.0318 475.616 52.3438 476.592 52.9678 477.28C53.6078 477.952 54.4078 478.288 55.3678 478.288ZM67.8885 469.624C68.3205 469.016 68.9125 468.512 69.6645 468.112C70.4325 467.696 71.3045 467.488 72.2805 467.488C73.4165 467.488 74.4405 467.768 75.3525 468.328C76.2805 468.888 77.0085 469.688 77.5365 470.728C78.0805 471.752 78.3525 472.944 78.3525 474.304C78.3525 475.664 78.0805 476.872 77.5365 477.928C77.0085 478.968 76.2805 479.776 75.3525 480.352C74.4405 480.928 73.4165 481.216 72.2805 481.216C71.3045 481.216 70.4405 481.016 69.6885 480.616C68.9525 480.216 68.3525 479.712 67.8885 479.104V487.336H64.5285V467.704H67.8885V469.624ZM74.9205 474.304C74.9205 473.504 74.7525 472.816 74.4165 472.24C74.0965 471.648 73.6645 471.2 73.1205 470.896C72.5925 470.592 72.0165 470.44 71.3925 470.44C70.7845 470.44 70.2085 470.6 69.6645 470.92C69.1365 471.224 68.7045 471.672 68.3685 472.264C68.0485 472.856 67.8885 473.552 67.8885 474.352C67.8885 475.152 68.0485 475.848 68.3685 476.44C68.7045 477.032 69.1365 477.488 69.6645 477.808C70.2085 478.112 70.7845 478.264 71.3925 478.264C72.0165 478.264 72.5925 478.104 73.1205 477.784C73.6645 477.464 74.0965 477.008 74.4165 476.416C74.7525 475.824 74.9205 475.12 74.9205 474.304Z" fill="#DD9219"/>
<path d="M96.25 478.125C96.5687 478.125 96.8361 478.017 97.0521 477.801C97.2681 477.585 97.3757 477.318 97.375 477V472.5C97.375 472.181 97.267 471.914 97.051 471.699C96.835 471.484 96.568 471.376 96.25 471.375C95.932 471.374 95.665 471.482 95.449 471.699C95.233 471.916 95.125 472.183 95.125 472.5V477C95.125 477.319 95.233 477.586 95.449 477.802C95.665 478.018 95.932 478.126 96.25 478.125ZM96.25 469.125C96.5687 469.125 96.8361 469.017 97.0521 468.801C97.2681 468.585 97.3757 468.318 97.375 468C97.3742 467.682 97.2662 467.415 97.051 467.199C96.8357 466.983 96.5687 466.875 96.25 466.875C95.9312 466.875 95.6643 466.983 95.449 467.199C95.2338 467.415 95.1257 467.682 95.125 468C95.1243 468.318 95.2323 468.585 95.449 468.802C95.6658 469.019 95.9327 469.126 96.25 469.125ZM96.25 483.75C94.6938 483.75 93.2313 483.454 91.8625 482.863C90.4938 482.272 89.3031 481.471 88.2906 480.459C87.2781 479.448 86.4768 478.257 85.8865 476.887C85.2963 475.518 85.0008 474.055 85 472.5C84.9993 470.944 85.2948 469.482 85.8865 468.112C86.4783 466.743 87.2796 465.552 88.2906 464.541C89.3016 463.529 90.4923 462.727 91.8625 462.137C93.2328 461.546 94.6953 461.25 96.25 461.25C97.8047 461.25 99.2672 461.546 100.637 462.137C102.008 462.727 103.198 463.529 104.209 464.541C105.22 465.552 106.022 466.743 106.615 468.112C107.207 469.482 107.502 470.944 107.5 472.5C107.498 474.055 107.202 475.518 106.614 476.887C106.025 478.257 105.223 479.448 104.209 480.459C103.195 481.471 102.005 482.273 100.637 482.865C99.2702 483.456 97.8077 483.751 96.25 483.75Z" fill="#DD9219"/>
<path d="M105.206 586.808L104.875 584.835L105.206 586.808ZM105.206 540.296L103.862 538.816L105.206 540.296ZM194.628 604.95C195.27 604.05 195.061 602.801 194.162 602.16L179.51 591.704C178.611 591.062 177.362 591.271 176.72 592.17C176.079 593.069 176.287 594.318 177.187 594.96L190.21 604.254L180.916 617.278C180.274 618.177 180.483 619.426 181.382 620.067C182.281 620.709 183.53 620.5 184.172 619.601L194.628 604.95ZM44.2383 496L42.256 495.735C42.0546 497.241 41.8729 498.805 41.7143 500.42L43.7047 500.615L45.6952 500.811C45.8493 499.242 46.0257 497.724 46.2207 496.265L44.2383 496ZM43.0906 509.936L41.0918 509.867C40.9861 512.926 40.9682 516.09 41.0564 519.314L43.0556 519.259L45.0549 519.205C44.969 516.067 44.9864 512.985 45.0894 510.005L43.0906 509.936ZM43.614 528.572L41.6227 528.759C41.9162 531.887 42.321 535.033 42.8534 538.159L44.825 537.823L46.7966 537.487C46.2824 534.468 45.8901 531.422 45.6052 528.385L43.614 528.572ZM46.7868 546.941L44.853 547.451C45.6712 550.552 46.6393 553.596 47.7752 556.541L49.6412 555.822L51.5072 555.102C50.4294 552.307 49.5053 549.404 48.7206 546.431L46.7868 546.941ZM53.5669 564.276L51.8184 565.246C53.3979 568.091 55.1867 570.783 57.2069 573.27L58.7593 572.009L60.3117 570.748C58.4533 568.46 56.793 565.965 55.3154 563.305L53.5669 564.276ZM65.3423 578.591L64.0899 580.15C66.5961 582.163 69.349 583.914 72.366 585.353L73.2268 583.548L74.0876 581.742C71.3581 580.441 68.867 578.857 66.5947 577.032L65.3423 578.591ZM82.0108 586.584L81.5643 588.534C84.567 589.222 87.7623 589.646 91.1594 589.782L91.2394 587.784L91.3194 585.785C88.1554 585.659 85.2061 585.264 82.4574 584.635L82.0108 586.584ZM100.562 587.447L100.774 589.436C102.326 589.27 103.913 589.052 105.537 588.78L105.206 586.808L104.875 584.835C103.328 585.095 101.82 585.302 100.351 585.458L100.562 587.447ZM105.206 586.808L105.537 588.78C107.446 588.46 109.28 588.109 111.04 587.729L110.618 585.774L110.197 583.819C108.499 584.185 106.726 584.525 104.875 584.835L105.206 586.808ZM121.157 582.868L121.811 584.758C125.72 583.405 129.134 581.87 132.09 580.188L131.1 578.449L130.111 576.711C127.396 578.257 124.21 579.695 120.502 580.978L121.157 582.868ZM139.717 571.803L141.184 573.162C144.161 569.95 146.053 566.484 146.994 562.947L145.061 562.433L143.129 561.918C142.368 564.778 140.817 567.673 138.25 570.444L139.717 571.803ZM144.836 551.647L146.751 551.072C145.622 547.311 143.556 543.84 140.869 540.921L139.398 542.276L137.926 543.631C140.242 546.146 141.981 549.094 142.92 552.222L144.836 551.647ZM130.58 535.955L131.386 534.124C127.818 532.552 123.885 531.723 119.853 531.913L119.948 533.911L120.042 535.909C123.401 535.75 126.72 536.439 129.774 537.785L130.58 535.955ZM109.607 537.037L108.593 535.313C106.97 536.267 105.387 537.431 103.862 538.816L105.206 540.296L106.551 541.777C107.881 540.569 109.243 539.571 110.62 538.761L109.607 537.037ZM105.206 540.296L103.862 538.816C102.625 539.939 101.464 541.116 100.384 542.338L101.883 543.662L103.382 544.987C104.364 543.875 105.421 542.803 106.551 541.777L105.206 540.296ZM96.5036 551.399L94.7365 550.462C93.1534 553.448 91.9795 556.58 91.2539 559.782L93.2044 560.224L95.1549 560.666C95.7993 557.823 96.8461 555.023 98.2707 552.335L96.5036 551.399ZM92.4732 569.612L90.4784 569.755C90.7162 573.059 91.4553 576.343 92.7303 579.525L94.5868 578.781L96.4433 578.037C95.3245 575.245 94.6767 572.366 94.468 569.468L92.4732 569.612ZM99.3341 586.901L97.7673 588.144C99.7272 590.614 102.087 592.942 104.86 595.084L106.082 593.501L107.305 591.918C104.774 589.963 102.649 587.861 100.901 585.658L99.3341 586.901ZM114.066 598.493L113.163 600.277C115.901 601.662 118.896 602.909 122.157 603.998L122.791 602.101L123.424 600.204C120.335 599.173 117.521 597.999 114.969 596.708L114.066 598.493ZM131.92 604.561L131.506 606.518C134.484 607.149 137.637 607.668 140.968 608.066L141.205 606.08L141.442 604.094C138.223 603.71 135.189 603.209 132.334 602.605L131.92 604.561ZM150.647 606.846L150.556 608.844C153.613 608.983 156.799 609.031 160.116 608.981L160.085 606.981L160.055 604.981C156.816 605.03 153.711 604.983 150.737 604.848L150.647 606.846ZM169.498 606.591L169.631 608.587C172.694 608.384 175.857 608.104 179.12 607.744L178.9 605.756L178.681 603.768C175.473 604.122 172.369 604.397 169.366 604.596L169.498 606.591ZM188.265 604.537L188.56 606.515C190.129 606.281 191.718 606.03 193.33 605.76L193 603.788L192.67 601.815C191.082 602.081 189.515 602.328 187.97 602.559L188.265 604.537Z" fill="#DD9219"/>
<path d="M876.794 140.808L877.125 138.835L876.794 140.808ZM876.794 94.2964L878.138 92.8158L876.794 94.2964ZM787.372 158.95C786.73 158.05 786.939 156.801 787.838 156.16L802.49 145.704C803.389 145.062 804.638 145.271 805.28 146.17C805.921 147.069 805.713 148.318 804.813 148.96L791.79 158.254L801.084 171.278C801.726 172.177 801.517 173.426 800.618 174.067C799.719 174.709 798.47 174.5 797.828 173.601L787.372 158.95ZM937.762 50L939.744 49.735C939.945 51.2408 940.127 52.8053 940.286 54.4199L938.295 54.6154L936.305 54.8109C936.151 53.2418 935.974 51.7237 935.779 50.265L937.762 50ZM938.909 63.9358L940.908 63.8667C941.014 66.9261 941.032 70.0901 940.944 73.314L938.944 73.2593L936.945 73.2047C937.031 70.0665 937.014 66.9852 936.911 64.0048L938.909 63.9358ZM938.386 82.5722L940.377 82.759C940.084 85.887 939.679 89.0331 939.147 92.1588L937.175 91.823L935.203 91.4872C935.718 88.468 936.11 85.4217 936.395 82.3854L938.386 82.5722ZM935.213 100.941L937.147 101.451C936.329 104.552 935.361 107.596 934.225 110.541L932.359 109.822L930.493 109.102C931.571 106.307 932.495 103.404 933.279 100.431L935.213 100.941ZM928.433 118.276L930.182 119.246C928.602 122.091 926.813 124.783 924.793 127.27L923.241 126.009L921.688 124.748C923.547 122.46 925.207 119.965 926.685 117.305L928.433 118.276ZM916.658 132.591L917.91 134.15C915.404 136.163 912.651 137.914 909.634 139.353L908.773 137.548L907.912 135.742C910.642 134.441 913.133 132.857 915.405 131.032L916.658 132.591ZM899.989 140.584L900.436 142.534C897.433 143.222 894.238 143.646 890.841 143.782L890.761 141.784L890.681 139.785C893.845 139.659 896.794 139.264 899.543 138.635L899.989 140.584ZM881.438 141.447L881.226 143.436C879.674 143.27 878.087 143.052 876.463 142.78L876.794 140.808L877.125 138.835C878.672 139.095 880.18 139.302 881.649 139.458L881.438 141.447ZM876.794 140.808L876.463 142.78C874.554 142.46 872.72 142.109 870.96 141.729L871.382 139.774L871.803 137.819C873.501 138.185 875.274 138.525 877.125 138.835L876.794 140.808ZM860.843 136.868L860.189 138.758C856.28 137.405 852.866 135.87 849.91 134.188L850.9 132.449L851.889 130.711C854.604 132.257 857.79 133.695 861.498 134.978L860.843 136.868ZM842.283 125.803L840.816 127.162C837.839 123.95 835.947 120.484 835.006 116.947L836.939 116.433L838.871 115.918C839.632 118.778 841.183 121.673 843.75 124.444L842.283 125.803ZM837.164 105.647L835.249 105.072C836.378 101.311 838.444 97.8398 841.131 94.9213L842.602 96.276L844.074 97.6307C841.758 100.146 840.019 103.094 839.08 106.222L837.164 105.647ZM851.42 89.9546L850.614 88.1244C854.182 86.5524 858.115 85.723 862.147 85.9134L862.052 87.9111L861.958 89.9089C858.599 89.7503 855.28 90.4394 852.226 91.7848L851.42 89.9546ZM872.393 91.0367L873.407 89.3126C875.03 90.2671 876.613 91.4306 878.138 92.8158L876.794 94.2964L875.449 95.7769C874.119 94.5689 872.757 93.5705 871.38 92.7607L872.393 91.0367ZM876.794 94.2964L878.138 92.8158C879.375 93.9392 880.536 95.1157 881.616 96.3381L880.117 97.6623L878.618 98.9865C877.636 97.875 876.579 96.8027 875.449 95.7769L876.794 94.2964ZM885.496 105.399L887.263 104.462C888.847 107.448 890.021 110.58 890.746 113.782L888.796 114.224L886.845 114.666C886.201 111.823 885.154 109.023 883.729 106.335L885.496 105.399ZM889.527 123.612L891.522 123.755C891.284 127.059 890.545 130.343 889.27 133.525L887.413 132.781L885.557 132.037C886.675 129.245 887.323 126.366 887.532 123.468L889.527 123.612ZM882.666 140.901L884.233 142.144C882.273 144.614 879.913 146.942 877.14 149.084L875.918 147.501L874.695 145.918C877.226 143.963 879.351 141.861 881.099 139.658L882.666 140.901ZM867.934 152.493L868.837 154.277C866.099 155.662 863.104 156.909 859.843 157.998L859.209 156.101L858.576 154.204C861.665 153.173 864.479 151.999 867.031 150.708L867.934 152.493ZM850.08 158.561L850.494 160.518C847.516 161.149 844.363 161.668 841.032 162.066L840.795 160.08L840.558 158.094C843.777 157.71 846.811 157.209 849.666 156.605L850.08 158.561ZM831.353 160.846L831.444 162.844C828.387 162.983 825.201 163.031 821.884 162.981L821.915 160.981L821.945 158.981C825.184 159.03 828.289 158.983 831.263 158.848L831.353 160.846ZM812.502 160.591L812.369 162.587C809.306 162.384 806.143 162.104 802.88 161.744L803.1 159.756L803.319 157.768C806.527 158.122 809.631 158.397 812.634 158.596L812.502 160.591ZM793.735 158.537L793.44 160.515C791.871 160.281 790.282 160.03 788.67 159.76L789 157.788L789.33 155.815C790.918 156.081 792.485 156.328 794.03 156.559L793.735 158.537Z" fill="#DD9219"/>
<path d="M896.112 25L890.016 17.536V25H886.656V8.248H890.016V15.76L896.112 8.248H900.168L893.256 16.552L900.36 25H896.112ZM905.69 7.24V25H902.33V7.24H905.69ZM910.474 10.12C909.882 10.12 909.386 9.936 908.986 9.568C908.602 9.184 908.41 8.712 908.41 8.152C908.41 7.592 908.602 7.128 908.986 6.76C909.386 6.376 909.882 6.184 910.474 6.184C911.066 6.184 911.554 6.376 911.938 6.76C912.338 7.128 912.538 7.592 912.538 8.152C912.538 8.712 912.338 9.184 911.938 9.568C911.554 9.936 911.066 10.12 910.474 10.12ZM912.13 11.704V25H908.77V11.704H912.13ZM923.081 25L918.569 19.336V25H915.209V7.24H918.569V17.344L923.033 11.704H927.401L921.545 18.376L927.449 25H923.081ZM940.368 25.216C939.088 25.216 937.936 24.936 936.912 24.376C935.888 23.8 935.08 22.992 934.488 21.952C933.912 20.912 933.624 19.712 933.624 18.352C933.624 16.992 933.92 15.792 934.512 14.752C935.12 13.712 935.944 12.912 936.984 12.352C938.024 11.776 939.184 11.488 940.464 11.488C941.744 11.488 942.904 11.776 943.944 12.352C944.984 12.912 945.8 13.712 946.392 14.752C947 15.792 947.304 16.992 947.304 18.352C947.304 19.712 946.992 20.912 946.368 21.952C945.76 22.992 944.928 23.8 943.872 24.376C942.832 24.936 941.664 25.216 940.368 25.216ZM940.368 22.288C940.976 22.288 941.544 22.144 942.072 21.856C942.616 21.552 943.048 21.104 943.368 20.512C943.688 19.92 943.848 19.2 943.848 18.352C943.848 17.088 943.512 16.12 942.84 15.448C942.184 14.76 941.376 14.416 940.416 14.416C939.456 14.416 938.648 14.76 937.992 15.448C937.352 16.12 937.032 17.088 937.032 18.352C937.032 19.616 937.344 20.592 937.968 21.28C938.608 21.952 939.408 22.288 940.368 22.288ZM952.889 13.624C953.321 13.016 953.913 12.512 954.665 12.112C955.433 11.696 956.305 11.488 957.281 11.488C958.417 11.488 959.441 11.768 960.353 12.328C961.281 12.888 962.009 13.688 962.537 14.728C963.081 15.752 963.353 16.944 963.353 18.304C963.353 19.664 963.081 20.872 962.537 21.928C962.009 22.968 961.281 23.776 960.353 24.352C959.441 24.928 958.417 25.216 957.281 25.216C956.305 25.216 955.441 25.016 954.689 24.616C953.953 24.216 953.353 23.712 952.889 23.104V31.336H949.529V11.704H952.889V13.624ZM959.921 18.304C959.921 17.504 959.753 16.816 959.417 16.24C959.097 15.648 958.665 15.2 958.121 14.896C957.593 14.592 957.017 14.44 956.393 14.44C955.785 14.44 955.209 14.6 954.665 14.92C954.137 15.224 953.705 15.672 953.369 16.264C953.049 16.856 952.889 17.552 952.889 18.352C952.889 19.152 953.049 19.848 953.369 20.44C953.705 21.032 954.137 21.488 954.665 21.808C955.209 22.112 955.785 22.264 956.393 22.264C957.017 22.264 957.593 22.104 958.121 21.784C958.665 21.464 959.097 21.008 959.417 20.416C959.753 19.824 959.921 19.12 959.921 18.304Z" fill="#DD9219"/>
<path d="M981.25 22.125C981.569 22.125 981.836 22.017 982.052 21.801C982.268 21.585 982.376 21.318 982.375 21V16.5C982.375 16.1812 982.267 15.9142 982.051 15.699C981.835 15.4837 981.568 15.3757 981.25 15.375C980.932 15.3742 980.665 15.4822 980.449 15.699C980.233 15.9157 980.125 16.1827 980.125 16.5V21C980.125 21.3187 980.233 21.5861 980.449 21.8021C980.665 22.0181 980.932 22.1257 981.25 22.125ZM981.25 13.125C981.569 13.125 981.836 13.017 982.052 12.801C982.268 12.585 982.376 12.318 982.375 12C982.374 11.682 982.266 11.415 982.051 11.199C981.836 10.983 981.569 10.875 981.25 10.875C980.931 10.875 980.664 10.983 980.449 11.199C980.234 11.415 980.126 11.682 980.125 12C980.124 12.318 980.232 12.5854 980.449 12.8021C980.666 13.0189 980.933 13.1265 981.25 13.125ZM981.25 27.75C979.694 27.75 978.231 27.4545 976.863 26.8635C975.494 26.2725 974.303 25.4711 973.291 24.4594C972.278 23.4476 971.477 22.257 970.887 20.8875C970.296 19.518 970.001 18.0555 970 16.5C969.999 14.9445 970.295 13.482 970.887 12.1125C971.478 10.743 972.28 9.55237 973.291 8.54062C974.302 7.52887 975.492 6.7275 976.863 6.1365C978.233 5.5455 979.695 5.25 981.25 5.25C982.805 5.25 984.267 5.5455 985.637 6.1365C987.008 6.7275 988.198 7.52887 989.209 8.54062C990.22 9.55237 991.022 10.743 991.615 12.1125C992.207 13.482 992.502 14.9445 992.5 16.5C992.498 18.0555 992.202 19.518 991.614 20.8875C991.025 22.257 990.223 23.4476 989.209 24.4594C988.195 25.4711 987.005 26.2729 985.637 26.8646C984.27 27.4564 982.808 27.7515 981.25 27.75Z" fill="#DD9219"/>
<defs>
<clipPath id="clip0_2516_7304">
<rect width="580" height="646" fill="white" transform="translate(215 33)"/>
</clipPath>
</defs>
</svg>
