<svg width="15" height="12" viewBox="0 0 15 12" fill="none"
    xmlns="http://www.w3.org/2000/svg">
    <path d="M12.7578 3.59375C13.0859 3.68229 13.3854 3.81771 13.6562 4C13.9271 4.18229 14.1641 4.40365 14.3672 4.66406C14.5703 4.92448 14.7266 5.20833 14.8359 5.51562C14.9453 5.82292 15 6.15104 15 6.5C15 6.86458 14.9375 7.21094 14.8125 7.53906C14.6875 7.86719 14.513 8.16406 14.2891 8.42969C14.0651 8.69531 13.8021 8.91667 13.5 9.09375C13.1979 9.27083 12.8646 9.39323 12.5 9.46094V8.4375C12.7188 8.38021 12.9193 8.29167 13.1016 8.17188C13.2839 8.05208 13.4427 7.90365 13.5781 7.72656C13.7135 7.54948 13.8177 7.35938 13.8906 7.15625C13.9635 6.95312 14 6.73438 14 6.5C14 6.21354 13.9479 5.95052 13.8438 5.71094C13.7396 5.47135 13.5911 5.26042 13.3984 5.07812C13.2057 4.89583 12.9896 4.75521 12.75 4.65625C12.5104 4.55729 12.2448 4.50521 11.9531 4.5C11.8906 4.07292 11.7578 3.67708 11.5547 3.3125C11.3516 2.94792 11.0964 2.63021 10.7891 2.35938C10.4818 2.08854 10.1328 1.8776 9.74219 1.72656C9.35156 1.57552 8.9375 1.5 8.5 1.5C8.09896 1.5 7.71875 1.5651 7.35938 1.69531C7 1.82552 6.66927 2.00521 6.36719 2.23438C6.0651 2.46354 5.8099 2.73958 5.60156 3.0625C5.39323 3.38542 5.23438 3.73698 5.125 4.11719C4.89583 3.91927 4.64323 3.76823 4.36719 3.66406C4.09115 3.5599 3.80208 3.50521 3.5 3.5C3.15625 3.5 2.83333 3.5651 2.53125 3.69531C2.22917 3.82552 1.96354 4.0026 1.73438 4.22656C1.50521 4.45052 1.32552 4.71615 1.19531 5.02344C1.0651 5.33073 1 5.65625 1 6C1 6.25 1.03385 6.48958 1.10156 6.71875C1.16927 6.94792 1.27083 7.16406 1.40625 7.36719C1.54167 7.57031 1.70052 7.7474 1.88281 7.89844C2.0651 8.04948 2.27083 8.17969 2.5 8.28906V9.35156C2.13021 9.24219 1.79167 9.07812 1.48438 8.85938C1.17708 8.64062 0.914062 8.38542 0.695312 8.09375C0.476562 7.80208 0.307292 7.47656 0.1875 7.11719C0.0677083 6.75781 0.00520833 6.38542 0 6C0 5.51562 0.0911458 5.0625 0.273438 4.64062C0.455729 4.21875 0.705729 3.84896 1.02344 3.53125C1.34115 3.21354 1.71094 2.96354 2.13281 2.78125C2.55469 2.59896 3.01042 2.50521 3.5 2.5C3.88542 2.5 4.26823 2.5651 4.64844 2.69531C4.85156 2.35677 5.09115 2.05208 5.36719 1.78125C5.64323 1.51042 5.94792 1.28125 6.28125 1.09375C6.61458 0.90625 6.96875 0.760417 7.34375 0.65625C7.71875 0.552083 8.10417 0.5 8.5 0.5C8.98438 0.5 9.44792 0.575521 9.89062 0.726562C10.3333 0.877604 10.7448 1.08854 11.125 1.35938C11.5052 1.63021 11.8333 1.95573 12.1094 2.33594C12.3854 2.71615 12.6016 3.13542 12.7578 3.59375ZM7.04688 9.82031C7.21354 9.91927 7.29688 10.0625 7.29688 10.25C7.29688 10.3906 7.2474 10.5078 7.14844 10.6016C7.04948 10.6953 6.93229 10.7448 6.79688 10.75C6.73438 10.75 6.66667 10.737 6.59375 10.7109C6.52083 10.6849 6.45052 10.6484 6.38281 10.6016C6.3151 10.5547 6.2474 10.513 6.17969 10.4766C6.11198 10.4401 6.05208 10.4036 6 10.3672C6 10.4661 6.0026 10.5807 6.00781 10.7109C6.01302 10.8411 6.00521 10.9635 5.98438 11.0781C5.96354 11.1927 5.91667 11.2917 5.84375 11.375C5.77083 11.4583 5.65625 11.5 5.5 11.5C5.34375 11.5 5.22917 11.4609 5.15625 11.3828C5.08333 11.3047 5.03646 11.2057 5.01562 11.0859C4.99479 10.9661 4.98438 10.8411 4.98438 10.7109C4.98438 10.5807 4.98958 10.4661 5 10.3672C4.94792 10.3984 4.89062 10.4349 4.82812 10.4766C4.76562 10.5182 4.69792 10.5599 4.625 10.6016C4.55208 10.6432 4.47917 10.6771 4.40625 10.7031C4.33333 10.7292 4.26562 10.7448 4.20312 10.75C4.06771 10.75 3.95052 10.7031 3.85156 10.6094C3.7526 10.5156 3.70312 10.3958 3.70312 10.25C3.70312 10.0625 3.78646 9.91927 3.95312 9.82031L4.5 9.5L3.95312 9.17969C3.78646 9.08073 3.70312 8.9375 3.70312 8.75C3.70312 8.61458 3.75 8.4974 3.84375 8.39844C3.9375 8.29948 4.05469 8.25 4.19531 8.25C4.26302 8.25 4.33333 8.26302 4.40625 8.28906C4.47917 8.3151 4.54948 8.35156 4.61719 8.39844C4.6849 8.44531 4.7526 8.48698 4.82031 8.52344C4.88802 8.5599 4.94792 8.59635 5 8.63281C5 8.53385 4.9974 8.41927 4.99219 8.28906C4.98698 8.15885 4.99219 8.03646 5.00781 7.92188C5.02344 7.80729 5.07292 7.70833 5.15625 7.625C5.23958 7.54167 5.35417 7.5 5.5 7.5C5.65625 7.5 5.76823 7.53906 5.83594 7.61719C5.90365 7.69531 5.95052 7.79427 5.97656 7.91406C6.0026 8.03385 6.01302 8.15885 6.00781 8.28906C6.0026 8.41927 6 8.53385 6 8.63281C6.05208 8.60156 6.10938 8.5651 6.17188 8.52344C6.23438 8.48177 6.30208 8.4401 6.375 8.39844C6.44792 8.35677 6.52083 8.32292 6.59375 8.29688C6.66667 8.27083 6.73698 8.25521 6.80469 8.25C6.9401 8.25 7.05469 8.29948 7.14844 8.39844C7.24219 8.4974 7.29167 8.61458 7.29688 8.75C7.29688 8.9375 7.21354 9.08073 7.04688 9.17969L6.5 9.5L7.04688 9.82031ZM11.0469 8.82031C11.2135 8.91927 11.2969 9.0625 11.2969 9.25C11.2969 9.39062 11.2474 9.50781 11.1484 9.60156C11.0495 9.69531 10.9323 9.74479 10.7969 9.75C10.7344 9.75 10.6667 9.73698 10.5938 9.71094C10.5208 9.6849 10.4505 9.64844 10.3828 9.60156C10.3151 9.55469 10.2474 9.51302 10.1797 9.47656C10.112 9.4401 10.0521 9.40365 10 9.36719C10 9.46615 10.0026 9.58073 10.0078 9.71094C10.013 9.84115 10.0052 9.96354 9.98438 10.0781C9.96354 10.1927 9.91667 10.2917 9.84375 10.375C9.77083 10.4583 9.65625 10.5 9.5 10.5C9.34375 10.5 9.22917 10.4609 9.15625 10.3828C9.08333 10.3047 9.03646 10.2057 9.01562 10.0859C8.99479 9.96615 8.98438 9.84115 8.98438 9.71094C8.98438 9.58073 8.98958 9.46615 9 9.36719C8.94792 9.39844 8.89062 9.4349 8.82812 9.47656C8.76562 9.51823 8.69792 9.5599 8.625 9.60156C8.55208 9.64323 8.47917 9.67708 8.40625 9.70312C8.33333 9.72917 8.26562 9.74479 8.20312 9.75C8.06771 9.75 7.95052 9.70312 7.85156 9.60938C7.7526 9.51562 7.70312 9.39583 7.70312 9.25C7.70312 9.0625 7.78646 8.91927 7.95312 8.82031L8.5 8.5L7.95312 8.17969C7.78646 8.08073 7.70312 7.9375 7.70312 7.75C7.70312 7.61458 7.75 7.4974 7.84375 7.39844C7.9375 7.29948 8.05469 7.25 8.19531 7.25C8.26302 7.25 8.33333 7.26302 8.40625 7.28906C8.47917 7.3151 8.54948 7.35156 8.61719 7.39844C8.6849 7.44531 8.7526 7.48698 8.82031 7.52344C8.88802 7.5599 8.94792 7.59635 9 7.63281C9 7.53385 8.9974 7.41927 8.99219 7.28906C8.98698 7.15885 8.99219 7.03646 9.00781 6.92188C9.02344 6.80729 9.07292 6.70833 9.15625 6.625C9.23958 6.54167 9.35417 6.5 9.5 6.5C9.65625 6.5 9.76823 6.53906 9.83594 6.61719C9.90365 6.69531 9.95052 6.79427 9.97656 6.91406C10.0026 7.03385 10.013 7.15885 10.0078 7.28906C10.0026 7.41927 10 7.53385 10 7.63281C10.0521 7.60156 10.1094 7.5651 10.1719 7.52344C10.2344 7.48177 10.3021 7.4401 10.375 7.39844C10.4479 7.35677 10.5208 7.32292 10.5938 7.29688C10.6667 7.27083 10.737 7.25521 10.8047 7.25C10.9401 7.25 11.0547 7.29948 11.1484 7.39844C11.2422 7.4974 11.2917 7.61458 11.2969 7.75C11.2969 7.9375 11.2135 8.08073 11.0469 8.17969L10.5 8.5L11.0469 8.82031Z" fill="#381207" />
</svg>