<svg width="40" height="39" viewBox="0 0 40 39" fill="none"
    xmlns="http://www.w3.org/2000/svg">
    <path d="M18.0979 1.9791C18.6966 0.136477 21.3034 0.136481 21.9021 1.9791L25.1638 12.0176C25.4316 12.8417 26.1995 13.3996 27.0659 13.3996H37.621C39.5585 13.3996 40.364 15.8788 38.7966 17.0176L30.2574 23.2217C29.5564 23.731 29.2631 24.6338 29.5308 25.4578L32.7925 35.4963C33.3912 37.3389 31.2823 38.8712 29.7148 37.7324L21.1756 31.5283C20.4746 31.019 19.5254 31.019 18.8244 31.5283L10.2852 37.7324C8.71774 38.8712 6.60878 37.3389 7.20748 35.4963L10.4692 25.4578C10.7369 24.6338 10.4436 23.731 9.74265 23.2217L1.20338 17.0176C-0.364047 15.8788 0.441508 13.3996 2.37895 13.3996H12.9341C13.8005 13.3996 14.5684 12.8417 14.8362 12.0176L18.0979 1.9791Z" fill="#EDE4DC"/>
</svg>
