<svg width="50" height="51" viewBox="0 0 50 51" fill="none"
    xmlns="http://www.w3.org/2000/svg">
    <path d="M9.554 37.25L7.8855 38.9185C7.44781 39.3588 7.20214 39.9544 7.20214 40.5752C7.20214 41.1961 7.44781 41.7917 7.8855 42.232C8.3258 42.6697 8.92141 42.9154 9.54225 42.9154C10.1631 42.9154 10.7587 42.6697 11.199 42.232L12.8675 40.5635C13.2525 40.1139 13.4537 39.5357 13.4308 38.9442C13.408 38.3528 13.1628 37.7917 12.7443 37.3732C12.3258 36.9547 11.7647 36.7095 11.1733 36.6867C10.5818 36.6638 10.0036 36.865 9.554 37.25ZM8.05 25.5C8.05 24.8767 7.80241 24.279 7.3617 23.8383C6.92099 23.3976 6.32326 23.15 5.7 23.15H3.35C2.72674 23.15 2.12901 23.3976 1.6883 23.8383C1.24759 24.279 1 24.8767 1 25.5C1 26.1233 1.24759 26.721 1.6883 27.1617C2.12901 27.6024 2.72674 27.85 3.35 27.85H5.7C6.32326 27.85 6.92099 27.6024 7.3617 27.1617C7.80241 26.721 8.05 26.1233 8.05 25.5ZM24.5 9.05C25.1233 9.05 25.721 8.80241 26.1617 8.3617C26.6024 7.92099 26.85 7.32326 26.85 6.7V4.35C26.85 3.72674 26.6024 3.12901 26.1617 2.6883C25.721 2.24759 25.1233 2 24.5 2C23.8767 2 23.279 2.24759 22.8383 2.6883C22.3976 3.12901 22.15 3.72674 22.15 4.35V6.7C22.15 7.32326 22.3976 7.92099 22.8383 8.3617C23.279 8.80241 23.8767 9.05 24.5 9.05ZM9.554 13.8675C9.99171 14.3016 10.5825 14.5464 11.199 14.549C11.5083 14.5508 11.8149 14.4915 12.1012 14.3746C12.3875 14.2576 12.6479 14.0853 12.8675 13.8675C13.3052 13.4272 13.5509 12.8316 13.5509 12.2107C13.5509 11.5899 13.3052 10.9943 12.8675 10.554L11.199 8.8855C10.7494 8.50051 10.1712 8.29933 9.57972 8.32218C8.98829 8.34502 8.42725 8.5902 8.00873 9.00873C7.5902 9.42725 7.34502 9.98829 7.32218 10.5797C7.29933 11.1712 7.50051 11.7494 7.8855 12.199L9.554 13.8675ZM37.754 14.549C38.3705 14.5464 38.9613 14.3016 39.399 13.8675L41.0675 12.199C41.3135 11.9883 41.5133 11.7291 41.6544 11.4375C41.7954 11.146 41.8747 10.8284 41.8872 10.5048C41.8997 10.1811 41.8451 9.85841 41.727 9.55684C41.6088 9.25528 41.4296 8.98139 41.2006 8.75237C40.9716 8.52335 40.6977 8.34415 40.3962 8.226C40.0946 8.10786 39.7719 8.05332 39.4482 8.06582C39.1246 8.07832 38.807 8.15759 38.5155 8.29865C38.2239 8.4397 37.9647 8.6395 37.754 8.8855L36.25 10.554C35.8123 10.9943 35.5666 11.5899 35.5666 12.2107C35.5666 12.8316 35.8123 13.4272 36.25 13.8675C36.6643 14.2796 37.2173 14.5226 37.801 14.549H37.754ZM45.65 23.15H43.3C42.6767 23.15 42.079 23.3976 41.6383 23.8383C41.1976 24.279 40.95 24.8767 40.95 25.5C40.95 26.1233 41.1976 26.721 41.6383 27.1617C42.079 27.6024 42.6767 27.85 43.3 27.85H45.65C46.2733 27.85 46.871 27.6024 47.3117 27.1617C47.7524 26.721 48 26.1233 48 25.5C48 24.8767 47.7524 24.279 47.3117 23.8383C46.871 23.3976 46.2733 23.15 45.65 23.15ZM24.5 41.95C23.8767 41.95 23.279 42.1976 22.8383 42.6383C22.3976 43.079 22.15 43.6767 22.15 44.3V46.65C22.15 47.2733 22.3976 47.871 22.8383 48.3117C23.279 48.7524 23.8767 49 24.5 49C25.1233 49 25.721 48.7524 26.1617 48.3117C26.6024 47.871 26.85 47.2733 26.85 46.65V44.3C26.85 43.6767 26.6024 43.079 26.1617 42.6383C25.721 42.1976 25.1233 41.95 24.5 41.95ZM39.446 37.25C38.9995 37.0017 38.4843 36.9056 37.9783 36.9763C37.4724 37.047 37.0032 37.2807 36.642 37.642C36.2807 38.0032 36.047 38.4724 35.9763 38.9783C35.9056 39.4843 36.0017 39.9995 36.25 40.446L37.9185 42.1145C38.3588 42.5522 38.9544 42.7979 39.5752 42.7979C40.1961 42.7979 40.7917 42.5522 41.232 42.1145C41.6697 41.6742 41.9154 41.0786 41.9154 40.4577C41.9154 39.8369 41.6697 39.2413 41.232 38.801L39.446 37.25ZM24.5 12.575C21.9437 12.575 19.4448 13.333 17.3193 14.7533C15.1937 16.1735 13.5371 18.1921 12.5589 20.5538C11.5806 22.9156 11.3246 25.5143 11.8233 28.0215C12.3221 30.5287 13.5531 32.8318 15.3606 34.6394C17.1682 36.4469 19.4713 37.6779 21.9785 38.1767C24.4857 38.6754 27.0844 38.4194 29.4462 37.4411C31.8079 36.4629 33.8265 34.8062 35.2467 32.6807C36.667 30.5552 37.425 28.0563 37.425 25.5C37.4188 22.074 36.0551 18.7901 33.6325 16.3675C31.2099 13.9449 27.926 12.5812 24.5 12.575ZM24.5 33.725C22.8732 33.725 21.283 33.2426 19.9304 32.3388C18.5778 31.4351 17.5236 30.1505 16.9011 28.6476C16.2786 27.1446 16.1157 25.4909 16.433 23.8954C16.7504 22.2999 17.5338 20.8343 18.684 19.684C19.8343 18.5338 21.2999 17.7504 22.8954 17.433C24.4909 17.1157 26.1446 17.2786 27.6476 17.9011C29.1505 18.5236 30.4351 19.5778 31.3388 20.9304C32.2426 22.283 32.725 23.8732 32.725 25.5C32.725 27.6814 31.8584 29.7735 30.316 31.316C28.7735 32.8584 26.6814 33.725 24.5 33.725Z" fill="#381207" />
</svg>
