<svg width="50" height="50" viewBox="0 0 50 50" fill="none"
    xmlns="http://www.w3.org/2000/svg">
    <path fillRule="evenodd" clipRule="evenodd" d="M8.33464 25.0013C8.33403 22.1006 9.09051 19.2499 10.5293 16.7311C11.9681 14.2123 14.0393 12.1127 16.5383 10.6397C19.0372 9.16677 21.8774 8.37154 24.7778 8.33265C27.6783 8.29376 30.5388 9.01256 33.0763 10.418H25.0013C24.4488 10.418 23.9189 10.6375 23.5282 11.0282C23.1375 11.4189 22.918 11.9488 22.918 12.5013C22.918 13.0538 23.1375 13.5837 23.5282 13.9744C23.9189 14.3651 24.4488 14.5846 25.0013 14.5846H37.5013C37.6624 14.5846 37.8187 14.5673 37.9701 14.5326C38.5117 15.2034 39.0013 15.9152 39.4388 16.668H25.0013C24.4488 16.668 23.9189 16.8875 23.5282 17.2782C23.1375 17.6689 22.918 18.1988 22.918 18.7513C22.918 19.3038 23.1375 19.8337 23.5282 20.2244C23.9189 20.6151 24.4488 20.8346 25.0013 20.8346H41.143C41.3194 21.5152 41.4513 22.2096 41.5388 22.918H25.0013C24.4488 22.918 23.9189 23.1375 23.5282 23.5282C23.1375 23.9189 22.918 24.4488 22.918 25.0013C22.918 25.5538 23.1375 26.0837 23.5282 26.4744C23.9189 26.8651 24.4488 27.0846 25.0013 27.0846H41.5388C41.4512 27.7868 41.319 28.4826 41.143 29.168H25.0013C24.4488 29.168 23.9189 29.3875 23.5282 29.7782C23.1375 30.1689 22.918 30.6988 22.918 31.2513C22.918 31.8038 23.1375 32.3337 23.5282 32.7244C23.9189 33.1151 24.4488 33.3346 25.0013 33.3346H39.4388C39.0054 34.0835 38.5143 34.7974 37.9701 35.4701C37.8163 35.435 37.659 35.4175 37.5013 35.418H25.0013C24.4488 35.418 23.9189 35.6375 23.5282 36.0282C23.1375 36.4189 22.918 36.9488 22.918 37.5013C22.918 38.0538 23.1375 38.5837 23.5282 38.9744C23.9189 39.3651 24.4488 39.5846 25.0013 39.5846H33.0763C30.5388 40.99 27.6783 41.7088 24.7778 41.6699C21.8774 41.6311 19.0372 40.8358 16.5383 39.3629C14.0393 37.8899 11.9681 35.7903 10.5293 33.2715C9.09051 30.7527 8.33403 27.9021 8.33464 25.0013ZM45.8346 25.0013C45.8346 13.4951 36.5075 4.16797 25.0013 4.16797C13.4951 4.16797 4.16797 13.4951 4.16797 25.0013C4.16797 36.5075 13.4951 45.8346 25.0013 45.8346C36.5075 45.8346 45.8346 36.5075 45.8346 25.0013Z" fill="#381207" />
</svg>
