<svg width="32" height="32" viewBox="0 0 32 32" fill="none"
    xmlns="http://www.w3.org/2000/svg">
    <path d="M22.6641 26.6654H29.3307V23.9987C29.3307 23.1674 29.0716 22.3568 28.5896 21.6795C28.1075 21.0023 27.4265 20.492 26.6411 20.2197C25.8556 19.9474 25.0049 19.9265 24.2071 20.1601C23.4093 20.3936 22.704 20.8699 22.1894 21.5227M22.6641 26.6654H9.33073M22.6641 26.6654V23.9987C22.6641 23.124 22.4961 22.288 22.1894 21.5227M22.1894 21.5227C21.6943 20.2853 20.8397 19.2246 19.7361 18.4775C18.6324 17.7304 17.3302 17.3311 15.9974 17.3311C14.6646 17.3311 13.3624 17.7304 12.2587 18.4775C11.1551 19.2246 10.3005 20.2853 9.8054 21.5227M9.33073 26.6654H2.66406V23.9987C2.66412 23.1674 2.92318 22.3568 3.40521 21.6795C3.88725 21.0023 4.56831 20.492 5.35373 20.2197C6.13915 19.9474 6.9899 19.9265 7.78771 20.1601C8.58553 20.3936 9.29077 20.8699 9.8054 21.5227M9.33073 26.6654V23.9987C9.33073 23.124 9.49873 22.288 9.8054 21.5227M19.9974 9.33203C19.9974 10.3929 19.576 11.4103 18.8258 12.1605C18.0757 12.9106 17.0583 13.332 15.9974 13.332C14.9365 13.332 13.9191 12.9106 13.169 12.1605C12.4188 11.4103 11.9974 10.3929 11.9974 9.33203C11.9974 8.27117 12.4188 7.25375 13.169 6.5036C13.9191 5.75346 14.9365 5.33203 15.9974 5.33203C17.0583 5.33203 18.0757 5.75346 18.8258 6.5036C19.576 7.25375 19.9974 8.27117 19.9974 9.33203ZM27.9974 13.332C27.9974 14.0393 27.7164 14.7176 27.2163 15.2176C26.7162 15.7177 26.038 15.9987 25.3307 15.9987C24.6235 15.9987 23.9452 15.7177 23.4451 15.2176C22.945 14.7176 22.6641 14.0393 22.6641 13.332C22.6641 12.6248 22.945 11.9465 23.4451 11.4464C23.9452 10.9463 24.6235 10.6654 25.3307 10.6654C26.038 10.6654 26.7162 10.9463 27.2163 11.4464C27.7164 11.9465 27.9974 12.6248 27.9974 13.332ZM9.33073 13.332C9.33073 14.0393 9.04978 14.7176 8.54968 15.2176C8.04958 15.7177 7.37131 15.9987 6.66406 15.9987C5.95682 15.9987 5.27854 15.7177 4.77844 15.2176C4.27835 14.7176 3.9974 14.0393 3.9974 13.332C3.9974 12.6248 4.27835 11.9465 4.77844 11.4464C5.27854 10.9463 5.95682 10.6654 6.66406 10.6654C7.37131 10.6654 8.04958 10.9463 8.54968 11.4464C9.04978 11.9465 9.33073 12.6248 9.33073 13.332Z" stroke="#A6A643" stroke-width="3" stroke-linecap="round" stroke-linejoin="round"/>
</svg>