<svg width="15" height="14" viewBox="0 0 15 14" fill="none"
    xmlns="http://www.w3.org/2000/svg">
    <path d="M14.7693 4.08375L13.2673 3.11625C13.0181 2.35692 12.5253 1.69401 11.8602 1.22361C11.1951 0.753212 10.3923 0.499763 9.56818 0.5H9.54943C7.42087 0.51 5.68866 2.21688 5.68866 4.30563V5.53937L0.233419 11.8675L0.226953 11.875C0.105205 12.022 0.0288628 12.1992 0.00671133 12.3863C-0.0154402 12.5734 0.017499 12.7627 0.101739 12.9325C0.185978 13.1022 0.318095 13.2456 0.482887 13.346C0.647679 13.4464 0.838449 13.4998 1.03325 13.5H6.7232C8.50607 13.4982 10.2154 12.8128 11.4761 11.5942C12.7367 10.3756 13.4458 8.72335 13.4477 7V5.7675L14.7693 4.91625C14.8403 4.87061 14.8984 4.80873 14.9387 4.73611C14.9789 4.66349 15 4.58238 15 4.5C15 4.41762 14.9789 4.33651 14.9387 4.26389C14.8984 4.19127 14.8403 4.12939 14.7693 4.08375ZM7.63812 7.82L3.7586 12.32C3.71562 12.3719 3.66236 12.415 3.60193 12.4468C3.54151 12.4785 3.47514 12.4983 3.40671 12.505C3.33827 12.5117 3.26915 12.5051 3.20338 12.4856C3.13761 12.4662 3.07652 12.4342 3.02367 12.3917C2.97083 12.3491 2.9273 12.2968 2.89563 12.2378C2.86395 12.1788 2.84477 12.1142 2.83921 12.048C2.83365 11.9817 2.84182 11.915 2.86324 11.8518C2.88466 11.7887 2.91889 11.7302 2.96395 11.68L6.84346 7.18C6.88645 7.1281 6.93971 7.085 7.00013 7.05324C7.06056 7.02147 7.12693 7.00167 7.19536 6.995C7.2638 6.98832 7.33292 6.99491 7.39869 7.01437C7.46446 7.03383 7.52555 7.06578 7.5784 7.10834C7.63124 7.1509 7.67477 7.20321 7.70644 7.26223C7.73812 7.32125 7.75729 7.38578 7.76286 7.45205C7.76842 7.51831 7.76025 7.58499 7.73883 7.64817C7.71741 7.71135 7.68317 7.76976 7.63812 7.82ZM10.0854 4.5C9.93199 4.5 9.78197 4.45601 9.65438 4.3736C9.52678 4.29119 9.42733 4.17406 9.3686 4.03701C9.30988 3.89997 9.29451 3.74917 9.32445 3.60368C9.35439 3.4582 9.42829 3.32456 9.5368 3.21967C9.64531 3.11478 9.78356 3.04335 9.93407 3.01441C10.0846 2.98547 10.2406 3.00032 10.3824 3.05709C10.5241 3.11386 10.6453 3.20999 10.7306 3.33332C10.8158 3.45666 10.8613 3.60166 10.8613 3.75C10.8613 3.94891 10.7796 4.13968 10.6341 4.28033C10.4886 4.42098 10.2912 4.5 10.0854 4.5Z" fill="#381207" />
</svg>