<svg
    width="80"
    height="80"
    viewBox="0 0 80 80"
    fill="none"
    xmlns="http://www.w3.org/2000/svg"
>
    <path
        d="M40.0017 1.66797V13.048H33.335V1.66797H40.0017ZM16.6683 10.2846L24.715 18.3313L20.0017 23.0446L11.955 15.0013L16.6683 10.2846ZM61.3817 14.998L53.335 23.0446L48.6217 18.3346L56.6683 10.2846L61.3817 14.998ZM36.6683 22.7013C36 22.7013 35.359 22.9668 34.8864 23.4394C34.4138 23.912 34.1483 24.553 34.1483 25.2213V58.658L19.155 55.3246L18.8217 55.828L30.235 70.6813C30.4713 70.9868 30.7744 71.2343 31.1211 71.4047C31.4677 71.5751 31.8487 71.6641 32.235 71.6646H55.855C56.3839 71.6632 56.8991 71.4962 57.3283 71.1871C57.7575 70.8781 58.0792 70.4424 58.2483 69.9413L64.1883 52.108C64.3705 51.5581 64.3587 50.9623 64.1549 50.4201C63.9511 49.8778 63.5676 49.4218 63.0683 49.128L50.985 42.078C50.5993 41.8537 50.1612 41.7352 49.715 41.7346H39.185V25.2213C39.185 24.5535 38.92 23.9131 38.4481 23.4406C37.9762 22.9681 37.3361 22.7022 36.6683 22.7013ZM27.4817 25.2213C27.5275 22.8156 28.5153 20.5239 30.2329 18.8388C31.9504 17.1536 34.2605 16.2096 36.6667 16.2096C39.0728 16.2096 41.3829 17.1536 43.1005 18.8388C44.818 20.5239 45.8058 22.8156 45.8517 25.2213V35.068H49.715C51.3417 35.068 52.9417 35.5013 54.3483 36.318L66.4283 43.3713C68.2488 44.436 69.6481 46.0939 70.3921 48.0673C71.1361 50.0407 71.1795 52.2098 70.515 54.2113L64.5717 72.0446C63.961 73.8739 62.7909 75.465 61.2267 76.5931C59.6626 77.7212 57.7835 78.3292 55.855 78.3313H32.235C30.8275 78.3304 29.439 78.0066 28.1763 77.3848C26.9136 76.763 25.8104 75.8598 24.9517 74.7446L10.625 56.1013L13.7583 51.3946C14.4598 50.3429 15.4631 49.5279 16.6362 49.0568C17.8093 48.5856 19.0976 48.4803 20.3317 48.7546L27.4817 50.3446V25.2213Z"
        fill="#5B6502"
    />
</svg>