<svg width="15" height="12" viewBox="0 0 15 12" fill="none"
    xmlns="http://www.w3.org/2000/svg">
    <path d="M8.01724 1.90318C8.01724 0.972592 8.67724 0.0410156 9.69828 0.0410156C10.7193 0.0410156 11.3793 0.972592 11.3793 1.90318C11.3793 2.83376 10.7193 3.76534 9.69828 3.76534C8.67724 3.76534 8.01724 2.83376 8.01724 1.90318ZM1.68103 2.27561C0.66 2.27561 0 3.20718 0 4.13777C0 5.06835 0.66 5.99993 1.68103 5.99993C2.70207 5.99993 3.36207 5.06835 3.36207 4.13777C3.36207 3.20718 2.70207 2.27561 1.68103 2.27561ZM13.319 2.27561C12.2979 2.27561 11.6379 3.20718 11.6379 4.13777C11.6379 5.06835 12.2979 5.99993 13.319 5.99993C14.34 5.99993 15 5.06835 15 4.13777C15 3.20718 14.34 2.27561 13.319 2.27561ZM5.30172 0.0410156C4.28069 0.0410156 3.62069 0.972592 3.62069 1.90318C3.62069 2.83376 4.28069 3.76534 5.30172 3.76534C6.32276 3.76534 6.98276 2.83376 6.98276 1.90318C6.98276 0.972592 6.32276 0.0410156 5.30172 0.0410156ZM7.5 5.00678C6.12819 5.00678 4.81257 5.52995 3.84255 6.46121C2.87254 7.39247 2.32759 8.65553 2.32759 9.97254C2.32759 11.2616 3.58138 11.9588 4.69138 11.9588H10.3086C11.4186 11.9588 12.6724 11.2616 12.6724 9.97254C12.6724 8.65553 12.1275 7.39247 11.1574 6.46121C10.1874 5.52995 8.87181 5.00678 7.5 5.00678Z" fill="#381207" />
</svg>