<svg width="13" height="14" viewBox="0 0 13 14" fill="none"
    xmlns="http://www.w3.org/2000/svg">
    <path fillRule="evenodd" clipRule="evenodd" d="M6.06499 0.123047C6.24736 0.123047 6.42227 0.195495 6.55122 0.324454C6.68018 0.453413 6.75262 0.628318 6.75262 0.810693V1.47221L7.20234 1.23428C7.36355 1.14902 7.55203 1.1313 7.72632 1.18501C7.9006 1.23872 8.04641 1.35947 8.13167 1.52069C8.21693 1.68191 8.23465 1.87039 8.18094 2.04468C8.12723 2.21897 8.00649 2.36478 7.84527 2.45004L6.75262 3.02766V4.33557C7.24428 4.4621 7.6823 4.72065 8.02749 5.07204L9.16071 4.41809L9.11464 3.18307C9.1078 3.00079 9.17365 2.82325 9.29771 2.68952C9.42176 2.55579 9.59386 2.47682 9.77614 2.46998C9.95842 2.46314 10.136 2.529 10.2697 2.65306C10.4034 2.77711 10.4824 2.94922 10.4892 3.1315L10.5078 3.64036L11.0806 3.3096C11.1588 3.26374 11.2453 3.2338 11.3352 3.22151C11.425 3.20923 11.5164 3.21484 11.6041 3.23802C11.6918 3.2612 11.774 3.30149 11.846 3.35658C11.9181 3.41166 11.9785 3.48045 12.0238 3.55899C12.0692 3.63753 12.0986 3.72426 12.1102 3.81419C12.1219 3.90412 12.1157 3.99547 12.092 4.08299C12.0682 4.17051 12.0274 4.25246 11.9718 4.32414C11.9162 4.39581 11.847 4.45578 11.7682 4.5006L11.1954 4.83067L11.6266 5.10161C11.703 5.14965 11.7693 5.21228 11.8216 5.28594C11.8739 5.35959 11.9111 5.44282 11.9312 5.53088C11.9514 5.61893 11.9539 5.71009 11.9388 5.79913C11.9237 5.88818 11.8912 5.97338 11.8432 6.04987C11.7951 6.12636 11.7325 6.19263 11.6588 6.24491C11.5852 6.29719 11.502 6.33445 11.4139 6.35457C11.3258 6.37468 11.2347 6.37725 11.1456 6.36214C11.0566 6.34703 10.9714 6.31452 10.8949 6.26648L9.84834 5.60909L8.71581 6.26235C8.84984 6.74442 8.84984 7.25391 8.71581 7.73598L9.84834 8.38993L10.8949 7.73254C11.0494 7.63552 11.2361 7.60383 11.4139 7.64445C11.5917 7.68508 11.7461 7.79468 11.8432 7.94915C11.9402 8.10362 11.9719 8.29031 11.9312 8.46814C11.8906 8.64598 11.781 8.80039 11.6266 8.89741L11.1961 9.16766L11.7682 9.49842C11.847 9.54324 11.9162 9.60321 11.9718 9.67488C12.0274 9.74656 12.0682 9.82851 12.092 9.91603C12.1157 10.0035 12.1219 10.0949 12.1102 10.1848C12.0986 10.2748 12.0692 10.3615 12.0238 10.44C11.9785 10.5186 11.9181 10.5874 11.846 10.6424C11.774 10.6975 11.6918 10.7378 11.6041 10.761C11.5164 10.7842 11.425 10.7898 11.3352 10.7775C11.2453 10.7652 11.1588 10.7353 11.0806 10.6894L10.5085 10.3594L10.4892 10.8675C10.4824 11.0498 10.4034 11.2219 10.2697 11.346C10.136 11.47 9.95842 11.5359 9.77614 11.529C9.59386 11.5222 9.42176 11.4432 9.29771 11.3095C9.17365 11.1758 9.1078 10.9982 9.11464 10.8159L9.16071 9.58093L8.02749 8.92698C7.6823 9.27768 7.24359 9.53693 6.75262 9.66345V10.9714L7.84527 11.549C8.00649 11.6342 8.12723 11.7801 8.18094 11.9543C8.23465 12.1286 8.21693 12.3171 8.13167 12.4783C8.04641 12.6396 7.9006 12.7603 7.72632 12.814C7.55203 12.8677 7.36355 12.85 7.20234 12.7647L6.75262 12.5268V13.1883C6.75262 13.3707 6.68018 13.5456 6.55122 13.6746C6.42227 13.8035 6.24736 13.876 6.06499 13.876C5.88262 13.876 5.70772 13.8035 5.57876 13.6746C5.44981 13.5456 5.37736 13.3707 5.37736 13.1883V12.5268L4.92765 12.7647C4.84782 12.807 4.76046 12.833 4.67056 12.8415C4.58065 12.8499 4.48996 12.8406 4.40367 12.814C4.31737 12.7874 4.23716 12.7441 4.16761 12.6865C4.09806 12.6289 4.04053 12.5582 3.99832 12.4783C3.9561 12.3985 3.93002 12.3111 3.92157 12.2212C3.91311 12.1313 3.92245 12.0406 3.94904 11.9543C3.97564 11.868 4.01897 11.7878 4.07656 11.7183C4.13416 11.6487 4.20489 11.5912 4.28471 11.549L5.37736 10.9714V9.66345C4.8933 9.53818 4.45255 9.28333 4.10249 8.9263L2.96927 9.58093L3.01535 10.8159C3.01869 10.9062 3.00422 10.9962 2.97277 11.0809C2.94131 11.1656 2.89349 11.2432 2.83203 11.3094C2.77058 11.3756 2.69668 11.429 2.61458 11.4666C2.53247 11.5043 2.44376 11.5254 2.3535 11.5287C2.26324 11.532 2.17321 11.5176 2.08855 11.4861C2.00389 11.4547 1.92625 11.4068 1.86006 11.3454C1.79388 11.2839 1.74045 11.21 1.70282 11.1279C1.6652 11.0458 1.64411 10.9571 1.64077 10.8668L1.6222 10.3587L1.04941 10.6887C0.971129 10.7372 0.883925 10.7694 0.792965 10.7835C0.702004 10.7976 0.609139 10.7933 0.519873 10.7708C0.430608 10.7484 0.346759 10.7082 0.273298 10.6527C0.199838 10.5973 0.13826 10.5276 0.0922157 10.4479C0.0461713 10.3682 0.0165975 10.2801 0.00524756 10.1887C-0.00610239 10.0974 0.0010026 10.0047 0.0261411 9.91615C0.0512796 9.8276 0.0939399 9.745 0.151593 9.67324C0.209247 9.60149 0.28072 9.54204 0.361775 9.49842L0.934572 9.16766L0.503427 8.89673C0.353048 8.79789 0.247403 8.64405 0.209163 8.4682C0.170923 8.29236 0.203136 8.10853 0.298889 7.95617C0.394642 7.80381 0.546303 7.69506 0.721328 7.65325C0.896353 7.61144 1.08079 7.63991 1.23507 7.73254L2.28164 8.38993L3.41417 7.73598C3.28027 7.25413 3.28027 6.74489 3.41417 6.26304L2.28164 5.60978L1.23507 6.26648C1.08079 6.35912 0.896353 6.38758 0.721328 6.34577C0.546303 6.30396 0.394642 6.19521 0.298889 6.04285C0.203136 5.89049 0.170923 5.70666 0.209163 5.53082C0.247403 5.35497 0.353048 5.20113 0.503427 5.10229L0.934572 4.83136L0.361775 4.50129C0.20375 4.4101 0.0884212 4.25987 0.0411589 4.08365C-0.00610348 3.90743 0.0185722 3.71965 0.109758 3.56162C0.200944 3.40359 0.35117 3.28826 0.527388 3.241C0.703606 3.19374 0.891382 3.21841 1.04941 3.3096L1.6222 3.64036L1.64077 3.1315C1.64761 2.94922 1.72658 2.77711 1.86031 2.65306C1.92652 2.59163 2.00419 2.54385 2.08887 2.51243C2.17355 2.48102 2.26359 2.4666 2.35384 2.46998C2.4441 2.47337 2.53281 2.4945 2.61489 2.53217C2.69698 2.56984 2.77085 2.62331 2.83228 2.68952C2.8937 2.75574 2.94149 2.83341 2.9729 2.91809C3.00431 3.00277 3.01873 3.09282 3.01535 3.18307L2.96927 4.41809L4.10249 5.07273C4.45255 4.71569 4.8933 4.46084 5.37736 4.33557V3.02766L4.28471 2.45004C4.1235 2.36478 4.00275 2.21897 3.94904 2.04468C3.89533 1.87039 3.91306 1.68191 3.99832 1.52069C4.08357 1.35947 4.22938 1.23872 4.40367 1.18501C4.57795 1.1313 4.76643 1.14902 4.92765 1.23428L5.37736 1.47221V0.810693C5.37736 0.628318 5.44981 0.453413 5.57876 0.324454C5.70772 0.195495 5.88262 0.123047 6.06499 0.123047ZM6.06499 8.3748C6.42974 8.3748 6.77954 8.22991 7.03745 7.97199C7.29536 7.71407 7.44026 7.36426 7.44026 6.99951C7.44026 6.63476 7.29536 6.28495 7.03745 6.02703C6.77954 5.76911 6.42974 5.62422 6.06499 5.62422C5.70025 5.62422 5.35045 5.76911 5.09254 6.02703C4.83462 6.28495 4.68973 6.63476 4.68973 6.99951C4.68973 7.36426 4.83462 7.71407 5.09254 7.97199C5.35045 8.22991 5.70025 8.3748 6.06499 8.3748Z" fill="#381207" />
</svg>